<svg width="72" height="23" viewBox="0 0 72 23" fill="none" xmlns="http://www.w3.org/2000/svg">
<g clip-path="url(#clip0_26_501)">
<path d="M55.2664 18.3462C54.8013 17.8102 54.4471 17.1882 54.2241 16.5157L54.1637 16.3465L54.1033 16.1398L54.0655 16.012L54.0051 15.7752L53.9749 15.6362C53.9446 15.5046 53.9182 15.3655 53.8955 15.2265C53.891 15.1759 53.8834 15.1257 53.8729 15.0761L53.8427 14.8318C53.8487 14.7781 53.8487 14.7239 53.8427 14.6702L53.8238 14.4634L64.3977 11.9263C64.3356 11.3815 64.173 10.8526 63.9181 10.3665C63.5261 9.51644 62.8884 8.80196 62.0866 8.31424C61.1984 7.75516 60.2006 7.39123 59.1598 7.24678L58.9824 7.22047C58.3549 7.15145 57.7216 7.15145 57.0942 7.22047C55.4292 7.39969 53.866 8.10585 52.6342 9.23512C51.4179 10.3366 50.6048 11.8098 50.3231 13.4223L50.3231 13.4862C50.3042 13.5914 50.2891 13.6929 50.2778 13.8094C50.2664 13.926 50.2778 13.941 50.2551 14.0162C50.26 14.0737 50.26 14.1315 50.2551 14.1891C50.2626 14.2892 50.2626 14.3897 50.2551 14.4898L50.2551 14.9746C50.2797 15.845 50.464 16.7036 50.7989 17.508C51.3961 18.8866 52.3828 20.0629 53.6392 20.8937C54.8957 21.7245 56.3675 22.174 57.8759 22.1875C59.1516 22.2132 60.4146 21.9321 61.5579 21.3681C62.6886 20.8124 63.6641 19.9874 64.3977 18.9663L64.2164 18.5115C63.4687 19.9323 58.3102 21.6989 55.2664 18.3462ZM60.0775 12.103L53.7898 13.6065C53.7898 13.4185 53.7898 13.2306 53.8162 13.0539L53.8162 12.9976C53.8131 12.9375 53.8131 12.8772 53.8162 12.8171L53.8465 12.5728C53.9035 12.1818 53.9919 11.7959 54.1108 11.4189C54.3241 10.7194 54.6507 10.0592 55.0776 9.4644C55.4669 8.91621 55.9674 8.45527 56.5466 8.11127C57.101 7.7814 57.736 7.60975 58.3819 7.61513C59.2832 7.61513 59.9428 7.86571 60.3607 8.36686C60.5129 8.5415 60.64 8.7363 60.7384 8.9457C61.1576 10.0094 61.1273 11.7797 60.0775 12.103Z" fill="black"/>
<path d="M36.3956 18.5004C35.6404 19.9362 30.4894 21.699 27.4456 18.35C26.9464 17.7711 26.5735 17.0953 26.3504 16.3654C26.0878 15.5378 25.9603 14.6736 25.9728 13.8058C25.9671 12.9955 26.0869 12.1892 26.3278 11.4152C26.5411 10.7157 26.8676 10.0556 27.2945 9.46073C27.677 8.91699 28.1681 8.45763 28.7371 8.11136C29.2916 7.78167 29.9265 7.61003 30.5724 7.61522C31.4737 7.61522 32.1333 7.8658 32.5513 8.36695C32.982 8.90884 33.2043 9.58591 33.1781 10.2764C33.1874 10.6349 33.1337 10.9923 33.0195 11.3326L36.2295 10.5808C35.0626 7.57387 31.1955 7.15666 30.4818 7.15666C24.3565 7.05893 20.9955 12.7947 22.9743 17.4667C23.5722 18.8462 24.5595 20.0234 25.8163 20.8554C27.0732 21.6874 28.5457 22.1384 30.0551 22.1538C31.3308 22.1795 32.5938 21.8984 33.7371 21.3344C34.8679 20.7787 35.8434 19.9537 36.5769 18.9326L36.3956 18.5004Z" fill="black"/>
<path d="M50.3229 18.5004C49.5676 19.9362 44.4166 21.699 41.3729 18.35C40.879 17.775 40.5099 17.1044 40.289 16.3805C40.0265 15.5528 39.899 14.6887 39.9114 13.8208C39.9057 13.0106 40.0255 12.2043 40.2664 11.4303C40.4785 10.731 40.8037 10.0708 41.2294 9.47579C41.611 8.92725 42.1021 8.4628 42.6719 8.11139C43.2264 7.78151 43.8613 7.60986 44.5073 7.61524C45.406 7.61524 46.0657 7.86582 46.4861 8.36698C46.9209 8.9073 47.1472 9.58453 47.1243 10.2764C47.134 10.6353 47.079 10.993 46.9619 11.3326L50.153 10.5808C48.9936 7.5739 45.1266 7.16044 44.4204 7.16044C38.2951 7.06272 34.9341 12.7985 36.9129 17.4705C37.5069 18.8535 38.4922 20.0348 39.7487 20.8703C41.0053 21.7059 42.4788 22.1596 43.9899 22.1764C45.2681 22.2032 46.5339 21.9221 47.6794 21.357C48.8102 20.8012 49.7857 19.9762 50.5193 18.9552L50.3229 18.5004Z" fill="black"/>
<path d="M69.0274 19.1693L69.0274 -1.06801e-07L64.4957 1.09753L64.4655 1.09753L64.4655 1.52227C64.6241 1.52227 65.9949 1.89813 65.9949 2.8378L65.9949 19.1016C65.9949 21.1539 64.5372 21.4508 63.5516 21.5147L63.5516 21.8567L71.4707 21.8567L71.4707 21.5147C70.4888 21.4508 69.0614 21.1501 69.0274 19.1693Z" fill="black"/>
<path d="M14.2509 -4.75076e-07L9.76456 1.09378L9.73057 1.09378L9.73057 1.42454C9.88918 1.42454 11.2222 1.89438 10.8635 2.74008C9.16034 6.49124 3.63547 19.0114 3.34469 19.5752C2.38926 21.4546 1.03354 21.4546 0.474629 21.5147L0.474629 21.8567L7.49873 21.8567L7.49873 21.5072C7.49873 21.5072 4.83259 21.5372 4.83259 20.1503C4.83259 19.3084 6.21097 15.997 6.58483 15.0911L15.735 12.8697C15.7577 12.9261 18.2199 18.8611 18.2199 20.1127C18.2199 21.4658 16.0334 21.5072 15.9541 21.5072L15.9541 21.8492L25.1194 21.8492L25.1194 21.5072C24.4688 21.5182 23.8292 21.3388 23.2801 20.9914C22.731 20.6439 22.2964 20.1437 22.0303 19.5527C21.7546 19.0114 14.2509 -4.75076e-07 14.2509 -4.75076e-07ZM15.4178 12.103L6.97003 14.1552C7.01534 14.0462 11.6112 3.32643 11.7396 3.05581C11.9322 3.50309 15.414 12.103 15.414 12.103L15.4178 12.103Z" fill="black"/>
</g>
<defs>
<clipPath id="clip0_26_501">
<rect width="22.1875" height="71" fill="white" transform="translate(71.4707) rotate(90)"/>
</clipPath>
</defs>
</svg>
