<svg width="135" height="18" viewBox="0 0 135 18" fill="none" xmlns="http://www.w3.org/2000/svg">
<g clip-path="url(#clip0_26_485)">
<path d="M47.5503 17.82L45.8246 14.82C46.6314 13.2675 46.6314 11.4375 46.6314 9.02997C46.6314 6.02997 46.6314 3.77997 44.9057 1.95747C44.3111 1.30609 43.5816 0.793297 42.7686 0.455125C41.9555 0.116953 41.0785 -0.0384015 40.1993 -2.51387e-05C39.3224 -0.0194504 38.4511 0.144557 37.6409 0.481565C36.8306 0.818572 36.099 1.3212 35.4928 1.95747C33.7671 3.69747 33.7671 5.90247 33.7671 8.99998C33.7671 12.0975 33.6774 14.25 35.4928 16.065C36.0944 16.7108 36.825 17.222 37.6368 17.565C38.4487 17.8991 39.3224 18.0551 40.1993 18.0225C40.6899 18.0153 41.1783 17.9549 41.656 17.8425L47.5503 17.82ZM37.9431 13.9575C37.3156 13.2075 37.1363 12.3975 37.1363 8.99998C37.1363 5.60247 37.353 4.76997 37.9431 4.04247C38.2303 3.75476 38.5703 3.52554 38.9442 3.36747C39.315 3.20888 39.714 3.12724 40.1171 3.12747C40.5225 3.12807 40.9237 3.20965 41.2974 3.36747C41.6691 3.52572 42.0065 3.75497 42.291 4.04247C42.9186 4.79247 43.0978 5.60247 43.0978 8.99998C43.0978 12.3975 42.9186 13.2225 42.291 13.9575C42.0132 14.2533 41.6775 14.4882 41.3049 14.6475C40.927 14.7974 40.5234 14.8713 40.1171 14.865C39.7123 14.8731 39.3103 14.7965 38.9367 14.64C38.5628 14.4825 38.2248 14.2503 37.9431 13.9575Z" fill="black"/>
<path d="M87.2791 0.179871H90.6184V17.8199H87.2791V0.179871Z" fill="black"/>
<path d="M6.34253 17.9999C3.73529 17.9999 1.73318 17.4524 0 15.7049L2.17394 13.4999C2.73561 14.014 3.3932 14.4113 4.1087 14.6688C4.8242 14.9262 5.58344 15.0388 6.34253 14.9999C8.33718 14.9999 9.42041 14.2499 9.42041 12.7949C9.43071 12.5241 9.38755 12.2539 9.29341 11.9999C9.2022 11.7482 9.05972 11.5183 8.87506 11.3249C8.44284 10.9521 7.90409 10.7263 7.33612 10.6799L5.22941 10.3874C3.97944 10.2806 2.80235 9.75189 1.89006 8.88741C1.47051 8.41983 1.14572 7.87468 0.933824 7.28241C0.710805 6.68117 0.611686 6.04073 0.642471 5.39991C0.627529 2.2949 2.89112 0.0899048 6.72353 0.0899048C9.07677 0.0899048 10.8921 0.629905 12.3489 2.1074L10.1525 4.22991C9.67916 3.79011 9.12004 3.45371 8.51052 3.242C7.901 3.03028 7.25435 2.94784 6.61147 2.99991C4.79612 2.99991 3.89965 4.01991 3.89965 5.24991C3.91402 5.72743 4.1059 6.18227 4.43753 6.52491C4.90708 6.91598 5.47169 7.1748 6.07359 7.27491L8.15788 7.54491C9.40323 7.57872 10.5923 8.07279 11.4972 8.93241C11.9608 9.43719 12.3212 10.0283 12.5581 10.6724C12.7898 11.3237 12.8938 12.0139 12.8644 12.7049C12.8644 16.0874 9.97324 18.0224 6.33506 18.0224" fill="black"/>
<path d="M17.7427 17.8199V0.179871H29.2399V3.17987H21.1717V7.34237H28.0446V10.4999H21.1791V14.8274H29.2474V17.8274H17.7427" fill="black"/>
<path d="M58.1287 17.9999C54.5877 17.9999 51.6965 15.5249 51.6965 11.7599V0.179871H55.1554V11.6549C55.1554 13.6799 56.3432 14.8649 58.1437 14.8649C59.9441 14.8649 61.1319 13.6574 61.1319 11.6549V0.179871H64.4712V11.7449C64.4712 15.4949 61.6922 17.9849 58.1511 17.9849" fill="black"/>
<path d="M80.5778 16.065C79.9825 16.715 79.2528 17.2264 78.4397 17.5632C77.6267 17.9001 76.7501 18.0543 75.8714 18.015C74.9957 18.039 74.1248 17.8777 73.3153 17.5418C72.5057 17.2058 71.7756 16.7027 71.1724 16.065C69.4765 14.3175 69.4765 12.1125 69.4765 8.99997C69.4765 5.88747 69.3869 3.74997 71.2097 1.93497C71.7993 1.29076 72.522 0.783769 73.3272 0.449513C74.1325 0.115257 75.0008 -0.0381744 75.8714 -3.0682e-05C76.7466 -0.0123517 77.6151 0.154163 78.4242 0.489389C79.2333 0.824615 79.966 1.32155 80.5778 1.94997C82.3035 3.69747 82.3035 5.90247 82.3035 9.01497C82.3035 12.1275 82.3035 14.25 80.5778 16.065ZM78.0453 4.06497C77.7612 3.77721 77.4232 3.54879 77.0507 3.39291C76.6782 3.23703 76.2787 3.15678 75.8751 3.15678C75.4716 3.15678 75.072 3.23703 74.6995 3.39291C74.327 3.54879 73.989 3.77721 73.7049 4.06497C73.0699 4.81497 72.8981 5.62497 72.8981 9.02247C72.8981 12.42 73.0699 13.245 73.7049 13.9725C73.988 14.2621 74.3257 14.4921 74.6983 14.6491C75.0709 14.8061 75.471 14.887 75.8751 14.887C76.2792 14.887 76.6793 14.8061 77.0519 14.6491C77.4246 14.4921 77.7623 14.2621 78.0453 13.9725C78.6728 13.2225 78.8521 12.42 78.8521 9.02247C78.8521 5.62497 78.6953 4.76997 78.0453 4.04247V4.06497Z" fill="black"/>
<path d="M106.665 17.8199L105.671 14.6999H99.5082L98.4325 17.8199H94.8765L101.241 0.179871H103.841L110.184 17.8199H106.665ZM102.579 5.31737L100.405 11.7449H104.753L102.579 5.31737Z" fill="black"/>
<path d="M130.123 0.179871H134.471V4.58987H130.123V0.179871Z" fill="black"/>
<path d="M119.253 14.0249V0.179871H117.079V16.2524L119.253 14.0249Z" fill="black"/>
<path d="M120.777 15.615L118.603 17.82H134.471V15.615H120.777Z" fill="black"/>
<path d="M123.601 9.63737V0.179871H121.427V11.8424L123.601 9.63737Z" fill="black"/>
<path d="M125.125 11.205L122.944 13.41H134.471V11.205H125.125Z" fill="black"/>
<path d="M127.942 5.24987V0.179871H125.768V7.43237L127.942 5.24987Z" fill="black"/>
<path d="M129.473 6.79492L127.306 8.99992H134.471V6.79492H129.473Z" fill="black"/>
</g>
<defs>
<clipPath id="clip0_26_485">
<rect width="134.471" height="18" fill="white"/>
</clipPath>
</defs>
</svg>
