<svg width="126" height="18" viewBox="0 0 126 18" fill="none" xmlns="http://www.w3.org/2000/svg">
<g clip-path="url(#clip0_26_531)">
<path d="M8.65071 15.0631C8.65071 16.0105 8.74474 16.2947 9.68504 16.3895L11.1895 16.4842V17.3368H3.00892V16.4842L4.41937 16.3895C5.26564 16.2947 5.4537 16.0105 5.4537 15.0631V1.98946H4.32534C1.97459 1.98946 1.6925 2.84209 0.940263 5.30525H0.0939941V0.947357H14.1044V5.39999H13.2582C12.6 2.84209 12.2238 1.98946 9.96713 1.98946H8.65071V15.0631Z" fill="black"/>
<path d="M19.7464 3.22104C19.7464 1.98946 19.5583 1.89473 17.7717 1.79999V0.947357H30.1837V5.21051H29.3374C28.6792 2.84209 28.3031 1.98946 25.8583 1.98946H23.7896C23.1314 1.98946 22.9434 2.17894 22.9434 2.84209V8.24209H25.6702C27.2687 8.24209 27.5508 7.76841 27.8329 6.06315H28.6792V11.4631H27.8329C27.5508 9.75788 27.2687 9.37893 25.6702 9.37893H22.9434V14.4947C22.9434 16.0105 23.1314 16.2947 25.7643 16.2947C28.5852 16.2947 29.4314 15.3474 30.1837 12.6947H30.9359L30.8419 17.3368H17.8658V16.4842C19.6523 16.3895 19.7464 16.2947 19.7464 15.0631V3.22104Z" fill="black"/>
<path d="M34.791 17.3368V16.4842C36.0134 16.3895 36.3895 16.4842 36.5776 15.1579C36.6716 14.3053 36.6716 13.4526 36.6716 11.6526V3.22104C36.6716 1.98946 36.4836 1.89473 34.791 1.79999V0.947357H40.7149C41.9373 4.16841 44.1 9.75788 45.1343 12.4105H45.2283C46.5447 8.90525 48.5194 4.35788 49.7418 0.947357H55.3836V1.79999C53.597 1.79999 53.3149 1.89473 53.3149 3.1263V14.9684C53.3149 16.2 53.503 16.3895 55.2895 16.4842V17.3368H48.3313V16.4842C50.1179 16.3895 50.2119 16.2947 50.2119 15.0631V3.22104H50.1179C48.7074 6.91578 45.6985 14.4947 44.7582 17.1474H43.5358C42.0313 12.9789 39.2104 6.44209 37.988 3.22104V3.31578V11.7474C37.988 13.5474 37.988 14.4947 38.0821 15.2526C38.2701 16.6737 39.0224 16.3895 40.3388 16.4842V17.3368H34.791Z" fill="black"/>
<path d="M67.1373 17.3369V16.4843H68.4537C69.0179 16.3895 69.1119 16.2 68.9238 15.6316C68.5477 14.3053 67.7955 12.3158 67.5134 11.3685H62.8119C62.3417 12.7895 61.8716 14.4 61.5895 15.4421C61.4014 15.9158 61.4955 16.2948 62.0596 16.3895H63.4701V17.2421H58.0164V16.3895C59.4268 16.2948 59.5208 16.2948 59.991 15.0632C61.4014 11.6527 63.5641 5.21057 65.0686 0.757935H67.6074C68.9238 4.83162 71.3686 11.9369 72.4029 15.2527C72.685 16.2948 73.0611 16.3895 74.3776 16.3895V17.2421H67.1373V17.3369ZM65.1626 3.78951C64.5984 5.49478 63.6581 8.24214 63.094 10.3264H67.1373C66.5731 8.71583 65.7268 5.40004 65.1626 3.78951Z" fill="black"/>
<path d="M86.6955 5.39997C86.1313 2.74734 84.7208 1.6105 83.1223 1.6105C81.5238 1.6105 80.5835 2.74734 80.5835 4.26313C80.5835 6.06313 82.2761 6.82102 84.0626 7.67365C86.4134 8.71576 88.5761 9.66313 88.5761 12.7894C88.5761 15.2526 87.0716 17.9052 82.4641 17.9052C80.8656 17.9052 78.7029 17.621 77.5746 16.4842L77.2925 12.221H78.1388C78.985 15.1579 80.5835 16.7684 82.5582 16.7684C84.2507 16.7684 85.5671 15.821 85.5671 14.021C85.5671 12.4105 84.4388 11.3684 82.3701 10.5158C79.7373 9.37892 77.4805 8.14734 77.4805 5.49471C77.4805 2.55786 79.4552 0.56839 83.2164 0.56839C84.7208 0.56839 86.5074 0.947337 87.6358 1.6105V5.39997H86.6955Z" fill="black"/>
<path d="M95.0642 3.22104C95.0642 1.98946 94.8762 1.89473 93.1836 1.79999V0.947357H105.69V5.21051H104.843C104.185 2.84209 103.809 1.98946 101.27 1.98946H99.4836C98.8254 1.98946 98.6374 2.17894 98.6374 2.84209V8.24209H100.988C102.587 8.24209 102.869 7.76841 103.151 6.06315H103.997V11.6526H103.151C102.869 9.94736 102.587 9.37893 100.988 9.37893H98.6374V14.4947C98.6374 16.0105 98.8254 16.2947 101.458 16.2947C104.279 16.2947 104.937 15.1579 105.69 12.5053H106.536L106.16 17.3368H93.0896V16.4842C94.8762 16.3895 94.9702 16.2947 94.9702 15.0631V3.22104H95.0642Z" fill="black"/>
<path d="M112.272 3.22104C112.272 1.98946 112.084 1.89473 110.391 1.79999V0.947357H117.537V1.79999C115.751 1.89473 115.657 1.98946 115.657 3.22104V15.0631C115.657 16.2947 115.845 16.3895 117.631 16.4842V17.3368H110.485V16.4842C112.272 16.3895 112.366 16.2947 112.366 15.0631V3.22104H112.272ZM120.922 1.89473L119.888 1.79999V0.947357H126.094V1.79999C124.496 1.89473 123.837 2.27367 122.897 2.93683C121.299 4.26315 119.982 5.58946 118.196 7.4842C119.606 9.75788 121.769 12.8842 123.837 15.1579C124.496 15.9158 125.342 16.4842 126 16.6737L125.906 17.5263L124.308 17.4316C121.675 17.3368 120.64 16.5789 119.042 14.4947C117.725 12.7895 115.281 8.81051 115.281 8.81051C117.161 6.91578 119.7 4.16841 120.922 2.55788C121.299 2.17894 121.299 1.89473 120.922 1.89473Z" fill="black"/>
</g>
<defs>
<clipPath id="clip0_26_531">
<rect width="126" height="18" fill="white"/>
</clipPath>
</defs>
</svg>
