<?xml version="1.0" standalone="no"?>
<!DOCTYPE svg PUBLIC "-//W3C//DTD SVG 20010904//EN"
 "http://www.w3.org/TR/2001/REC-SVG-20010904/DTD/svg10.dtd">
<svg version="1.0" xmlns="http://www.w3.org/2000/svg"
 width="700.000000pt" height="700.000000pt" viewBox="0 0 700.000000 700.000000"
 preserveAspectRatio="xMidYMid meet">
<metadata>
Created by potrace 1.14, written by Peter Selinger 2001-2017
</metadata>
<g transform="translate(0.000000,700.000000) scale(0.100000,-0.100000)"
fill="#000000" stroke="none">
<path d="M2 4650 l3 -2315 1146 -1 c630 0 1150 -4 1156 -7 6 -4 10 -24 10 -44
0 -37 9 -164 19 -253 38 -336 192 -732 398 -1025 126 -180 303 -368 456 -485
25 -19 47 -37 50 -41 33 -40 383 -238 515 -291 107 -43 277 -96 355 -112 167
-32 205 -38 340 -52 57 -5 299 -5 360 0 103 10 175 18 180 21 3 1 27 6 54 9
27 4 52 9 55 11 3 1 24 6 46 9 44 7 148 37 240 68 435 148 828 435 1106 808
245 328 393 706 444 1135 12 99 13 425 1 495 -2 14 -7 48 -10 75 -18 142 -66
332 -123 490 -22 61 -142 314 -176 370 -191 318 -465 596 -773 787 -353 218
-776 343 -1181 347 l-42 1 0 1073 c0 589 0 1110 -1 1157 l0 86 -2315 0 -2315
0 2 -2316z"/>
</g>
</svg>
