<svg width="64" height="64" viewBox="0 0 64 64" fill="none" xmlns="http://www.w3.org/2000/svg">
<path d="M53.25 54C52.56 54 52 54.56 52 55.25C52 55.94 52.56 56.5 53.25 56.5C53.94 56.5 54.5 55.94 54.5 55.25C54.5 54.56 53.94 54 53.25 54Z" fill="#15214B"/>
<path d="M33.25 32.5C32.56 32.5 32 33.06 32 33.75C32 34.44 32.56 35 33.25 35C33.94 35 34.5 34.44 34.5 33.75C34.5 33.06 33.94 32.5 33.25 32.5Z" fill="#15214B"/>
<path d="M13.25 42.5C12.56 42.5 12 43.06 12 43.75C12 44.44 12.56 45 13.25 45C13.94 45 14.5 44.44 14.5 43.75C14.5 43.06 13.94 42.5 13.25 42.5Z" fill="#15214B"/>
<path d="M58.25 42.5H45.75C45.0596 42.5 44.5 43.0596 44.5 43.75V61.5H39.5V23.75C39.5 23.0596 38.9404 22.5 38.25 22.5H25.75C25.0596 22.5 24.5 23.0596 24.5 23.75V61.5H19.5V33.75C19.5 33.0596 18.9404 32.5 18.25 32.5H5.75C5.05963 32.5 4.5 33.0596 4.5 33.75V62.75C4.5 63.4404 5.05963 64 5.75 64H58.25C58.9404 64 59.5 63.4404 59.5 62.75V43.75C59.5 43.0596 58.9404 42.5 58.25 42.5ZM17 61.5H14.5V48.75C14.5 48.0596 13.9404 47.5 13.25 47.5C12.5596 47.5 12 48.0596 12 48.75V61.5H7V35H17V61.5ZM37 61.5H34.5V38.75C34.5 38.0596 33.9404 37.5 33.25 37.5C32.5596 37.5 32 38.0596 32 38.75V61.5H27V25H37V61.5ZM57 61.5H54.5V60.25C54.5 59.5596 53.9404 59 53.25 59C52.5596 59 52 59.5596 52 60.25V61.5H47V45H57V61.5Z" fill="#15214B"/>
<path d="M15.6257 18.4375C16.4765 17.5408 17 16.3307 17 15C17 12.243 14.757 10 12 10C9.243 10 7 12.243 7 15C7 16.3307 7.5235 17.5408 8.37425 18.4375C6.06625 19.7177 4.5 22.179 4.5 25V26.25C4.5 26.9404 5.05963 27.5 5.75 27.5H18.25C18.9404 27.5 19.5 26.9404 19.5 26.25V25C19.5 22.179 17.9338 19.7177 15.6257 18.4375ZM12 12.5C13.3785 12.5 14.5 13.6215 14.5 15C14.5 16.3785 13.3785 17.5 12 17.5C10.6215 17.5 9.5 16.3785 9.5 15C9.5 13.6215 10.6215 12.5 12 12.5ZM7 25C7 22.243 9.243 20 12 20C14.757 20 17 22.243 17 25H7Z" fill="#15214B"/>
<path d="M35.6258 8.4375C36.4765 7.54075 37 6.33075 37 5C37 2.243 34.757 0 32 0C29.243 0 27 2.243 27 5C27 6.33075 27.5235 7.54075 28.3743 8.4375C26.0663 9.71775 24.5 12.179 24.5 15V16.25C24.5 16.9404 25.0596 17.5 25.75 17.5H38.25C38.9404 17.5 39.5 16.9404 39.5 16.25V15C39.5 12.179 37.9338 9.71775 35.6258 8.4375ZM32 2.5C33.3785 2.5 34.5 3.6215 34.5 5C34.5 6.3785 33.3785 7.5 32 7.5C30.6215 7.5 29.5 6.3785 29.5 5C29.5 3.6215 30.6215 2.5 32 2.5ZM27 15C27 12.243 29.243 10 32 10C34.757 10 37 12.243 37 15H27Z" fill="#15214B"/>
<path d="M55.6258 28.4375C56.4765 27.5408 57 26.3307 57 25C57 22.243 54.757 20 52 20C49.243 20 47 22.243 47 25C47 26.3307 47.5235 27.5408 48.3742 28.4375C46.0662 29.7177 44.5 32.179 44.5 35V36.25C44.5 36.9404 45.0596 37.5 45.75 37.5H58.25C58.9404 37.5 59.5 36.9404 59.5 36.25V35C59.5 32.179 57.9338 29.7177 55.6258 28.4375ZM52 22.5C53.3785 22.5 54.5 23.6215 54.5 25C54.5 26.3785 53.3785 27.5 52 27.5C50.6215 27.5 49.5 26.3785 49.5 25C49.5 23.6215 50.6215 22.5 52 22.5ZM47 35C47 32.243 49.243 30 52 30C54.757 30 57 32.243 57 35H47Z" fill="#15214B"/>
</svg>
