<svg width="64" height="64" viewBox="0 0 64 64" fill="none" xmlns="http://www.w3.org/2000/svg">
<path d="M52 38.25C51.31 38.25 50.75 38.81 50.75 39.5C50.75 40.19 51.31 40.75 52 40.75C52.69 40.75 53.25 40.19 53.25 39.5C53.25 38.81 52.69 38.25 52 38.25Z" fill="#15214B"/>
<path d="M12 38.25C11.31 38.25 10.75 38.81 10.75 39.5C10.75 40.19 11.31 40.75 12 40.75C12.69 40.75 13.25 40.19 13.25 39.5C13.25 38.81 12.69 38.25 12 38.25Z" fill="#15214B"/>
<path d="M60.1976 32.7165C59.8522 32.4844 59.4141 32.4391 59.0285 32.596C56.7405 33.5276 54.316 34 51.8225 34H48.1562C41.3154 34 35.75 39.5654 35.75 46.4062V49.6339C34.7943 50.4001 33.9708 51.128 33.25 51.8454V32.4524C41.6285 31.812 48.25 24.7897 48.25 16.25C48.25 7.28975 40.9604 0 32 0C23.0397 0 15.75 7.28975 15.75 16.25C15.75 24.7897 22.3715 31.812 30.75 32.4524V51.8454C30.0292 51.128 29.2057 50.4003 28.25 49.6339V46.4062C28.25 39.5654 22.6846 34 15.8438 34H12.1775C9.68388 34 7.2595 33.5276 4.97137 32.596C4.58588 32.4391 4.14763 32.4842 3.80238 32.7165C3.45713 32.9487 3.25 33.3376 3.25 33.7537V36.1925C3.25 44.6331 10.1169 51.5 18.5575 51.5H26.5804C28.4528 52.9911 29.7628 54.2966 30.75 55.6569V56.5H27C23.9818 56.5 21.4565 58.6506 20.8757 61.5H17C16.3096 61.5 15.75 62.0596 15.75 62.75C15.75 63.4404 16.3096 64 17 64H47C47.6903 64 48.25 63.4404 48.25 62.75C48.25 62.0596 47.6903 61.5 47 61.5H43.1242C42.5435 58.6506 40.0184 56.5 37 56.5H33.25V55.657C34.2374 54.2966 35.5472 52.9911 37.4196 51.5H45.4425C53.883 51.5 60.75 44.6331 60.75 36.1925V33.7537C60.75 33.3376 60.5429 32.9487 60.1976 32.7165ZM25.75 47.7465C24.7149 47.0004 23.6203 46.2417 22.4869 45.4567C20.6809 44.2061 18.8135 42.9128 16.8062 41.4155C16.2529 41.0028 15.4698 41.1166 15.0569 41.6701C14.6441 42.2235 14.758 43.0066 15.3115 43.4195C17.354 44.9431 19.3248 46.3079 21.0636 47.512C21.7948 48.0184 22.5092 48.5135 23.2004 49H18.5575C11.4954 49 5.75 43.2546 5.75 36.1925V35.5289C7.8215 36.1739 9.97625 36.5 12.1775 36.5H15.8438C21.3061 36.5 25.75 40.9439 25.75 46.4062V47.7465ZM37 59C38.6295 59 40.019 60.0451 40.535 61.5H23.465C23.981 60.0451 25.3704 59 27 59H37ZM32 30C24.4183 30 18.25 23.8317 18.25 16.25C18.25 8.66825 24.4183 2.5 32 2.5C39.5817 2.5 45.75 8.66825 45.75 16.25C45.75 23.8317 39.5817 30 32 30ZM58.25 36.1925C58.25 43.2546 52.5046 49 45.4425 49H40.7996C41.4909 48.5134 42.2055 48.0181 42.9369 47.5117C44.6755 46.3076 46.6463 44.943 48.6888 43.4195C49.2421 43.0067 49.356 42.2235 48.9432 41.6701C48.5305 41.1167 47.7474 41.0026 47.1939 41.4155C45.1867 42.9126 43.3195 44.2057 41.5136 45.4564C40.38 46.2414 39.2853 47.0003 38.2501 47.7464V46.4062C38.25 40.9439 42.694 36.5 48.1562 36.5H51.8225C54.0238 36.5 56.1785 36.1739 58.25 35.5288V36.1925Z" fill="#15214B"/>
<path d="M32.5848 15.2345C30.7214 14.2496 29.5 13.5334 29.5 12.5889C29.5 11.2104 30.6215 10.0889 32 10.0889C33.3785 10.0889 34.5 11.2104 34.5 12.5889C34.5 13.2792 35.0597 13.8389 35.75 13.8389C36.4403 13.8389 37 13.2792 37 12.5889C37 10.2634 35.4041 8.30362 33.25 7.74712V6.33887C33.25 5.64849 32.6902 5.08887 32 5.08887C31.3098 5.08887 30.75 5.64849 30.75 6.33887V7.74712C28.5959 8.30362 27 10.2634 27 12.5889C27 15.1102 29.3462 16.3505 31.4164 17.4447C33.279 18.4294 34.5 19.1452 34.5 20.0889C34.5 21.4674 33.3785 22.5889 32 22.5889C30.6215 22.5889 29.5 21.4674 29.5 20.0889C29.5 19.3985 28.9404 18.8389 28.25 18.8389C27.5596 18.8389 27 19.3985 27 20.0889C27 22.4144 28.5959 24.3741 30.75 24.9306V26.3389C30.75 27.0292 31.3098 27.5889 32 27.5889C32.6902 27.5889 33.25 27.0292 33.25 26.3389V24.9306C35.4041 24.3741 37 22.4144 37 20.0889C37 17.5684 34.6543 16.3285 32.5848 15.2345Z" fill="#15214B"/>
</svg>
