<svg width="64" height="64" viewBox="0 0 64 64" fill="none" xmlns="http://www.w3.org/2000/svg">
<path d="M45.75 49.5C45.06 49.5 44.5 50.06 44.5 50.75C44.5 51.44 45.06 52 45.75 52C46.44 52 47 51.44 47 50.75C47 50.06 46.44 49.5 45.75 49.5Z" fill="#15214B"/>
<path d="M48.8278 45.4579L42.8865 43.4779L40.7536 39.212C42.6751 37.2563 44.0093 34.6685 44.4591 31.9694L44.7251 30.375H47C49.0677 30.375 50.75 28.6927 50.75 26.625V18.75C50.75 8.41125 42.3387 0 32 0C21.6348 0 13.25 8.38713 13.25 18.75V26.625C13.25 28.2545 14.2951 29.644 15.75 30.16V31.625C15.75 33.6927 17.4323 35.375 19.5 35.375H20.5977C21.1396 36.5521 21.841 37.6424 22.6945 38.6217C22.8715 38.8252 23.0561 39.0225 23.2453 39.2144L21.1135 43.4779L15.1721 45.458C8.264 47.7615 3.25 55.0339 3.25 62.75C3.25 63.4404 3.80963 64 4.5 64H59.5C60.1902 64 60.75 63.4404 60.75 62.75C60.75 55.0339 55.7361 47.7615 48.8278 45.4579ZM48.25 26.625C48.25 27.3142 47.6892 27.875 47 27.875H45.0923C45.41 25.4137 45.6217 22.7946 45.7069 20.215C45.7094 20.1423 45.7114 20.0715 45.7136 20H48.25V26.625ZM17 27.875C16.3108 27.875 15.75 27.3142 15.75 26.625V20H18.2873C18.2914 20.1304 18.2957 20.2614 18.3006 20.3932C18.3007 20.3977 18.301 20.4021 18.3011 20.4066C18.3011 20.407 18.3011 20.4074 18.3011 20.4077C18.3886 22.9167 18.5976 25.4679 18.9081 27.8749H17V27.875ZM19.5 32.875C18.8108 32.875 18.25 32.3142 18.25 31.625V30.375H19.2747L19.5408 31.9699C19.5915 32.273 19.6539 32.575 19.726 32.875H19.5ZM18.2521 17.5H15.7975C16.4306 9.12237 23.4221 2.5 32 2.5C40.5398 2.5 47.562 9.1215 48.2024 17.5H45.748C45.658 10.5966 40.0364 5 33.1189 5H30.8814C23.964 5 18.342 10.5966 18.2521 17.5ZM30.8813 7.5H33.1188C38.7199 7.5 43.2533 12.0814 43.25 17.6763C43.25 18.0696 43.2469 18.4121 43.2402 18.7237C43.2402 18.7277 43.2401 18.7319 43.2401 18.736L41.6766 18.5126C37.4291 17.9061 33.4186 15.9009 30.3839 12.8661C30.1494 12.6318 29.8315 12.5 29.5 12.5C26.143 12.5 22.9295 14.0295 20.8053 16.6135C21.3288 11.5236 25.6316 7.5 30.8813 7.5ZM22.3175 32.875C21.6917 30.7934 20.9757 24.6684 20.8175 20.7434L22.4999 18.5001C24.045 16.4406 26.4489 15.161 29.006 15.0141C32.3706 18.2161 36.7234 20.3306 41.3231 20.9874L43.1634 21.2504C43.0404 23.861 42.789 26.4808 42.4289 28.8901C42.4287 28.8909 42.4286 28.8918 42.4285 28.8926C42.314 29.6673 42.2238 30.1657 41.9933 31.5581C41.3313 35.5287 38.3685 39.1194 34.4574 40.0973C32.8477 40.4991 31.152 40.499 29.5432 40.0973C27.1011 39.4868 24.8619 37.797 23.4167 35.375H25.965C26.481 36.8299 27.8704 37.875 29.5 37.875H32C34.0719 37.875 35.75 36.197 35.75 34.125C35.75 32.0573 34.0677 30.375 32 30.375H29.5C27.8341 30.375 26.4653 31.451 25.9629 32.875H22.3175ZM29.3949 42.627C30.2522 42.8076 31.1264 42.9 32 42.9C32.6839 42.9 33.3679 42.8428 34.0441 42.7318L31.8354 45.0676L29.3949 42.627ZM30.1169 46.8849L26.1521 51.0776C25.0606 48.9884 24.1228 46.814 23.3535 44.588L24.8424 41.6102L30.1169 46.8849ZM38.9458 41.1867L40.6463 44.5879C39.8758 46.8176 38.9376 48.9927 37.8473 51.0795L33.6037 46.836L38.9458 41.1867ZM28.25 34.125C28.25 33.4349 28.8098 32.875 29.5 32.875H32C32.6892 32.875 33.25 33.4358 33.25 34.125C33.25 34.8152 32.6901 35.375 32 35.375H29.5C28.8108 35.375 28.25 34.8142 28.25 34.125ZM5.8 61.5C6.29538 55.3076 10.4165 49.6791 15.9628 47.8296L21.2245 46.0761C22.1885 48.7418 23.3828 51.3326 24.7824 53.7936C24.7848 53.7979 24.787 53.8021 24.7894 53.8063C24.7894 53.8064 24.7895 53.8064 24.7895 53.8065C25.8121 55.6051 26.9631 57.3628 28.211 59.0314L29.7488 61.5H5.8ZM32 60.3857L30.3048 57.6641C30.2858 57.6336 30.2655 57.604 30.244 57.5752C29.2317 56.225 28.2875 54.8129 27.4275 53.3675L31.8854 48.6533L36.5826 53.3505C35.7169 54.8064 34.7694 56.2244 33.7562 57.575C33.695 57.6566 33.7819 57.528 32 60.3857ZM34.2513 61.5L35.7889 59.0315C37.0423 57.3565 38.2015 55.5847 39.2344 53.765C39.2406 53.754 39.2465 53.7428 39.2528 53.7318C39.2535 53.7304 39.2543 53.7291 39.255 53.7277C40.6369 51.2902 41.8186 48.7219 42.7755 46.0761L48.0371 47.8296C53.5835 49.6791 57.7046 55.3076 58.2 61.5H34.2513Z" fill="#15214B"/>
<path d="M54.4432 56.4413C53.6079 54.7692 52.3842 53.2837 50.9046 52.1454C50.3574 51.7243 49.5726 51.8267 49.1517 52.3739C48.7307 52.9212 48.8331 53.7059 49.3802 54.1269C50.562 55.0361 51.5392 56.2227 52.2066 57.5586C52.5157 58.1772 53.267 58.4262 53.8835 58.1182C54.501 57.8097 54.7516 57.0589 54.4432 56.4413Z" fill="#15214B"/>
</svg>
