<svg width="85" height="22" viewBox="0 0 85 22" fill="none" xmlns="http://www.w3.org/2000/svg">
<path d="M83.1826 9.45215C83.1826 4.69332 79.8668 1.34659 75.2185 1.34659C69.3013 1.34659 65.3357 5.64562 65.3357 11.7847C65.3357 16.5753 68.6833 19.8903 73.4103 19.8903C77.7093 19.8903 80.9137 17.8124 82.2303 14.4966H77.4555C76.8207 15.5284 75.4722 16.1783 73.8232 16.1783C71.2846 16.1783 69.6984 14.4966 69.5551 12.1172H82.9129C83.0871 11.2135 83.1826 10.4363 83.1826 9.45215ZM69.9203 8.89686C70.3482 6.70844 72.4748 4.96301 75.0443 4.96301C77.2654 4.96301 78.9463 6.58111 78.9463 8.89775H69.9203V8.89686ZM52.5022 19.4614L53.359 14.8936C55.9763 15.417 56.3733 13.9413 57.055 10.3885L57.3884 8.62718C58.3398 3.66234 60.2594 1.18743 65.7486 1.85412L64.8909 6.42284C62.2736 5.89939 61.8138 7.88179 61.2276 10.9588L60.8943 12.7202C59.942 17.7487 57.9587 20.1281 52.5031 19.4623L52.5022 19.4614ZM46.0935 19.4782L49.3297 1.77455H53.5969L50.3766 19.4782H46.0935ZM21.6477 1.77455H25.7885L27.1369 14.5761L32.5624 1.77455H36.6704L38.1152 14.7035L43.3498 1.77455H47.4746L39.9712 19.4782H35.276L33.7517 7.29467L28.5658 19.4791H24.0289L21.6477 1.77455Z" fill="black"/>
<path d="M6.18126 6.46969L1.26416 11.1649H9.62349L10.4962 9.11967H6.26083L8.90993 6.46969L7.3714 3.8206H14.5574L7.9258 19.4782H10.4166L17.92 1.77454H3.42163L6.18126 6.46969Z" fill="#00B9FF"/>
</svg>
