<svg class="Logo_logo_Desktop__e16It" height="65px" version="1.1" viewBox="0 0 48 65" width="48px" xmlns:xlink="http://www.w3.org/1999/xlink" xmlns="http://www.w3.org/2000/svg"><title>Nium Global Platform for Modern Money Movement Logo</title><g fill="none" fill-rule="evenodd" id="Page" stroke="none" stroke-width="1"><g id="Homepage_redesign" transform="translate(-183.000000, -13.000000)"><g id="Nav" transform="translate(-1247.000000, 0.028868)"><g id="Logo" transform="translate(1420.000000, 5.000000)"><g id="Group" transform="translate(10.500000, 7.971132)"><g id="Group-4" transform="translate(0.000000, -0.000235)"><path d="M35.084494,0 L35.084494,36.4156627 L20.3616024,0 L15.8186506,0 L35.084494,47.4586145 L39.3917229,47.4586145 L39.3917229,4.15060241 L42.6808795,4.15060241 L42.6808795,36.5722892 L46.9881084,39.7056024 L46.9881084,0 L35.084494,0 Z M7.59654217,0 L7.59654217,43.308012 L4.30738554,43.308012 L4.30738554,10.8855422 L0.000156626506,7.75379518 L0.000156626506,47.4586145 L11.902988,47.4586145 L11.902988,11.1987952 L26.6266627,47.4586145 L31.1688313,47.4586145 L11.902988,0 L7.59654217,0 Z" fill="#24BAD6" id="Fill-1"></path><path d="M14.6445783,64.2954157 L16.9939759,64.2954157 L16.9939759,52.5484277 L14.6445783,52.5484277 L14.6445783,64.2954157 Z M21.1445783,59.8315602 C21.1445783,62.8857771 23.0240964,64.6086687 26.0783133,64.6086687 C28.9759036,64.6086687 31.0903614,62.8857771 31.0903614,59.8315602 L31.0903614,52.5484277 L28.7409639,52.5484277 L28.7409639,59.8315602 C28.7409639,61.2411988 28.0361446,62.4942108 26.0783133,62.4942108 C24.1204819,62.4942108 23.4939759,61.0845723 23.4939759,59.6749337 L23.4939759,52.5484277 L21.1445783,52.5484277 L21.1445783,59.8315602 Z M0,52.5484277 L0,64.2954157 L2.27108434,64.2954157 L2.27108434,56.3074639 L7.75301205,64.2954157 L10.1024096,64.2954157 L10.1024096,52.5484277 L7.90963855,52.5484277 L7.90963855,60.379753 L7.8313253,60.379753 L2.42771084,52.5484277 L0,52.5484277 Z M35.2409639,52.5484277 L35.2409639,64.2954157 L37.3554217,64.2954157 L37.3554217,56.2291506 L37.4337349,56.2291506 L40.9578313,62.1026446 L41.1927711,62.1026446 L44.7951807,56.2291506 L44.873494,56.2291506 L44.873494,64.2954157 L46.9879518,64.2954157 L46.9879518,52.5484277 L44.560241,52.5484277 L41.2710843,58.4219217 L41.1927711,58.4219217 L37.746988,52.5484277 L35.2409639,52.5484277 Z" fill="#FFFFFF" id="Fill-2"></path></g></g></g></g></g></g></svg>