<svg width="145" height="53" viewBox="0 0 145 53" fill="none" xmlns="http://www.w3.org/2000/svg">
<path d="M62.3713 2.28373H70.8637C71.7938 2.28373 72.6632 2.43538 73.472 2.73868C74.2808 3.02176 74.9784 3.42616 75.5648 3.95188C76.1714 4.45738 76.6466 5.05387 76.9903 5.74135C77.334 6.42883 77.5059 7.16686 77.5059 7.95544C77.5059 9.10798 77.2228 10.0785 76.6567 10.8671C76.1107 11.6355 75.4233 12.2219 74.5942 12.6263V12.8689C75.7063 13.2733 76.596 13.9102 77.2633 14.7797C77.9508 15.6289 78.2945 16.6905 78.2945 17.9643C78.2945 18.8945 78.1024 19.7336 77.7182 20.4817C77.3543 21.2096 76.8488 21.8365 76.2017 22.3622C75.5547 22.8879 74.7964 23.2923 73.927 23.5754C73.0777 23.8585 72.1577 24 71.167 24H62.3713V2.28373ZM70.5604 11.1401C71.5107 11.1401 72.2386 10.8873 72.7441 10.3818C73.2698 9.85612 73.5327 9.23941 73.5327 8.53171C73.5327 7.82401 73.2799 7.21741 72.7744 6.71191C72.2689 6.20641 71.5714 5.95366 70.6817 5.95366H66.4658V11.1401H70.5604ZM71.0153 20.2391C72.0465 20.2391 72.8351 19.9863 73.381 19.4808C73.927 18.9551 74.2 18.2879 74.2 17.4791C74.2 16.6703 73.9169 16.003 73.3507 15.4773C72.8048 14.9313 71.9859 14.6584 70.894 14.6584H66.4658V20.2391H71.0153ZM80.0508 24V2.28373H84.024V24H80.0508ZM93.4045 8.65303C94.5571 8.65303 95.6085 8.85523 96.5588 9.25963C97.5294 9.64381 98.3584 10.1897 99.0459 10.8974C99.7536 11.5849 100.3 12.4139 100.684 13.3845C101.088 14.3551 101.29 15.4166 101.29 16.5692C101.29 17.7217 101.088 18.7832 100.684 19.7538C100.3 20.7244 99.7536 21.5635 99.0459 22.2712C98.3584 22.9587 97.5294 23.5046 96.5588 23.909C95.6085 24.2932 94.5571 24.4853 93.4045 24.4853C92.252 24.4853 91.1904 24.2932 90.2199 23.909C89.2695 23.5046 88.4405 22.9587 87.7328 22.2712C87.0453 21.5635 86.4994 20.7244 86.095 19.7538C85.7108 18.7832 85.5187 17.7217 85.5187 16.5692C85.5187 15.4166 85.7108 14.3551 86.095 13.3845C86.4994 12.4139 87.0453 11.5849 87.7328 10.8974C88.4405 10.1897 89.2695 9.64381 90.2199 9.25963C91.1904 8.85523 92.252 8.65303 93.4045 8.65303ZM93.4045 20.8154C93.91 20.8154 94.3953 20.7244 94.8604 20.5424C95.3456 20.3402 95.7703 20.0571 96.1342 19.6931C96.4982 19.3292 96.7813 18.8843 96.9835 18.3586C97.2059 17.8329 97.3171 17.2364 97.3171 16.5692C97.3171 15.9019 97.2059 15.3054 96.9835 14.7797C96.7813 14.254 96.4982 13.8091 96.1342 13.4452C95.7703 13.0812 95.3456 12.8082 94.8604 12.6263C94.3953 12.4241 93.91 12.323 93.4045 12.323C92.8788 12.323 92.3834 12.4241 91.9183 12.6263C91.4533 12.8082 91.0388 13.0812 90.6748 13.4452C90.3109 13.8091 90.0177 14.254 89.7952 14.7797C89.593 15.3054 89.4919 15.9019 89.4919 16.5692C89.4919 17.2364 89.593 17.8329 89.7952 18.3586C90.0177 18.8843 90.3109 19.3292 90.6748 19.6931C91.0388 20.0571 91.4533 20.3402 91.9183 20.5424C92.3834 20.7244 92.8788 20.8154 93.4045 20.8154ZM117.037 20.2088C116.39 21.4624 115.48 22.4936 114.307 23.3024C113.155 24.091 111.709 24.4853 109.97 24.4853C108.817 24.4853 107.756 24.2932 106.785 23.909C105.835 23.5046 105.006 22.9486 104.298 22.2409C103.611 21.5332 103.065 20.7041 102.66 19.7538C102.276 18.7832 102.084 17.7217 102.084 16.5692C102.084 15.4166 102.276 14.3551 102.66 13.3845C103.065 12.4139 103.611 11.5849 104.298 10.8974C105.006 10.1897 105.835 9.64381 106.785 9.25963C107.756 8.85523 108.817 8.65303 109.97 8.65303C111.689 8.65303 113.134 9.04732 114.307 9.8359C115.48 10.6245 116.339 11.6456 116.885 12.8992L113.246 14.4157C112.902 13.7282 112.457 13.2126 111.911 12.8689C111.385 12.5049 110.718 12.323 109.909 12.323C109.384 12.323 108.888 12.4241 108.423 12.6263C107.958 12.8285 107.543 13.1115 107.18 13.4755C106.836 13.8395 106.563 14.2843 106.361 14.81C106.158 15.3357 106.057 15.9221 106.057 16.5692C106.057 17.2162 106.158 17.8026 106.361 18.3283C106.563 18.854 106.836 19.2989 107.18 19.6628C107.543 20.0268 107.958 20.3099 108.423 20.5121C108.888 20.7143 109.384 20.8154 109.909 20.8154C110.738 20.8154 111.436 20.6334 112.002 20.2694C112.588 19.8852 113.053 19.3393 113.397 18.6316L117.037 20.2088ZM118.551 2.28373H122.524V14.1124H122.706L127.68 9.13831H132.594V9.38095L127.074 14.7494L133.049 23.7574V24H128.347L124.283 17.4791L122.524 19.2079V24H118.551V2.28373ZM72.6531 50.4853C71.0355 50.4853 69.5291 50.1921 68.134 49.6057C66.759 49.0193 65.566 48.2206 64.555 47.2096C63.544 46.1784 62.7453 44.9753 62.1589 43.6004C61.5928 42.2052 61.3097 40.719 61.3097 39.1419C61.3097 37.5647 61.5928 36.0886 62.1589 34.7137C62.7453 33.3185 63.544 32.1154 64.555 31.1044C65.566 30.0732 66.759 29.2644 68.134 28.678C69.5291 28.0916 71.0355 27.7985 72.6531 27.7985C74.2707 27.7985 75.767 28.0916 77.142 28.678C78.5371 29.2644 79.7402 30.0732 80.7512 31.1044C81.7622 32.1154 82.5508 33.3185 83.117 34.7137C83.7033 36.0886 83.9965 37.5647 83.9965 39.1419C83.9965 40.719 83.7033 42.2052 83.117 43.6004C82.5508 44.9753 81.7622 46.1784 80.7512 47.2096C79.7402 48.2206 78.5371 49.0193 77.142 49.6057C75.767 50.1921 74.2707 50.4853 72.6531 50.4853ZM72.6531 46.603C73.6641 46.603 74.6044 46.4211 75.4738 46.0571C76.3635 45.6931 77.1318 45.1876 77.7789 44.5406C78.4461 43.8936 78.9618 43.1151 79.3257 42.2052C79.7099 41.2751 79.902 40.254 79.902 39.1419C79.902 38.0298 79.7099 37.0188 79.3257 36.1089C78.9618 35.1787 78.4461 34.3902 77.7789 33.7431C77.1318 33.0961 76.3635 32.5906 75.4738 32.2266C74.6044 31.8627 73.6641 31.6807 72.6531 31.6807C71.6421 31.6807 70.6918 31.8627 69.8021 32.2266C68.9326 32.5906 68.1643 33.0961 67.497 33.7431C66.85 34.3902 66.3344 35.1787 65.9502 36.1089C65.5862 37.0188 65.4043 38.0298 65.4043 39.1419C65.4043 40.254 65.5862 41.2751 65.9502 42.2052C66.3344 43.1151 66.85 43.8936 67.497 44.5406C68.1643 45.1876 68.9326 45.6931 69.8021 46.0571C70.6918 46.4211 71.6421 46.603 72.6531 46.603ZM101.171 50H97.1981V38.5353H91.5871V50H87.6139V38.5353H84.9448V35.1383H87.6139V33.6825C87.6139 32.7726 87.7453 31.9739 88.0081 31.2864C88.2912 30.5787 88.6855 29.9923 89.191 29.5273C89.6965 29.042 90.293 28.678 90.9805 28.4354C91.668 28.1725 92.4262 28.0411 93.2552 28.0411C93.6596 28.0411 93.9832 28.0613 94.2258 28.1018C94.4684 28.1422 94.701 28.2029 94.9234 28.2837L94.6807 32.0143C94.5392 31.9537 94.3774 31.9031 94.1955 31.8627C94.0135 31.8222 93.781 31.802 93.4979 31.802C92.9115 31.802 92.4464 31.9941 92.1027 32.3783C91.759 32.7625 91.5871 33.2882 91.5871 33.9554V35.1383H97.1981V33.6825C97.1981 32.7726 97.3296 31.9739 97.5924 31.2864C97.8755 30.5787 98.2698 29.9923 98.7753 29.5273C99.2808 29.042 99.8773 28.678 100.565 28.4354C101.252 28.1725 102.01 28.0411 102.84 28.0411C103.244 28.0411 103.567 28.0613 103.81 28.1018C104.053 28.1422 104.285 28.2029 104.508 28.2837L104.265 32.0143C104.123 31.9537 103.962 31.9031 103.78 31.8627C103.598 31.8222 103.365 31.802 103.082 31.802C102.496 31.802 102.031 31.9941 101.687 32.3783C101.343 32.7625 101.171 33.2882 101.171 33.9554V35.1383H110.756V50H106.782V38.5353H101.171V50ZM108.754 32.9849C108.41 32.9849 108.076 32.9242 107.753 32.8029C107.45 32.6614 107.177 32.4794 106.934 32.257C106.712 32.0143 106.53 31.7414 106.388 31.4381C106.267 31.1348 106.206 30.8011 106.206 30.4372C106.206 30.0732 106.267 29.7396 106.388 29.4363C106.53 29.133 106.712 28.8701 106.934 28.6477C107.177 28.4051 107.45 28.2231 107.753 28.1018C108.076 27.9602 108.41 27.8894 108.754 27.8894C109.462 27.8894 110.068 28.1422 110.574 28.6477C111.079 29.133 111.332 29.7295 111.332 30.4372C111.332 31.1449 111.079 31.7515 110.574 32.257C110.068 32.7422 109.462 32.9849 108.754 32.9849ZM127.454 46.2088C126.807 47.4624 125.897 48.4936 124.725 49.3024C123.572 50.091 122.126 50.4853 120.388 50.4853C119.235 50.4853 118.173 50.2932 117.203 49.909C116.253 49.5046 115.424 48.9486 114.716 48.2409C114.028 47.5332 113.482 46.7041 113.078 45.7538C112.694 44.7832 112.502 43.7217 112.502 42.5692C112.502 41.4166 112.694 40.3551 113.078 39.3845C113.482 38.4139 114.028 37.5849 114.716 36.8974C115.424 36.1897 116.253 35.6438 117.203 35.2596C118.173 34.8552 119.235 34.653 120.388 34.653C122.106 34.653 123.552 35.0473 124.725 35.8359C125.897 36.6245 126.757 37.6456 127.303 38.8992L123.663 40.4157C123.319 39.7282 122.875 39.2126 122.329 38.8689C121.803 38.5049 121.136 38.323 120.327 38.323C119.801 38.323 119.306 38.4241 118.841 38.6263C118.376 38.8285 117.961 39.1115 117.597 39.4755C117.253 39.8395 116.98 40.2843 116.778 40.81C116.576 41.3357 116.475 41.9221 116.475 42.5692C116.475 43.2162 116.576 43.8026 116.778 44.3283C116.98 44.854 117.253 45.2989 117.597 45.6628C117.961 46.0268 118.376 46.3099 118.841 46.5121C119.306 46.7143 119.801 46.8154 120.327 46.8154C121.156 46.8154 121.853 46.6334 122.42 46.2694C123.006 45.8852 123.471 45.3393 123.815 44.6316L127.454 46.2088ZM142.894 46.4211C142.206 47.6343 141.276 48.6149 140.103 49.3631C138.951 50.1112 137.535 50.4853 135.857 50.4853C134.725 50.4853 133.673 50.2932 132.703 49.909C131.752 49.5046 130.923 48.9486 130.216 48.2409C129.508 47.5332 128.952 46.7041 128.547 45.7538C128.163 44.7832 127.971 43.7217 127.971 42.5692C127.971 41.4975 128.163 40.4865 128.547 39.5362C128.932 38.5656 129.467 37.7265 130.155 37.0188C130.842 36.2908 131.651 35.7146 132.581 35.29C133.532 34.8653 134.573 34.653 135.705 34.653C136.898 34.653 137.96 34.8552 138.89 35.2596C139.82 35.6438 140.599 36.1897 141.225 36.8974C141.852 37.5849 142.327 38.4038 142.651 39.3542C142.974 40.3045 143.136 41.3357 143.136 42.4478C143.136 42.5894 143.136 42.7107 143.136 42.8118C143.116 42.9331 143.106 43.0443 143.106 43.1454C143.086 43.2465 143.076 43.3577 143.076 43.4791H131.884C131.965 44.0857 132.126 44.6114 132.369 45.0562C132.632 45.4808 132.945 45.8448 133.309 46.1481C133.693 46.4312 134.108 46.6435 134.553 46.785C134.998 46.9063 135.453 46.967 135.918 46.967C136.828 46.967 137.576 46.7648 138.162 46.3604C138.769 45.9358 139.244 45.4101 139.588 44.7832L142.894 46.4211ZM139.284 40.6584C139.264 40.3955 139.173 40.1023 139.011 39.7788C138.87 39.4553 138.647 39.152 138.344 38.8689C138.061 38.5858 137.697 38.3533 137.252 38.1713C136.828 37.9893 136.312 37.8983 135.705 37.8983C134.856 37.8983 134.108 38.141 133.461 38.6263C132.814 39.1115 132.359 39.7889 132.096 40.6584H139.284Z" fill="#15214B"/>
<rect y="2.25" width="33.75" height="33.75" fill="#00D1FF"/>
<rect x="16.875" y="19.125" width="33.75" height="33.75" rx="16.875" fill="#0000FF"/>
<rect x="16.875" y="19.125" width="16.875" height="16.875" fill="#00FFA3"/>
</svg>
