<svg width="257" height="452" viewBox="0 0 257 452" fill="none" xmlns="http://www.w3.org/2000/svg">
<path d="M1.70096 59.1616V94.6676L35.1955 114.001V75.9893L66.3911 57.9777V95.3228L99.3109 76.3227L131.081 94.6561V129.495C130.116 129.748 129.403 130.622 129.403 131.668C129.403 131.875 129.437 132.07 129.495 132.254L99.035 149.84L98.7476 150.001V188.668L131.656 169.668L164.001 188.346L196.346 169.68L228.116 188.025V224.703L195.197 243.703L228.116 262.703V300.715L261.324 281.543L261.611 281.382V244.703L291.209 261.795C291.163 261.979 291.117 262.175 291.117 262.382C291.117 263.427 291.829 264.301 292.795 264.554V336.738L260.737 355.244L260.45 355.405V394.072L293.657 374.9L293.944 374.739V337.394L325.715 319.049L356.91 337.06L325.427 355.233L325.14 355.394V394.061L358.347 374.888L358.635 374.727V300.704L388.232 317.796C388.187 317.98 388.141 318.175 388.141 318.382C388.141 319.428 388.853 320.301 389.819 320.554V356.06L421.555 374.394L390.359 392.405L389.784 392.072V392.739L389.21 393.072L389.784 393.405V430.751L420.532 448.498C420.486 448.682 420.44 448.877 420.44 449.084C420.44 450.325 421.451 451.337 422.693 451.337C423.934 451.337 424.945 450.325 424.945 449.084C424.945 448.038 424.233 447.164 423.267 446.912V412.072L456.187 393.072L423.842 374.405L455.325 356.233L455.612 356.072V318.727L456.187 318.393L455.612 318.06V280.715L423.865 262.382L455.359 244.197L455.647 244.036V205.37L422.44 224.542L422.152 224.703V261.393L422.129 261.381V299.393L391.968 316.807C391.692 316.531 391.336 316.324 390.945 316.221V280.715L359.175 262.382L390.646 244.197L390.934 244.036V206.68L421.072 189.277C421.486 189.691 422.049 189.944 422.67 189.944C423.911 189.944 424.922 188.933 424.922 187.691C424.922 186.645 424.21 185.772 423.244 185.519V113.38L455.359 94.8401L455.647 94.6791V56.0121L455.601 56.0466V19.3337L423.256 0.666962V0.000274658L422.681 0.333588L422.106 0.000274658V0.666962L390.049 19.1728L389.761 19.3337V58.0007L421.072 39.9201C421.486 40.3339 422.049 40.5867 422.67 40.5867C423.302 40.5867 423.865 40.3339 424.267 39.9201L453.888 57.0237L423.244 74.7134V74.679L390.324 93.6791L357.405 74.679V112.702L325.381 131.197L325.094 131.358V166.864C324.129 167.116 323.416 167.99 323.416 169.036C323.416 170.277 324.427 171.289 325.669 171.289C326.91 171.289 327.922 170.277 327.922 169.036C327.922 168.829 327.887 168.634 327.83 168.45L358.29 150.863L358.577 150.703V114.036L389.738 132.024V206.059L358.002 224.381L325.083 205.381V243.381L294.921 260.795C294.646 260.519 294.289 260.313 293.898 260.209V224.703L263.151 206.956C263.197 206.772 263.243 206.576 263.243 206.37C263.243 206.163 263.209 205.967 263.151 205.783L293.611 188.197L293.898 188.036V113.392L323.876 96.0814C324.29 96.6561 324.956 97.0354 325.715 97.0354C326.956 97.0354 327.968 96.024 327.968 94.7826C327.968 93.7366 327.255 92.8631 326.29 92.6102V56.0236L293.944 74.6905V38.012L260.45 18.6786V57.3455L292.186 75.6675L260.979 93.6906L230.806 76.2766C230.852 76.0927 230.898 75.8974 230.898 75.6905C230.898 74.4491 229.886 73.4376 228.645 73.4376C227.404 73.4376 226.392 74.4491 226.392 75.6905C226.392 76.7365 227.105 77.61 228.07 77.8629V150.036L196.3 168.381L165.104 150.369L196.587 132.197L196.875 132.036V94.6906L197.449 94.3573L196.875 94.024V57.3455L228.932 38.8395L229.22 38.6786V0.0117493L196.013 19.1843L195.725 19.3452V56.0236L164.53 38.012V37.3453L163.955 37.6786L131.035 18.6786V54.8398C130.644 54.9432 130.288 55.15 130.012 55.4259L99.8511 38.012V0.0117493L67.506 18.6786V18.667L34.2989 37.8396L34.0115 38.0005V74.679L4.41364 57.5868C4.45959 57.4029 4.50558 57.2076 4.50558 57.0006C4.50558 55.7592 3.49408 54.7477 2.25269 54.7477C1.01129 54.7477 -0.000213623 55.7592 -0.000213623 57.0006C0.0227966 58.0351 0.735413 58.9087 1.70096 59.1616ZM357.451 374.072L326.255 392.084V356.072L357.451 338.06V374.072ZM423.302 225.358L454.497 207.347V243.358L423.302 261.37V225.358ZM390.911 56.0006V19.9889L422.106 1.97729V36.15C421.141 36.4028 420.428 37.2763 420.428 38.3223C420.428 38.5292 420.463 38.7247 420.52 38.9086L390.911 56.0006ZM423.256 36.15V1.97729L454.44 19.9889V56.0006L424.842 38.9086C424.888 38.7247 424.934 38.5292 424.934 38.3223C424.934 37.2763 424.221 36.4143 423.256 36.15ZM67.529 57.334L98.7247 39.3224V75.3341L67.529 93.3458V57.334ZM132.219 59.1616C132.61 59.0581 132.966 58.8628 133.242 58.5754L162.829 75.656L132.208 93.3343V59.1616H132.219ZM163.403 113.334V149.346L133.805 132.254C133.851 132.07 133.897 131.875 133.897 131.668C133.897 130.622 133.185 129.748 132.219 129.495V95.3228L163.403 113.334ZM132.219 133.852C132.61 133.748 132.966 133.541 133.242 133.266L162.829 150.346L132.208 168.024V133.852H132.219ZM163.978 112.334L132.782 94.3228L146.955 86.1388L163.978 76.3112L195.174 94.3228L181.001 102.507L163.978 112.334ZM163.403 74.6675L133.805 57.5753C133.851 57.3914 133.897 57.1961 133.897 56.9892C133.897 56.7823 133.863 56.5869 133.805 56.403L163.403 39.3109V74.6675ZM99.8741 150.68L130.035 133.266C130.311 133.541 130.667 133.748 131.058 133.852V168.691L99.8626 186.703V150.68H99.8741ZM260.427 208.531V242.703L229.231 224.692V188.68L258.829 205.772C258.783 205.956 258.737 206.151 258.737 206.358C258.749 207.404 259.461 208.278 260.427 208.531ZM260.427 204.186C260.036 204.289 259.68 204.496 259.404 204.772L229.818 187.691L260.427 170.013V204.186ZM228.657 225.692L259.852 243.703L244.553 252.531L228.657 261.703L197.461 243.692L228.657 225.692ZM260.427 280.715L229.231 298.727V262.715L260.427 244.703V280.715ZM292.772 374.072L261.576 392.084V356.072L292.772 338.06V374.072ZM293.921 300.048L304.128 294.152L325.117 282.037V318.049L293.921 336.06V300.048ZM326.255 244.703L341.853 253.703L357.451 262.703V298.715L341.853 289.715L326.255 280.715V244.703ZM357.451 336.06L326.255 318.049V282.037L341.853 291.037L357.451 300.037V336.06ZM390.934 320.554C391.324 320.451 391.681 320.255 391.957 319.968L422.118 337.382V373.394L390.922 355.382V320.554H390.934ZM390.934 430.084V394.072L422.129 412.084V446.923C421.738 447.027 421.382 447.222 421.106 447.509L390.934 430.084ZM422.704 411.084L391.508 393.072L422.129 375.394L422.704 375.061L423.279 375.394L453.9 393.072L422.704 411.084ZM454.474 355.394L423.279 373.405V337.394L454.474 319.382V355.394ZM454.474 317.393L423.279 299.382V263.37L454.474 281.382V317.393ZM422.704 300.37L453.9 318.382L439.727 326.566L422.704 336.394L392.531 318.98C392.577 318.796 392.623 318.6 392.623 318.393C392.623 318.186 392.589 317.991 392.531 317.807L422.704 300.37ZM389.784 316.209C389.393 316.313 389.037 316.508 388.761 316.796L358.6 299.382V263.37L389.796 281.382V316.209H389.784ZM389.784 243.37L358.589 261.381V225.37L389.784 207.358V243.37ZM422.106 185.519C421.141 185.772 420.428 186.645 420.428 187.691C420.428 187.898 420.463 188.094 420.52 188.277L390.922 205.37V169.358L422.118 151.346V185.519H422.106ZM390.911 132.001L422.106 113.99V150.001L390.911 168.013V132.001ZM423.302 76.0009L454.497 57.9892V94.0009L423.302 112.013V76.0009ZM422.106 112.668L390.911 130.679V94.6676L422.106 76.656V112.668ZM357.451 150.013L327.29 167.427C327.014 167.151 326.657 166.944 326.267 166.841V132.001L357.462 113.99V150.013H357.451ZM358.577 112.024V76.656L389.773 94.6676V130.679L358.612 112.691V112.013L358.577 112.024ZM326.255 207.358L357.451 225.37V261.381L341.853 252.381L326.255 243.381V207.358ZM325.106 244.692V280.715L307.278 291.002L293.91 298.715V264.542C294.875 264.29 295.588 263.416 295.588 262.37C295.588 262.163 295.554 261.968 295.496 261.784L325.106 244.692ZM292.772 225.358V260.198C292.381 260.301 292.025 260.496 291.749 260.784L261.588 243.37V208.531C261.979 208.427 262.335 208.232 262.611 207.944L292.772 225.358ZM292.772 187.358L262.611 204.772C262.335 204.496 261.979 204.289 261.588 204.186V169.346L262.163 169.013L292.784 151.335V187.358H292.772ZM292.772 112.668L261.576 130.679V94.6676L292.772 76.656V112.668ZM261.576 132.001L292.772 113.99V150.001L261.576 168.013V132.001ZM325.163 57.9892V92.5757C324.198 92.8286 323.485 93.7021 323.485 94.7481C323.485 94.8171 323.496 94.886 323.508 94.955L293.979 112.001V75.9893L325.163 57.9892ZM261.622 20.6555L292.818 38.6672V74.679L261.622 56.6673V20.6555ZM229.231 77.8399C229.622 77.7365 229.978 77.5411 230.254 77.2537L260.415 94.6676V130.679L229.22 112.668V77.8399H229.231ZM260.427 132.001V168.013L229.231 150.001V113.99L260.427 132.001ZM228.657 151.013L259.852 169.024L228.668 187.036L228.093 186.703L197.472 169.024L228.657 151.013ZM163.978 187.025L132.782 169.013L163.403 151.335L163.978 151.001L164.553 151.335L195.174 169.013L163.978 187.025ZM195.748 131.346L164.553 149.358V113.346L195.748 95.3343V131.346ZM196.898 19.9774L228.093 1.96579V37.9775L196.898 55.9892V19.9774ZM195.748 57.3225V93.3343L164.553 75.3226V39.3109L195.748 57.3225ZM162.829 38.3109L133.242 55.3914C132.966 55.1156 132.61 54.9087 132.219 54.8053V20.6326L162.829 38.3109ZM131.07 59.1616V93.3343L99.8741 75.3226V39.3109L129.472 56.403C129.426 56.5869 129.38 56.7823 129.38 56.9892C129.38 58.0352 130.104 58.9087 131.07 59.1616ZM98.7247 1.97729V37.9775L67.529 55.9892V19.9774L98.7247 1.97729ZM35.1955 38.6442L66.3911 20.6326V56.6443L35.1955 74.656V38.6442ZM34.046 75.9893V112.001L2.85037 93.9894V59.1501C3.24118 59.0467 3.59753 58.8513 3.87338 58.5639L34.046 75.9893Z" fill="#3B4464"/>
</svg>
