<svg width="1440" height="964" viewBox="0 0 1440 964" fill="none" xmlns="http://www.w3.org/2000/svg" style="background-color:#FFFFFF">
<path d="M747.517 866.138V807.739L692.427 775.94V838.46L641.117 868.085V806.661L586.973 837.912L534.718 807.758V750.456C536.306 750.04 537.478 748.603 537.478 746.883C537.478 746.542 537.422 746.221 537.327 745.919L587.426 716.993L587.899 716.729V653.131L533.773 684.382L480.573 653.661L427.374 684.363L375.12 654.19V593.863L429.264 562.612L375.12 531.362V468.842L320.502 500.376L320.029 500.641V560.968L271.348 532.855C271.424 532.553 271.499 532.232 271.499 531.891C271.499 530.171 270.327 528.734 268.739 528.318V409.593L321.466 379.155L321.939 378.89V315.293L267.321 346.827L266.849 347.092V408.515L214.594 438.688L163.285 409.063L215.067 379.174L215.54 378.909V315.312L160.922 346.846L160.45 347.111V468.861L111.768 440.749C111.844 440.446 111.92 440.125 111.92 439.785C111.92 438.064 110.747 436.627 109.159 436.211V377.813L56.9618 347.659L108.271 318.034L109.216 318.582V317.486L110.161 316.938L109.216 316.389V254.966L58.6443 225.776C58.72 225.474 58.7956 225.152 58.7956 224.812C58.7956 222.77 57.1319 221.107 55.0901 221.107C53.0484 221.107 51.3847 222.77 51.3847 224.812C51.3847 226.532 52.5568 227.969 54.1449 228.385V285.687L0 316.938L53.1996 347.64L1.4179 377.529L0.945266 377.794V439.217L0 439.766L0.945266 440.314V501.737L53.1618 531.891L1.36118 561.8L0.888551 562.064V625.662L55.506 594.128L55.9787 593.863V533.517L56.0165 533.536V471.016L105.624 442.375C106.078 442.828 106.664 443.169 107.307 443.339V501.737L159.561 531.891L107.798 561.8L107.326 562.064V623.507L57.7558 652.129C57.0752 651.449 56.1488 651.033 55.1279 651.033C53.0862 651.033 51.4225 652.696 51.4225 654.738C51.4225 656.459 52.5946 657.895 54.1827 658.311V776.961L1.36118 807.455L0.888551 807.72V871.318L0.964172 871.261V931.645L54.1638 962.347V963.443L55.109 962.895L56.0543 963.443V962.347L108.781 931.909L109.254 931.645V868.047L57.7558 897.785C57.0752 897.104 56.1488 896.689 55.1279 896.689C54.0881 896.689 53.1618 897.104 52.5001 897.785L3.78107 869.654L54.1827 840.559V840.615L108.328 809.365L162.472 840.615V778.077L215.143 747.658L215.615 747.393V688.995C217.203 688.579 218.375 687.142 218.375 685.422C218.375 683.38 216.712 681.716 214.67 681.716C212.628 681.716 210.965 683.38 210.965 685.422C210.965 685.762 211.021 686.083 211.116 686.386L161.017 715.311L160.544 715.576V775.883L109.292 746.297V624.527L161.489 594.392L215.634 625.643V563.142L265.242 534.5C265.695 534.954 266.282 535.294 266.924 535.464V593.863L317.496 623.053C317.42 623.355 317.345 623.677 317.345 624.017C317.345 624.357 317.402 624.679 317.496 624.981L267.397 653.906L266.924 654.171V776.942L217.619 805.414C216.939 804.468 215.842 803.844 214.594 803.844C212.553 803.844 210.889 805.508 210.889 807.55C210.889 809.27 212.061 810.707 213.649 811.123V871.299L266.849 840.596V900.923L321.939 932.722V869.125L269.741 838.989L321.069 809.346L370.696 837.988C370.62 838.29 370.544 838.611 370.544 838.952C370.544 840.993 372.208 842.657 374.25 842.657C376.292 842.657 377.955 840.993 377.955 838.952C377.955 837.231 376.783 835.794 375.195 835.379V716.672L427.449 686.499L478.759 716.124L426.977 746.013L426.504 746.278V807.701L425.559 808.249L426.504 808.798V869.125L373.777 899.562L373.305 899.827V963.424L427.922 931.89L428.395 931.626V871.299L479.704 900.923V902.02L480.649 901.472L534.794 932.722V873.246C535.437 873.076 536.023 872.736 536.477 872.282L586.084 900.923V963.424L639.284 932.722V932.741L693.901 901.207L694.374 900.942V840.615L743.055 868.728C742.979 869.03 742.904 869.351 742.904 869.692C742.904 871.734 744.567 873.397 746.609 873.397C748.651 873.397 750.315 871.734 750.315 869.692C750.277 867.99 749.105 866.553 747.517 866.138ZM162.397 348.188L213.706 318.564V377.794L162.397 407.419V348.188ZM54.0881 592.785L2.77908 622.41V563.18L54.0881 533.555V592.785ZM107.363 871.337V930.567L56.0543 960.192V903.986C57.6423 903.57 58.8145 902.133 58.8145 900.413C58.8145 900.073 58.7578 899.751 58.6632 899.449L107.363 871.337ZM54.1638 903.986V960.192L2.87361 930.567V871.337L51.5548 899.449C51.4792 899.751 51.4036 900.073 51.4036 900.413C51.4036 902.133 52.5757 903.551 54.1638 903.986ZM639.246 869.143L587.937 898.768V839.538L639.246 809.913V869.143ZM532.847 866.138C532.204 866.308 531.618 866.629 531.164 867.102L482.502 839.008L532.866 809.932V866.138H532.847ZM481.557 777.037V717.806L530.238 745.919C530.162 746.221 530.086 746.542 530.086 746.883C530.086 748.603 531.259 750.04 532.847 750.456V806.661L481.557 777.037ZM532.847 743.291C532.204 743.461 531.618 743.801 531.164 744.255L482.502 716.162L532.866 687.085V743.291H532.847ZM480.611 778.682L531.92 808.306L508.61 821.767L480.611 837.931L429.302 808.306L452.612 794.846L480.611 778.682ZM481.557 840.634L530.238 868.747C530.162 869.049 530.086 869.37 530.086 869.711C530.086 870.051 530.143 870.372 530.238 870.675L481.557 898.787V840.634ZM586.046 715.613L536.439 744.255C535.985 743.801 535.399 743.461 534.756 743.291V685.989L586.065 656.364V715.613H586.046ZM321.977 620.463V564.257L373.286 593.882V653.112L324.604 625C324.68 624.698 324.756 624.376 324.756 624.036C324.737 622.316 323.565 620.879 321.977 620.463ZM321.977 627.609C322.619 627.439 323.206 627.099 323.659 626.645L372.322 654.738L321.977 683.815V627.609ZM374.231 592.237L322.922 562.612L348.085 548.093L374.231 533.007L425.54 562.631L374.231 592.237ZM321.977 501.737L373.286 472.113V531.343L321.977 560.968V501.737ZM268.777 348.188L320.086 318.564V377.794L268.777 407.419V348.188ZM266.887 469.939L250.099 479.637L215.577 499.563V440.333L266.887 410.708V469.939ZM213.706 560.968L188.051 546.165L162.397 531.362V472.132L188.051 486.934L213.706 501.737V560.968ZM162.397 410.708L213.706 440.333V499.563L188.051 484.76L162.397 469.957V410.708ZM107.326 436.211C106.683 436.382 106.097 436.703 105.643 437.176L56.0354 408.534V349.304L107.344 378.928V436.211H107.326ZM107.326 256.063V315.293L56.0165 285.668V228.366C56.6593 228.196 57.2453 227.875 57.6991 227.402L107.326 256.063ZM55.0712 287.313L106.38 316.938L56.0165 346.014L55.0712 346.562L54.126 346.014L3.76216 316.938L55.0712 287.313ZM2.81689 378.909L54.126 349.285V408.515L2.81689 438.14V378.909ZM2.81689 441.41L54.126 471.035V530.265L2.81689 500.641V441.41ZM55.0712 469.409L3.76216 439.785L27.0724 426.324L55.0712 410.16L104.698 438.801C104.622 439.104 104.546 439.425 104.546 439.766C104.546 440.106 104.603 440.427 104.698 440.73L55.0712 469.409ZM109.216 443.358C109.859 443.188 110.445 442.866 110.899 442.393L160.506 471.035V530.265L109.197 500.641V443.358H109.216ZM109.216 563.161L160.525 533.536V592.766L109.216 622.391V563.161ZM56.0543 658.311C57.6423 657.895 58.8145 656.459 58.8145 654.738C58.8145 654.398 58.7578 654.076 58.6632 653.774L107.344 625.662V684.892L56.0354 714.517V658.311H56.0543ZM107.363 746.335L56.0543 775.959V716.729L107.363 687.104V746.335ZM54.0881 838.441L2.77908 868.066V808.836L54.0881 779.211V838.441ZM56.0543 778.133L107.363 748.509V807.739L56.0543 837.364V778.133ZM162.397 716.71L212.004 688.068C212.458 688.522 213.044 688.862 213.687 689.032V746.335L162.378 775.959V716.71H162.397ZM160.544 779.192V837.364L109.235 807.739V748.509L160.487 778.095V779.211L160.544 779.192ZM213.706 622.391L162.397 592.766V533.536L188.051 548.339L213.706 563.142V622.391ZM215.596 560.987V501.737L244.919 484.817L266.905 472.132V528.337C265.317 528.753 264.145 530.19 264.145 531.91C264.145 532.251 264.202 532.572 264.297 532.874L215.596 560.987ZM268.777 592.785V535.483C269.42 535.313 270.006 534.992 270.46 534.519L320.067 563.161V620.463C319.424 620.633 318.838 620.954 318.385 621.427L268.777 592.785ZM268.777 655.286L318.385 626.645C318.838 627.099 319.424 627.439 320.067 627.609V684.911L319.122 685.459L268.758 714.536V655.286H268.777ZM268.777 778.133L320.086 748.509V807.739L268.777 837.364V778.133ZM320.086 746.335L268.777 775.959V716.729L320.086 687.104V746.335ZM215.502 868.066V811.18C217.09 810.764 218.262 809.327 218.262 807.607C218.262 807.493 218.243 807.38 218.224 807.266L266.792 779.23V838.46L215.502 868.066ZM320.01 929.47L268.701 899.846V840.615L320.01 870.24V929.47ZM373.286 835.416C372.643 835.587 372.057 835.908 371.603 836.38L321.996 807.739V748.509L373.305 778.133V835.416H373.286ZM321.977 746.335V687.104L373.286 716.729V775.959L321.977 746.335ZM374.231 715.065L322.922 685.44L374.212 655.816L375.157 656.364L425.521 685.44L374.231 715.065ZM480.611 655.835L531.92 685.459L481.557 714.536L480.611 715.084L479.666 714.536L429.302 685.459L480.611 655.835ZM428.357 747.412L479.666 717.787V777.018L428.357 806.642V747.412ZM426.466 930.586L375.157 960.21V900.98L426.466 871.355V930.586ZM428.357 869.162V809.932L479.666 839.557V898.787L428.357 869.162ZM482.502 900.432L531.164 872.339C531.618 872.792 532.204 873.133 532.847 873.303V929.508L482.502 900.432ZM534.737 866.138V809.932L586.046 839.557V898.787L537.365 870.675C537.441 870.372 537.516 870.051 537.516 869.711C537.516 867.99 536.325 866.553 534.737 866.138ZM587.937 960.192V900.98L639.246 871.355V930.586L587.937 960.192ZM692.427 899.884L641.117 929.508V870.278L692.427 840.653V899.884ZM694.317 838.46V779.23L745.626 808.854V866.156C744.983 866.327 744.397 866.648 743.944 867.121L694.317 838.46ZM1440 481.49L1386.8 450.787L1438.58 420.898L1439.05 420.633V359.191L1440 358.643L1439.05 358.095V296.671L1386.84 266.517L1438.64 236.609L1439.11 236.344V172.747L1384.49 204.281L1384.02 204.546V264.891L1383.98 264.872V327.392L1334.38 356.034C1333.92 355.58 1333.34 355.24 1332.69 355.07V235.267L1279.49 204.564V143.141L1228.92 113.951C1229.02 113.63 1229.07 113.308 1229.07 112.968C1229.07 112.628 1229.02 112.306 1228.92 112.004L1279.02 83.0788L1279.49 82.8141V22.5061L1330.75 52.0929V176.017L1382.24 146.279C1382.92 146.96 1383.85 147.376 1384.87 147.376C1386.91 147.376 1388.58 145.712 1388.58 143.67C1388.58 141.95 1387.41 140.513 1385.82 140.097V21.4474L1438.62 -9.04692L1439.09 -9.3116V-72.9091L1385.82 -42.1502V-42.2069L1331.67 -10.9564L1277.55 -42.2069V20.332L1224.88 50.7506L1224.4 51.0153V109.414C1222.82 109.83 1221.64 111.267 1221.64 112.987C1221.64 114.707 1222.82 116.144 1224.4 116.56V174.959L1277.6 205.661V265.988L1226.29 295.613V235.286L1173.09 204.583V203.487L1172.15 204.035L1171.2 203.487V204.583L1118.48 234.983L1118 235.248V298.845L1169.5 269.107C1170.18 269.788 1171.11 270.204 1172.13 270.204C1173.15 270.204 1174.1 269.788 1174.76 269.107L1224.37 297.749V421.692L1278.51 390.442L1330.77 420.596L1383.02 450.768L1331.71 480.393L1330.77 479.845V480.941L1329.82 481.49L1330.77 482.038V543.461L1383.96 574.164V631.466C1382.38 631.882 1381.2 633.318 1381.2 635.039C1381.2 637.081 1382.87 638.744 1384.91 638.744C1386.95 638.744 1388.62 637.081 1388.62 635.039C1388.62 634.698 1388.56 634.377 1388.46 634.075L1438.56 605.149L1439.04 604.885V541.287L1385.84 571.99V512.759L1440 481.49ZM1385.89 205.642L1437.2 176.017V235.248L1385.89 264.872V205.642ZM1437.16 419.518L1385.86 449.143V389.912L1437.16 360.288V419.518ZM1437.16 356.998L1385.86 327.373V268.143L1437.16 297.768V356.998ZM1384.91 329.018L1436.22 358.643L1412.91 372.103L1384.91 388.268L1335.28 359.607C1335.36 359.305 1335.43 358.983 1335.43 358.643C1335.43 358.303 1335.38 357.981 1335.28 357.679L1384.91 329.018ZM1330.78 297.768V355.051C1330.14 355.221 1329.56 355.561 1329.1 356.015L1305.15 342.176L1279.49 327.373V268.143L1305.15 282.946L1330.78 297.768ZM1332.62 52.0929L1383.93 22.4683V81.6987L1332.62 111.323V52.0929ZM1332.62 172.747V113.516L1383.93 83.8917V140.097C1382.34 140.513 1381.17 141.95 1381.17 143.67C1381.17 144.011 1381.22 144.332 1381.32 144.635L1332.62 172.747ZM1385.89 -40.0139L1437.2 -69.6385V-10.4081L1385.89 19.2166V-40.0139ZM1383.93 20.2942L1332.62 49.9188V-9.3116L1383.93 -38.9362V20.2942ZM1279.44 -38.9362L1330.75 -9.3116V49.9188L1279.49 20.332V19.2166L1279.46 19.2354V-38.9362H1279.44ZM1277.58 22.4872V81.7176L1227.98 110.359C1227.52 109.905 1226.94 109.565 1226.29 109.395V52.0929L1277.58 22.4872ZM1226.28 173.843V116.541C1226.92 116.371 1227.5 116.05 1227.96 115.577L1277.58 144.238V203.468L1226.28 173.843ZM1330.78 236.363V295.594L1305.13 280.791L1279.47 265.988V206.757L1330.78 236.363ZM1119.89 295.575V236.344L1171.2 206.72V262.925C1169.62 263.341 1168.44 264.778 1168.44 266.498C1168.44 266.839 1168.5 267.16 1168.6 267.462L1119.89 295.575ZM1173.09 262.944V206.739L1224.4 236.363V295.594L1175.72 267.5C1175.8 267.198 1175.87 266.876 1175.87 266.536C1175.85 264.797 1174.68 263.36 1173.09 262.944ZM1226.28 297.768L1277.58 268.143V327.373L1226.28 356.998V297.768ZM1226.28 359.191L1277.58 329.566V388.797L1226.28 418.422V359.191ZM1279.47 388.797V329.566L1305.13 344.369L1328.16 357.66C1328.08 357.962 1328 358.284 1328 358.624C1328 360.344 1329.18 361.781 1330.77 362.197V418.403L1279.47 388.797ZM1332.67 362.216C1333.32 362.046 1333.9 361.724 1334.36 361.252L1383.96 389.893V449.124L1332.66 419.499V362.216H1332.67ZM1383.96 452.413L1384.91 451.865L1385.86 452.413L1436.22 481.49L1384.91 511.114L1333.6 481.49L1383.96 452.413ZM1332.67 483.116L1383.98 512.74V571.971L1332.67 542.346V483.116ZM1437.16 544.539V603.769L1387.56 632.411C1387.1 631.957 1386.52 631.617 1385.87 631.447V574.145L1437.16 544.539ZM1122.67 174.391C1122.67 174.051 1122.62 173.73 1122.52 173.427L1172.62 144.502L1173.09 144.238V21.4474L1222.4 -7.02406C1223.08 -6.0788 1224.18 -5.45491 1225.42 -5.45491C1227.47 -5.45491 1229.13 -7.11858 1229.13 -9.16035C1229.13 -10.8807 1227.96 -12.3176 1226.37 -12.7335V-72.9091L1173.17 -42.2069V-102.534L1118.1 -134.333V-70.735L1170.3 -40.5999L1118.95 -10.9564L1069.32 -39.6168C1069.4 -39.9193 1069.47 -40.2407 1069.47 -40.581C1069.47 -42.6228 1067.81 -44.2865 1065.77 -44.2865C1063.73 -44.2865 1062.06 -42.6228 1062.06 -40.581C1062.06 -38.8606 1063.24 -37.4238 1064.82 -37.0079V19.1976V81.7176L1012.57 111.89L961.26 82.2658L1013.04 52.3765L1013.51 52.1118V-9.33051L1014.46 -9.87875L1013.51 -10.427V-70.7539L1066.24 -101.192L1066.71 -101.456V-165.054L1012.1 -133.52L1011.62 -133.255V-72.928L960.315 -102.553V-103.649L959.37 -103.101L905.225 -134.351V-74.8753C904.582 -74.7051 903.996 -74.3648 903.542 -73.9111L853.935 -102.553V-165.054L800.735 -134.351V-134.37L746.118 -102.836L745.645 -102.572V-42.2447L694.336 -71.8693V-72.9658L693.391 -72.4176L692.445 -72.9658V-71.8693L640.229 -41.6775L586.084 -72.928V-10.427L534.775 19.1976V-41.1293L479.685 -72.928L426.485 -103.63V-41.1104L376.897 -12.4877C376.216 -13.1683 375.29 -13.5842 374.269 -13.5842C372.227 -13.5842 370.563 -11.9205 370.563 -9.87875C370.563 -7.83698 372.227 -6.17331 374.269 -6.17331C375.309 -6.17331 376.235 -6.58923 376.897 -7.26982L426.504 21.3718V83.8917L481.122 52.3576L481.594 52.0929V-8.23399L532.903 21.3907V83.8917L584.401 54.1536C584.855 54.6073 585.441 54.9476 586.084 55.1178V113.516L641.174 145.315V83.8917L694.374 114.594V50.9964L642.119 20.8424L693.41 -8.76335L747.554 22.4872V-40.0328L798.864 -69.6574V50.9964L746.137 81.434L745.664 81.6987V145.296L797.162 115.558C797.843 116.239 798.769 116.655 799.79 116.655C801.832 116.655 803.495 114.991 803.495 112.949C803.495 111.229 802.323 109.792 800.735 109.376V52.0929L853.462 21.6553L853.935 21.3907V-38.9362L905.244 -9.3116V47.9905C903.656 48.4064 902.484 49.8432 902.484 51.5636C902.484 51.9039 902.54 52.2253 902.635 52.5277L852.536 81.4529L852.063 81.7176V145.315L906.208 114.065L959.408 144.767L1012.61 114.065L1065.81 144.767L1118.06 114.594V170.799C1116.47 171.215 1115.3 172.652 1115.3 174.373C1115.3 176.414 1116.96 178.078 1119.01 178.078C1121.01 178.097 1122.67 176.433 1122.67 174.391ZM1171.2 143.122L1121.6 171.764C1121.14 171.31 1120.56 170.97 1119.91 170.799V113.516L1120.86 112.968L1171.22 83.8917V143.122H1171.2ZM1066.71 22.4683L1118.02 52.0929V111.323L1066.71 81.6987V22.4683ZM1119.89 52.0929L1171.2 22.4683V81.6987L1119.89 111.323V52.0929ZM1171.2 20.2942L1119.89 49.9188V-9.3116L1171.2 -38.9362V20.2942ZM1224.48 -69.6385V-12.7524C1222.89 -12.3365 1221.72 -10.8996 1221.72 -9.17926C1221.72 -9.06583 1221.74 -8.95239 1221.76 -8.83897L1173.19 19.1976V-40.0139L1224.48 -69.6385ZM1119.99 -131.062L1171.3 -101.437V-42.2069L1119.99 -71.8126V-131.062ZM1066.71 -37.0079C1067.36 -37.1781 1067.94 -37.4994 1068.4 -37.9721L1118 -9.33051V49.8999L1066.7 20.2752V-37.0079H1066.71ZM959.389 19.7459L908.08 -9.87875L931.39 -23.3394L959.389 -39.5034L1010.7 -9.87875L987.388 3.58183L959.389 19.7459ZM907.134 -67.7102C907.777 -67.8803 908.363 -68.2017 908.817 -68.6743L957.479 -40.581L907.134 -11.5046V-67.7102ZM958.424 -42.2258L909.762 -70.3191C909.838 -70.6216 909.913 -70.943 909.913 -71.2833C909.913 -71.6236 909.857 -71.945 909.762 -72.2475L958.443 -100.36V-42.2258H958.424ZM958.424 21.3907V80.6211L909.762 52.5088C909.838 52.2064 909.913 51.885 909.913 51.5447C909.913 49.8243 908.741 48.3875 907.153 47.9716V-8.23399L958.424 21.3907ZM907.134 55.1178C907.777 54.9476 908.363 54.6073 908.817 54.1536L957.479 82.2469L907.115 111.323V55.1178H907.134ZM1011.62 50.9964L960.315 80.6211V21.3907L1011.62 -8.23399V50.9964ZM1013.51 -132.158L1064.82 -161.783V-102.553L1013.51 -72.928V-132.158ZM1011.62 -70.7539V-11.5046L960.315 -41.1293V-100.36L1011.62 -70.7539ZM957.479 -102.004L908.817 -73.9111C908.363 -74.3648 907.777 -74.7051 907.134 -74.8753V-131.081L957.479 -102.004ZM852.044 -161.764V-102.534L800.735 -72.9091V-132.121L852.044 -161.764ZM692.464 -69.6574V-10.427L641.155 19.1976V-40.0328L692.464 -69.6574ZM587.975 -69.6574L639.284 -40.0328V19.1976L613.629 4.39476L587.975 -10.4081V-69.6574ZM639.284 80.6211L613.629 65.8182L590.602 52.5277C590.678 52.2253 590.754 51.9039 590.754 51.5636C590.754 49.8432 589.582 48.4064 587.994 47.9905V-8.23399L613.648 6.56888L639.303 21.3718V80.6211H639.284ZM532.903 19.1976L481.594 -10.427V-69.6574L532.903 -40.0328V19.1976ZM428.414 -100.379L479.723 -70.7539V-11.5046L428.414 -41.1293V-100.379ZM377.842 -10.8429L427.468 -39.4845L478.777 -9.85986L455.467 3.60074L427.468 19.7648L377.842 -8.87677C377.918 -9.17926 377.993 -9.50066 377.993 -9.84094C377.974 -10.2191 377.918 -10.5404 377.842 -10.8429ZM479.704 50.9964L428.395 80.6211V21.3907L479.704 -8.23399V50.9964ZM534.794 80.6211V21.3718L586.103 -8.2529V47.9527C584.515 48.3686 583.343 49.8054 583.343 51.5258C583.343 51.8661 583.399 52.1874 583.494 52.4899L534.794 80.6211ZM639.284 142.026L587.975 112.401V55.1178C588.617 54.9476 589.203 54.6262 589.657 54.1536L613.61 67.9923L639.265 82.7952V142.026H639.284ZM692.464 111.323L641.155 81.6987V22.4683L692.464 52.0929V111.323ZM745.664 19.1976L694.355 -10.427V-69.6574L745.664 -40.0328V19.1976ZM747.554 -42.2258V-101.456L798.864 -131.081V-71.8504L747.554 -42.2258ZM852.044 -100.341V-41.1293L800.754 -11.5046V-70.7161L852.044 -100.341ZM747.554 142.044V82.8141L798.864 53.1894V109.395C797.276 109.811 796.103 111.248 796.103 112.968C796.103 113.308 796.16 113.63 796.255 113.932L747.554 142.044ZM852.044 20.2942L800.735 49.9188V-9.33051L852.044 -38.9552V20.2942ZM853.935 -100.36L902.616 -72.2663C902.54 -71.9639 902.465 -71.6425 902.465 -71.3022C902.465 -69.5818 903.637 -68.145 905.225 -67.7291V-11.5046L853.935 -41.1293V-100.36ZM853.935 82.8141L903.542 54.1725C903.996 54.6262 904.582 54.9665 905.225 55.1367V112.439L853.916 142.063V82.8141H853.935ZM959.37 142.593L908.061 112.968L958.424 83.8917L959.37 83.3434L960.315 83.8917L1010.68 112.968L959.37 142.593ZM1014.46 112.968L1065.77 83.3434L1117.08 112.968L1065.77 142.593L1014.46 112.968Z" fill="url(#paint0_linear_226_22)"/>
<defs>
<linearGradient id="paint0_linear_226_22" x1="-499.5" y1="941.5" x2="1567.5" y2="-14.4999" gradientUnits="userSpaceOnUse">
<stop stop-color="#15214B"/>
<stop offset="1" stop-color="white" stop-opacity="0"/>
</linearGradient>
</defs>
</svg>
