<svg width="369" height="337" viewBox="0 0 369 337" fill="none" xmlns="http://www.w3.org/2000/svg">
<path d="M315.805 147.373C315.805 226.091 252.81 289.853 175.039 289.853C97.2674 289.853 34.2727 226.091 34.2727 147.373C34.2727 135.88 35.5948 124.78 38.1613 114.075C40.4166 104.471 43.683 95.182 47.8049 86.4442C70.3586 38.1896 118.81 4.8916 175.039 4.8916C223.101 4.8916 265.564 29.2944 290.918 66.4497C291.773 67.7092 292.629 68.9687 293.406 70.3069C297.528 76.7618 301.184 83.6103 304.217 90.695C304.605 91.5609 304.994 92.4268 305.305 93.2928C305.616 94.0012 305.85 94.7097 306.161 95.3394C306.628 96.5989 307.094 97.8584 307.561 99.1179C312.927 114.232 315.805 130.448 315.805 147.373Z" fill="#DCEDF9"/>
<path d="M276.22 164.217C275.675 163.902 274.975 164.453 274.664 165.004C274.12 166.027 274.275 167.287 273.964 168.389C273.653 169.491 272.564 170.593 271.476 170.121C271.398 170.672 271.476 171.223 271.864 171.617C270.931 171.617 270.076 171.695 269.142 171.695C268.909 172.325 269.687 172.876 269.765 173.506C269.842 173.978 269.531 174.372 269.376 174.844C269.142 175.552 269.376 176.418 269.998 176.812C270.62 177.206 271.631 176.891 271.787 176.103C272.564 176.025 272.798 177.599 273.498 177.363C273.887 177.206 273.964 176.576 274.353 176.576C274.664 176.576 274.82 176.969 275.053 177.127C275.442 177.442 276.064 177.048 276.22 176.576C276.375 176.103 276.297 175.631 276.375 175.08C276.531 172.955 278.475 171.144 278.008 169.098C277.386 168.783 276.764 168.31 276.297 167.759C277.075 167.602 277.697 166.736 277.542 165.949C277.386 165.162 276.453 164.611 275.675 164.768C275.986 164.768 276.297 164.689 276.686 164.689L276.22 164.217Z" fill="#F0F7FC"/>
<path d="M280.575 173.505C279.563 172.954 278.319 173.741 278.008 174.843C277.775 175.945 278.319 177.126 279.175 177.756C278.397 177.598 277.619 178.385 277.775 179.173C278.008 180.117 279.33 180.432 280.108 179.881C280.886 179.33 281.197 178.307 281.197 177.362C281.197 176.968 281.197 176.575 281.352 176.26C281.508 175.945 281.741 175.788 281.974 175.552C282.674 174.843 283.063 173.505 282.363 172.796C281.663 172.088 280.419 172.403 279.486 172.796C279.33 172.875 279.252 172.954 279.175 173.033C279.097 173.19 279.252 173.347 279.408 173.269L280.575 173.505Z" fill="#F0F7FC"/>
<path d="M285.396 173.9C284.774 174.215 284.463 174.924 284.696 175.632C284.93 176.262 285.552 176.734 286.252 176.577C287.029 177.836 288.041 178.938 289.129 179.883C289.518 180.198 289.985 180.513 290.451 180.355C290.763 180.277 290.996 179.962 291.307 180.041C291.696 180.119 291.696 180.67 291.54 180.985C291.385 181.3 291.151 181.694 291.307 182.087C291.54 182.638 292.24 182.56 292.785 182.402C293.329 182.245 294.029 182.166 294.262 182.638C294.496 183.111 294.34 183.898 294.807 183.976C295.74 183.898 295.507 182.323 296.206 181.772C296.906 181.3 297.762 181.93 298.306 182.56C298.851 183.189 299.551 183.976 300.328 183.74C300.562 182.874 300.639 181.851 299.862 181.379C299.706 181.3 299.551 181.221 299.395 181.143C299.006 180.906 298.695 180.513 298.462 180.119C297.684 178.938 296.829 177.679 295.584 176.971C294.651 176.419 293.485 176.262 292.473 175.868C291.307 175.396 290.296 174.609 289.829 173.428C289.674 173.035 289.44 172.484 289.052 172.562C288.429 172.641 288.818 173.743 288.352 174.294C287.729 174.53 286.952 174.294 286.485 173.743C286.018 173.271 285.707 172.641 285.474 172.011C285.474 172.405 285.085 172.641 284.774 172.877C284.541 173.192 284.619 173.822 285.007 173.743L285.396 173.9Z" fill="#F0F7FC"/>
<path d="M262.065 161.54C261.909 161.304 261.598 161.697 261.676 162.012C262.143 164.846 264.243 167.601 263.387 170.435C262.143 168.467 260.821 166.499 259.576 164.531C259.265 165.869 259.81 167.286 260.354 168.546C261.521 171.065 262.609 173.662 263.776 176.181C264.631 178.071 265.409 179.881 266.265 181.771C266.654 182.636 267.509 183.66 268.287 183.109C270.542 184.29 273.031 185.155 275.519 185.628C276.219 185.785 277.23 185.706 277.386 184.919C275.364 184.132 273.497 183.03 271.864 181.613C270.853 180.747 269.92 179.724 268.987 178.622C266.887 175.945 265.176 172.875 264.631 169.49C264.398 168.31 264.398 167.129 263.932 166.027C263.62 165.318 263.232 164.689 262.998 163.901C262.765 163.114 262.998 162.248 263.62 161.855L262.065 161.54Z" fill="#F0F7FC"/>
<path d="M301.806 91.0872C301.651 90.9297 301.417 90.6936 301.262 90.5361C301.184 90.7723 301.495 91.1659 301.806 91.0872Z" fill="#F0F7FC"/>
<path d="M306.161 95.3369C306.628 96.5964 307.094 97.8559 307.561 99.1154C307.172 99.9026 306.939 100.769 306.783 101.556C306.705 102.264 306.317 103.287 305.617 103.051C305.228 102.894 305.072 102.422 304.995 101.949C304.839 100.69 304.839 99.3516 304.917 98.0921C304.295 97.8559 303.75 97.3836 303.439 96.8326C304.217 96.5177 304.995 96.3603 305.617 95.8879C305.928 95.8092 306.083 95.5731 306.161 95.3369Z" fill="#F0F7FC"/>
<path d="M304.217 90.6927C304.217 90.7714 304.217 90.8502 304.139 90.9289C303.983 91.2438 303.75 91.6374 303.439 91.7948C303.284 91.8735 303.206 91.8735 303.05 91.8735C302.895 91.8735 302.661 91.7948 302.506 91.7161C302.195 91.5586 301.961 91.3225 301.728 91.165C302.039 91.0076 302.195 90.5353 302.039 90.2204C302.039 89.9843 301.884 89.8268 301.728 89.7481C301.184 89.5119 300.484 89.9843 300.562 90.614C300.25 90.1417 299.551 90.1417 299.162 90.5353C298.773 90.8502 298.539 91.4012 298.384 91.8735C298.151 91.4799 297.917 91.0863 297.528 90.9289C297.14 90.7714 296.595 91.0863 296.595 91.4799C296.44 91.0076 295.74 91.2438 295.351 91.5586C294.651 92.1884 294.029 93.0543 294.029 93.9202C294.029 94.0776 294.029 94.2351 294.107 94.3925C293.096 94.7074 292.396 95.5733 291.773 96.4392C291.54 96.8328 291.229 97.2264 291.151 97.62C291.073 98.0923 291.229 98.5646 291.696 98.722C292.162 98.8795 292.707 98.4859 293.173 98.2497C293.64 98.0136 294.184 97.9348 294.729 98.0136C295.351 98.0923 295.895 98.3284 296.362 98.8008C296.673 99.1156 296.595 99.3518 296.44 99.8241C296.362 100.139 296.129 100.454 295.973 100.769C295.74 101.556 296.284 102.343 296.673 103.052C297.062 103.76 297.373 104.783 296.673 105.256C296.906 105.885 296.984 106.594 296.829 107.224C296.595 107.617 295.895 107.46 295.662 107.066C295.429 106.673 295.506 106.122 295.506 105.649C295.584 105.177 295.584 104.626 295.351 104.232C295.04 103.839 294.418 103.681 294.029 103.996C293.873 104.075 293.795 104.154 293.718 104.311C293.562 104.547 293.562 104.783 293.484 105.02C293.407 105.334 293.407 105.649 293.329 105.964C293.251 106.673 293.251 107.46 293.329 108.168C293.407 108.719 293.484 109.27 293.951 109.585C294.262 109.743 294.651 109.743 294.962 109.9C295.429 110.136 295.584 110.766 295.351 111.238C295.118 111.711 294.418 111.868 294.029 111.553C294.184 111.317 294.34 111.081 294.495 110.845C293.64 110.923 292.862 110.923 292.007 111.002C292.24 111.238 292.162 111.711 291.851 111.947C291.54 112.183 291.229 112.262 290.84 112.34C290.451 112.498 290.062 112.891 289.829 113.285C289.596 113.757 289.518 114.23 289.674 114.781C289.051 114.545 288.585 115.332 288.429 115.883C288.429 115.961 288.429 116.04 288.351 116.119C288.274 116.67 288.118 117.3 287.652 117.615C287.34 117.772 286.874 117.772 286.563 117.929C286.018 118.244 285.941 119.11 286.485 119.504C286.096 119.346 285.629 119.268 285.241 119.346C285.007 119.425 284.774 119.583 284.618 119.74C284.541 119.897 284.463 120.055 284.541 120.291C284.618 120.606 285.007 120.921 284.852 121.314C284.774 121.55 284.385 121.629 284.23 121.865C283.841 122.338 284.385 122.967 284.541 123.518C284.696 123.912 284.618 124.384 284.618 124.857C284.618 125.329 284.696 125.801 285.085 126.116C285.396 126.352 285.863 126.274 286.018 125.959C286.018 126.352 286.64 126.746 287.029 126.588C287.496 126.431 287.729 125.959 287.885 125.486C287.885 125.408 287.963 125.329 287.963 125.25C288.118 124.699 288.429 124.148 288.896 123.912C289.285 123.755 289.751 123.833 290.14 123.833C290.84 123.676 291.385 123.046 291.696 122.338C291.929 121.629 292.007 120.842 292.24 120.134C292.318 119.74 292.473 119.346 292.784 119.189C293.173 118.953 293.64 118.953 294.029 118.874C294.418 118.795 294.884 118.48 294.884 118.087C295.273 118.087 295.584 118.717 295.273 119.031C295.351 119.74 294.418 120.055 294.107 120.606C293.64 121.314 294.029 122.338 294.418 123.125C293.096 123.755 292.862 126.116 291.462 126.116C290.918 126.116 290.373 125.723 289.907 125.959C289.674 126.037 289.44 126.274 289.285 126.51C289.051 126.746 288.818 126.982 288.585 127.218C287.885 127.848 287.029 128.399 286.096 128.714C285.941 128.793 285.785 128.793 285.629 128.793C285.474 128.714 285.396 128.635 285.318 128.478C284.618 127.612 283.996 126.746 283.296 125.801C283.141 125.565 282.907 125.25 282.83 125.014C282.674 124.542 282.752 123.991 282.596 123.518C282.441 123.046 281.819 122.653 281.43 123.046C281.352 122.259 281.119 121.236 280.341 121.314C279.719 121.393 279.33 122.18 278.708 122.259C278.475 122.259 278.163 122.18 277.93 122.102C276.686 121.865 275.519 123.361 275.83 124.621C276.141 125.88 277.619 126.588 278.863 126.274C278.63 125.565 279.641 124.778 280.341 125.25C281.041 125.644 280.963 126.746 280.341 127.218C280.108 127.376 279.719 127.533 279.641 127.848C279.563 128.084 279.797 128.32 279.797 128.635C279.874 129.029 279.563 129.344 279.408 129.737C278.863 130.997 279.797 132.335 280.73 133.358C280.03 133.358 279.097 133.516 279.019 134.224C278.941 134.618 279.174 135.011 279.252 135.405C279.486 136.664 277.93 137.609 277.386 138.79C277.23 139.262 277.152 139.735 277.075 140.207C276.997 140.758 276.841 141.23 276.452 141.624C276.141 141.939 275.753 142.017 275.364 142.253C275.13 142.411 274.897 142.647 274.741 142.883C274.353 143.434 274.197 144.064 274.275 144.694C273.886 144.3 273.108 143.985 272.875 144.536C272.797 144.773 272.875 145.009 272.875 145.245C273.031 146.347 271.708 147.213 270.62 147.055C269.531 146.898 268.598 146.189 267.742 145.402C267.431 146.268 266.887 147.292 266.964 148.236C266.964 148.551 267.12 148.945 267.275 149.181C267.509 149.732 267.82 150.204 267.742 150.834C267.664 151.306 267.431 151.7 267.509 152.172C267.587 152.487 267.82 152.723 267.975 152.881L269.142 154.061C269.531 154.455 269.842 154.77 270.231 155.163C269.997 155.4 269.764 155.636 269.453 155.793C269.298 155.872 269.22 155.872 269.064 155.951C269.22 156.187 269.375 156.423 269.609 156.58C269.764 156.659 269.842 156.816 269.997 156.816C269.92 156.895 269.764 156.895 269.686 156.974C269.297 157.289 269.142 157.919 269.375 158.391C269.531 158.706 269.92 159.099 269.764 159.414C269.686 159.808 269.142 159.886 268.831 160.123C268.209 160.516 268.131 161.382 267.82 162.091C267.509 162.799 266.498 163.271 266.109 162.72C267.275 161.54 266.498 159.572 265.72 158.076C265.409 158.233 265.098 158.47 264.787 158.627C264.787 157.919 264.787 157.131 264.398 156.58C264.009 156.029 262.92 155.872 262.609 156.502C262.998 155.478 263.231 154.376 263.154 153.274C262.842 153.353 262.609 153.589 262.376 153.904C262.143 153.353 261.831 152.959 261.443 152.566C261.209 152.881 260.976 153.195 260.743 153.51C260.354 151.149 259.576 148.787 258.565 146.504C258.332 145.953 257.787 145.324 257.243 145.638C256.932 145.796 256.854 146.347 256.465 146.426C256.232 146.504 256.076 146.347 255.843 146.268C254.91 145.875 253.743 146.504 253.199 147.449C252.654 148.315 252.577 149.417 252.421 150.519C251.488 150.283 250.632 151.306 250.399 152.251C250.244 152.959 250.088 153.668 249.777 154.297C249.621 154.534 249.466 154.77 249.233 155.006C248.688 155.478 247.833 155.557 247.444 156.187C247.133 156.58 247.133 157.21 247.21 157.761C247.288 158.391 247.366 158.942 247.522 159.572C247.91 161.382 248.61 163.193 249.621 164.767C249.699 165.239 249.699 165.79 249.544 166.263C249.388 166.735 248.921 167.129 248.455 167.05C247.91 166.971 247.599 166.42 247.522 165.948C247.444 165.397 247.444 164.925 247.21 164.373C246.899 163.586 246.044 162.957 245.888 162.091C245.811 161.54 245.966 161.067 245.888 160.516C245.733 159.965 245.033 159.65 244.8 160.123C244.488 159.021 243.944 157.997 243.166 157.131C244.333 156.187 244.488 154.14 243.4 153.038C243.166 152.802 242.855 152.644 242.778 152.33C242.622 152.015 242.7 151.621 242.7 151.306C242.778 150.519 242.933 149.732 243.011 148.945C243.166 147.921 243.322 146.898 243.477 145.796C243.477 145.638 243.477 145.481 243.4 145.402C243.244 145.166 242.855 145.324 242.622 145.402C242.233 145.638 241.844 145.875 241.455 146.111C241.3 146.189 241.222 146.268 241.067 146.347C241.144 146.111 241.144 145.953 241.222 145.717C241.455 144.458 241.455 143.119 241.222 141.86C240.911 141.624 240.444 141.545 240.056 141.624C239.744 141.702 239.511 141.939 239.433 142.253C238.889 141.86 238.422 141.388 238.111 140.758C237.8 141.23 237.411 141.702 236.867 141.86C236.323 142.017 235.623 141.624 235.623 141.073L236.4 138.239L256.776 65.1091L258.876 57.6308C260.354 56.6862 261.831 55.6629 263.542 55.5842C263.698 54.8757 264.165 54.2459 264.787 53.9311C261.676 53.0652 258.798 51.1759 256.854 48.4995C256.621 48.1059 256.31 47.7123 256.465 47.24C256.621 46.6102 257.399 46.3741 257.943 46.3741C260.121 46.2954 262.298 47.3974 263.542 49.2079C264.165 48.9718 264.709 48.8143 265.253 48.5782C267.975 51.1759 270.697 53.7736 273.419 56.2926C271.942 56.2926 270.231 56.6075 269.453 57.9457C268.675 59.2052 269.92 61.4093 271.242 60.7796C270.542 61.4881 269.842 62.1178 269.142 62.8263C270.931 61.6455 273.575 61.8029 275.208 63.2199C275.208 62.6689 275.441 62.2753 275.441 61.7242C275.986 61.4881 276.608 61.5668 277.152 61.8029C276.764 61.9604 276.919 62.6688 277.308 62.905C277.697 63.0624 278.163 63.0624 278.552 63.2199C278.941 63.3773 279.33 63.8496 279.097 64.2432C279.874 64.0858 280.263 63.2199 280.652 62.4327C280.963 61.6455 281.663 60.8583 282.441 61.0945C282.596 62.1178 283.918 62.8263 284.852 62.4327C284.385 62.9837 283.918 63.8496 284.463 64.3219C284.696 64.4794 285.085 64.4794 285.241 64.7155C285.629 65.1878 284.852 65.8176 285.007 66.4474C285.163 67.0771 286.018 66.9984 286.563 66.7622C286.407 66.9984 286.252 67.2345 286.096 67.4707C287.574 67.6281 289.129 67.3133 290.451 66.6048C291.307 67.8643 292.162 69.1238 292.94 70.462C297.606 76.7595 301.184 83.5293 304.217 90.6927Z" fill="#F0F7FC"/>
<path d="M304.217 90.6949C301.184 83.6102 297.529 76.7617 293.407 70.3068C292.163 70.228 290.918 70.228 289.752 70.3068C289.674 71.0152 289.596 71.7237 289.596 72.4322C288.585 72.9832 287.263 72.2747 286.485 71.4088C285.708 70.5429 285.163 69.3621 284.23 68.7324C282.286 67.3942 279.408 68.4175 277.231 67.4729C276.609 67.158 276.064 66.7644 275.442 66.4495C274.742 66.1347 273.887 66.1347 273.109 66.0559C271.009 65.8985 268.831 65.8198 266.732 65.6624C266.576 66.0559 266.732 66.5283 267.043 66.8431C265.565 66.8431 264.01 66.9219 262.532 66.9219C262.376 67.3942 262.143 67.8665 261.988 68.2601C261.21 66.3708 259.266 65.4262 257.166 64.9539C256.077 64.7177 254.988 64.5603 253.977 64.5603C251.177 64.3241 248.3 64.1667 245.5 63.9305C244.8 63.8518 244.022 63.8518 243.478 64.3241C243.011 64.7177 242.778 65.4262 242.156 65.6624C241.223 66.0559 240.289 64.8752 240.445 63.9305C240.6 62.9859 241.378 62.1987 242.156 61.569C241.689 60.3095 239.978 59.9159 238.734 60.3095C237.49 60.7031 236.401 61.6477 235.156 62.1987C232.979 63.1434 230.49 62.8285 228.079 62.5136C228.001 63.3795 227.924 64.2454 227.924 65.1113C228.857 65.3475 229.401 66.607 228.857 67.3942C228.001 66.607 227.068 65.8198 225.979 65.6624C224.891 65.5049 223.491 66.1347 223.335 67.2367C223.18 68.5749 224.58 69.4409 225.746 70.0706C225.357 70.9365 224.113 70.8578 223.413 70.228C222.713 69.5983 222.402 68.7324 221.858 67.9452C221.08 66.6857 219.524 65.7411 218.125 66.0559C216.647 66.3708 215.714 68.4175 216.725 69.5196C217.58 69.5983 218.436 70.228 218.669 71.0939C217.269 71.1727 215.947 70.3068 214.625 69.9132C211.981 69.2834 209.336 70.8578 206.848 72.0386C204.359 73.2194 201.093 74.0065 199.071 72.0386C197.826 70.8578 196.737 68.7324 195.182 69.3621C194.638 69.5983 193.86 69.2834 193.471 68.8111C193.393 68.7324 193.393 68.6537 193.316 68.5749C192.771 67.9452 191.682 68.6537 191.138 68.1814C190.905 68.0239 190.827 67.6303 190.671 67.3942C190.516 67.0793 190.282 66.8431 189.971 66.8431C189.738 66.5283 189.505 66.2134 189.271 65.9772C189.038 66.2134 188.883 66.5283 188.805 66.9219C188.416 66.6857 187.949 66.607 187.483 66.4495C187.327 66.4495 187.094 66.3708 186.938 66.4495C186.783 66.5283 186.705 66.6857 186.627 66.8431L185.694 68.9685C185.305 68.8898 184.916 68.8898 184.605 68.8111C184.683 69.0473 184.605 69.3621 184.372 69.4408C184.139 69.5983 183.827 69.4409 183.516 69.5196C183.283 69.5196 182.972 69.9132 183.205 70.0706C182.661 70.0706 182.039 70.0706 181.494 70.0706C181.572 70.3068 181.261 70.5429 181.028 70.7791C180.639 71.2514 180.794 72.196 180.25 72.5109H180.172C179.628 73.2194 180.172 74.3214 179.706 75.1086C179.394 75.6596 178.695 75.7384 178.15 76.0532C177.606 76.3681 177.295 77.1553 177.761 77.5489C176.906 77.3914 175.895 77.8638 175.584 78.7297C175.428 79.0445 175.428 79.4381 175.273 79.753C175.039 80.304 174.573 80.7763 174.573 81.4061C174.495 82.0358 175.195 82.6656 175.661 82.272C175.273 83.2166 174.573 83.9251 173.717 84.4761C175.039 85.6569 177.139 82.6656 178.617 83.6102C178.85 84.9484 179.006 86.2867 179.239 87.6249C178.695 87.7036 178.072 87.7823 177.528 87.7823C178.15 88.2546 177.606 89.278 176.906 89.5929C176.206 89.9077 175.273 89.829 174.728 90.38C173.95 91.0885 174.106 92.2693 173.717 93.2139C172.628 95.4968 169.051 94.7883 167.262 96.5201C165.94 97.7796 166.873 98.8817 168.118 100.22C168.351 100.456 168.584 102.03 168.662 102.345C168.74 102.581 168.273 103.92 168.273 104.156C168.118 104.864 167.573 104.471 167.418 105.179C166.329 105.337 165.24 105.1 164.151 105.1C163.063 105.1 161.896 105.573 161.429 106.596C161.04 107.619 162.051 109.036 163.063 108.564C162.207 109.194 161.274 109.902 160.885 110.926C160.496 111.949 160.729 113.366 161.818 113.76C162.051 113.838 162.363 113.917 162.596 114.074C162.829 114.389 162.674 114.862 162.674 115.334C162.674 115.727 163.063 116.278 163.374 116.042C163.607 115.885 163.918 115.964 164.151 115.885L164.074 117.459C164.074 117.538 164.074 117.617 163.996 117.695C163.918 117.774 163.84 117.853 163.762 117.853C163.063 118.168 163.063 119.112 163.218 119.9C162.751 120.057 162.285 120.214 161.818 120.293C161.663 120.293 161.507 120.372 161.429 120.529C161.352 120.687 161.429 120.923 161.352 121.08C161.352 121.317 161.118 121.395 160.963 121.553C160.574 121.946 160.107 122.34 159.718 122.655C159.641 122.733 159.485 122.891 159.485 122.97C159.485 123.048 159.485 123.127 159.563 123.127C159.796 123.835 160.107 124.623 160.807 124.859C160.652 125.331 160.107 125.567 159.952 125.961C159.718 126.591 160.341 127.22 160.885 127.693C160.652 127.85 160.341 127.929 160.107 128.086C159.485 127.929 158.785 128.401 158.396 128.952C158.007 129.503 157.774 130.212 157.619 130.841C157.541 131.078 157.541 131.393 157.696 131.55C156.919 130.999 155.674 131.393 155.285 132.258C154.819 133.282 155.363 134.699 154.508 135.407C154.197 135.722 153.652 135.879 153.574 136.273C153.574 136.745 154.119 136.982 154.43 137.375C155.052 138.241 153.808 139.264 153.652 140.288C153.574 140.917 153.886 141.547 154.197 142.177C154.43 142.807 154.585 143.515 154.119 143.988C153.886 144.302 153.419 144.381 153.186 144.775C152.641 145.483 153.497 146.507 153.497 147.451C153.497 147.845 153.419 148.238 153.263 148.632C152.952 149.655 152.563 150.679 152.252 151.702C152.641 152.961 154.43 153.04 155.363 153.985C156.219 154.929 155.908 156.425 156.53 157.527C156.996 158.314 157.93 158.708 158.785 159.102C158.085 159.259 158.007 160.282 158.474 160.912C158.863 161.542 159.563 161.857 159.952 162.486C160.341 163.037 160.496 163.667 160.885 164.218C161.196 164.769 161.818 165.242 162.44 165.163C163.063 165.084 163.451 164.454 163.84 163.982C164.229 163.51 165.007 163.116 165.473 163.51C165.707 163.667 165.785 163.982 166.096 164.061C166.407 164.139 166.796 163.825 166.873 163.431C166.951 163.116 166.951 162.644 167.184 162.329C167.573 161.778 168.351 161.778 168.973 161.935C169.595 162.093 170.295 162.329 170.917 162.093C171.54 161.857 171.851 161.227 172.24 160.755C172.628 160.204 173.328 159.81 173.873 160.125C174.573 160.44 174.495 161.463 174.65 162.172C175.039 163.588 177.139 164.14 178.15 163.116C178.772 163.431 178.85 164.297 178.695 165.005C178.617 165.714 178.383 166.501 178.695 167.131C179.083 167.918 180.172 168.469 179.939 169.335C179.861 169.65 179.55 169.886 179.317 170.122C178.306 171.224 178.383 173.035 179.317 174.137C179.939 174.767 180.794 175.16 181.494 175.632C182.194 176.183 182.816 177.128 182.428 177.915C181.805 179.411 182.505 181.221 183.05 182.796C183.439 183.898 183.983 185.079 183.516 186.102C183.361 186.496 182.972 186.889 182.894 187.362C182.739 187.913 182.894 188.464 182.739 189.015C182.35 189.881 181.183 189.959 180.561 190.589C178.928 192.085 181.261 194.919 180.483 196.965C180.328 197.438 179.939 197.91 179.939 198.461C180.017 199.091 180.639 199.563 180.95 200.114C182.039 201.767 180.483 204.365 181.728 205.939C182.739 207.199 185.227 207.356 185.15 208.93C185.072 210.033 183.75 211.056 184.372 211.843C184.527 212.079 184.761 212.158 184.994 212.315C186.549 213.496 185.694 216.015 186.316 217.904C186.861 219.321 188.26 220.817 187.483 221.998C189.349 222.942 191.06 219.951 193.082 220.109C193.938 220.187 194.793 220.817 195.571 220.502C195.96 220.345 196.271 219.951 196.582 219.636C198.293 217.432 200.004 214.913 199.848 212.158C199.771 211.292 199.615 210.505 199.693 209.639C199.771 208.773 200.315 207.907 201.17 207.828C202.026 207.75 203.037 208.458 203.659 207.828C203.97 207.514 203.97 207.041 203.892 206.648C203.892 205.309 203.815 204.05 203.737 202.712C203.659 201.216 203.659 199.642 204.437 198.461C205.759 196.335 209.103 195.863 209.959 193.502C210.892 190.825 207.937 188.149 207.937 185.315C207.937 183.977 208.559 182.796 208.87 181.536C209.492 179.096 209.103 176.341 210.425 174.215C211.747 172.09 214.547 171.067 215.247 168.626C215.714 167.052 215.247 165.32 215.869 163.825C216.725 161.621 219.68 160.833 220.769 158.708C221.935 156.425 220.613 153.434 221.935 151.23C220.069 152.332 218.202 153.512 216.414 154.615C215.636 155.087 214.78 155.559 213.925 155.717C212.992 155.874 211.981 155.48 211.592 154.693C210.97 153.591 211.747 152.017 211.125 150.993C210.814 150.442 210.192 150.128 209.647 149.813C208.481 149.026 207.548 147.766 207.237 146.27C207.081 145.483 206.848 144.853 207.159 144.145C207.237 143.909 207.392 143.751 207.47 143.436C207.548 142.885 207.159 142.413 206.848 141.941C204.359 138.635 203.815 134.226 203.426 130.054C205.914 131.235 207.548 133.597 209.181 135.879C210.036 137.06 210.892 138.398 210.97 139.815C210.97 140.524 210.892 141.154 211.047 141.862C211.281 142.728 211.981 143.358 212.369 144.145C213.147 145.562 212.836 147.294 213.147 148.947C213.458 150.521 214.936 152.253 216.414 151.623C217.58 151.151 217.891 149.577 218.747 148.632C220.769 146.428 224.657 148.396 227.224 146.979C228.624 146.192 229.324 144.617 229.479 143.043C229.635 141.469 229.246 139.894 228.779 138.398C228.39 137.139 228.001 135.879 227.224 134.777C226.446 133.754 225.279 132.888 223.957 132.888C223.413 133.203 223.102 133.833 223.024 134.463C221.469 134.777 220.069 133.439 219.136 132.101C217.736 130.212 216.414 128.165 215.325 126.04C217.191 126.118 217.425 128.952 218.98 129.976C220.535 130.999 222.791 129.661 224.346 130.684C224.735 130.92 225.124 131.393 225.513 131.629C226.524 132.416 227.924 132.416 229.246 132.495C231.812 132.573 234.845 133.282 235.701 135.722C235.856 136.273 235.934 136.824 236.323 137.296C236.479 137.533 236.712 137.69 236.945 137.769C237.956 138.241 239.589 137.769 240.678 138.32C240.523 139.264 240.523 140.209 240.6 141.075C240.756 142.413 241.223 143.83 241.767 145.09C241.845 145.247 241.923 145.326 241.923 145.483C242.389 146.428 242.856 147.372 243.4 148.317C243.478 148.553 243.633 148.711 243.711 148.947C245.578 152.174 247.678 155.717 247.289 159.495C247.522 159.338 247.678 159.18 247.911 158.944C249.311 157.606 250.089 155.717 250.244 153.749C250.4 152.017 249.933 150.206 248.922 148.868C248.222 147.923 247.211 146.507 248.144 145.641C248.455 145.404 248.844 145.326 249.233 145.247C251.177 144.696 252.888 143.358 253.899 141.626C254.133 141.154 254.366 140.681 254.755 140.366C255.066 140.052 255.533 139.894 255.999 139.737C257.943 139.028 260.277 138.005 260.354 135.958C261.054 135.722 261.676 137.06 261.832 137.769C261.91 138.556 261.754 139.343 261.988 140.052C262.221 140.681 262.687 141.154 263.076 141.705C264.554 143.515 265.176 145.955 264.787 148.317C265.565 147.451 266.965 147.923 267.82 148.789C267.976 148.947 268.131 149.104 268.287 149.34C269.142 150.6 269.454 152.174 269.765 153.67C269.842 153.985 269.842 154.3 269.92 154.536C269.998 154.772 269.998 155.087 270.076 155.323C270.153 155.559 270.153 155.874 270.231 156.11C270.231 156.268 270.309 156.425 270.309 156.582C271.242 160.44 272.564 164.218 274.275 167.839C274.586 168.548 274.975 169.178 275.286 169.886C275.209 168.233 275.053 166.659 274.742 165.005C274.198 161.384 273.264 157.921 272.098 154.536C272.02 154.221 271.864 153.906 272.02 153.67C272.253 153.276 272.953 153.355 273.264 153.749C273.575 154.142 273.653 154.693 273.887 155.087C274.742 156.74 277.386 156.583 278.553 155.166C279.719 153.749 279.797 151.702 279.408 149.891C278.864 147.53 277.697 145.326 276.064 143.594C275.753 143.279 275.364 142.885 275.131 142.492C274.975 142.256 274.898 142.098 274.82 141.862C274.586 140.917 275.209 139.894 276.22 139.658C276.609 139.579 277.075 139.658 277.386 139.894C277.853 140.13 278.242 140.603 278.319 141.154C278.942 141.626 279.642 140.917 280.186 140.288C281.508 138.792 283.452 138.084 284.852 136.667C286.174 135.328 286.797 133.518 287.341 131.707C287.885 130.212 288.352 128.716 288.819 127.22C288.896 127.063 288.896 126.984 288.896 126.827C288.896 126.276 288.508 125.725 288.274 125.174C288.119 124.78 287.885 124.387 287.885 123.993C287.885 122.812 288.352 122.025 287.419 121.317C286.641 120.765 286.408 120.293 285.552 119.9C285.319 119.821 285.086 119.663 284.852 119.427C284.308 118.955 283.997 118.246 284.308 117.617C284.619 116.908 285.786 116.357 285.397 115.649C285.241 115.334 284.852 115.255 284.541 115.176C283.375 114.862 282.13 114.547 280.964 114.311C280.575 114.232 280.03 113.996 279.953 113.602C279.875 113.208 280.108 112.894 280.264 112.579C280.964 111.634 281.586 110.768 282.286 109.824C282.364 110.689 283.375 111.083 284.23 111.241C285.086 111.319 286.097 111.398 286.563 112.185C287.03 113.051 286.563 114.153 287.03 115.019C287.341 115.57 287.963 115.727 288.585 115.806C289.052 115.885 289.596 115.964 290.063 116.121C290.763 116.357 291.307 116.987 291.618 117.617C292.785 117.459 293.485 115.885 292.863 114.862C292.396 114.074 291.463 113.76 290.685 113.366C290.452 113.287 290.296 113.13 290.063 112.894C289.519 112.5 289.13 111.87 289.285 111.241C289.363 110.847 289.674 110.532 289.985 110.138C290.452 109.43 290.607 108.643 290.53 107.777C290.452 107.147 290.53 106.517 290.452 105.888C291.307 106.124 292.007 106.675 292.474 107.383C292.785 106.754 293.174 106.124 293.407 105.494C293.718 104.864 293.951 104.235 294.107 103.526C294.651 101.637 294.885 99.5901 294.807 97.6222C294.729 96.2052 294.574 94.7883 294.185 93.4501C293.485 94.0011 292.474 93.4501 291.929 92.6629C291.385 91.9544 290.918 91.0098 290.063 90.7736C289.285 90.6162 288.196 90.8523 287.963 90.0652C287.419 90.3013 286.952 90.4588 286.408 90.6949C285.708 89.9077 285.708 88.6482 285.863 87.5462C286.097 85.1059 286.874 82.0358 289.285 81.6423C290.763 81.4061 292.163 82.272 293.64 82.5869C295.118 82.823 297.062 81.5635 296.44 80.2253C297.14 80.2253 297.918 80.2253 298.618 80.2253C299.007 82.1146 299.395 84.0038 299.707 85.8144C299.784 86.2079 299.862 86.6803 300.173 86.9951C300.484 87.31 300.951 88.0185 301.184 88.3333C301.34 88.5695 301.573 88.8057 301.729 89.0418C301.884 89.1993 301.962 89.3567 302.117 89.5141C302.584 90.1439 303.051 90.6949 303.44 91.1672C304.062 91.8757 304.684 92.4267 305.228 92.6629C304.995 92.4267 304.606 91.5608 304.217 90.6949ZM181.105 87.7036C181.183 87.5462 181.261 87.3887 181.339 87.31C181.572 87.1526 181.883 87.2313 182.194 87.1526C182.739 87.0738 182.972 86.3654 182.972 85.8931C182.972 85.342 182.739 84.791 182.816 84.24C182.894 83.6889 183.283 83.1379 183.827 83.2166C183.205 82.9805 183.05 82.1933 183.127 81.5635C183.127 80.9338 183.283 80.304 183.05 79.6743C182.894 79.202 182.505 78.8084 182.661 78.3361C182.816 77.8638 183.516 77.785 183.905 77.4702C184.45 77.0766 184.605 76.1319 185.227 75.9745C185.383 75.9745 185.538 75.9745 185.616 75.8958C185.849 75.7383 185.849 75.3448 185.772 75.1086C185.694 74.7937 185.538 74.5576 185.616 74.2427C185.694 73.9278 186.005 73.6917 186.238 73.9278L187.016 73.5342C187.716 73.5342 188.105 74.4001 188.338 75.1086C188.416 75.266 188.416 75.5022 188.416 75.7383C188.26 76.0532 187.872 76.1319 187.56 76.2894C186.783 76.683 186.938 77.8638 187.172 78.7297C187.249 79.202 187.405 79.6743 187.56 80.2253C187.638 80.6189 187.794 81.0912 188.183 81.17C188.416 80.304 189.583 79.9104 190.438 80.1466C191.293 80.3828 191.993 81.0912 192.693 81.7997C192.927 81.4848 193.316 81.1699 193.782 80.9338C193.549 81.6423 193.16 82.4294 192.46 82.5082C192.149 82.5869 191.76 82.4294 191.449 82.4294C190.594 82.272 189.66 82.5082 188.805 82.6656C189.116 83.4528 189.349 84.1613 189.66 84.9484C189.116 84.5548 188.338 84.0825 187.949 84.5548C187.794 84.7123 187.794 84.8697 187.638 84.8697C187.483 84.9484 187.327 84.8697 187.172 84.8697C186.783 84.9484 186.549 85.4208 186.627 85.8931C186.705 86.2867 187.016 86.6015 187.249 86.9951C187.794 87.9398 187.949 89.1205 187.56 90.2226C187.016 89.7503 186.472 89.3567 186.005 88.8844C185.772 88.7269 185.538 88.5695 185.305 88.5695C184.994 88.6482 184.916 88.9631 184.761 89.1993C184.605 89.4354 184.294 89.6716 184.061 89.5141C183.905 89.4354 183.905 89.278 183.827 89.1993C183.439 88.8057 182.739 89.278 182.428 89.829C181.417 89.5141 180.405 89.3567 179.394 89.3567C179.939 89.1993 180.794 88.5695 181.105 87.7036ZM203.27 120.057C203.037 120.214 202.648 120.372 202.493 120.687C202.259 121.159 202.726 121.631 202.959 122.104C203.27 122.655 203.192 123.363 202.804 123.914C202.415 124.387 201.715 124.623 201.093 124.544C200.315 124.387 199.693 123.678 198.915 123.836C198.371 123.914 197.826 124.465 197.36 124.15C197.126 123.993 197.049 123.757 196.971 123.521C196.582 122.733 195.649 122.497 194.793 122.497C193.938 122.497 193.16 122.733 192.305 122.655C192.149 122.655 191.916 122.576 191.76 122.419C191.605 122.261 191.605 121.946 191.449 121.71C191.138 120.844 189.894 120.844 188.96 121.08C188.571 122.104 188.96 123.442 189.816 124.15C189.583 124.701 189.738 125.331 189.583 125.882C189.427 126.433 188.649 126.906 188.338 126.355C188.26 126.197 188.26 126.04 188.183 125.803C188.027 125.331 187.405 125.174 186.861 125.016C186.394 124.859 185.849 124.308 186.083 123.914C185.383 123.835 184.761 123.757 184.061 123.836C184.216 123.206 183.827 122.576 183.283 122.34C182.739 122.104 182.116 122.025 181.494 122.025C180.872 121.946 180.25 121.789 179.783 121.395C179.317 120.844 179.239 120.057 179.239 119.349C179.239 119.034 179.239 118.719 179.239 118.404C179.239 117.459 179.239 116.515 179.317 115.57C178.15 115.491 176.906 115.413 175.739 115.334C175.117 115.255 174.495 115.255 174.106 115.727C173.795 116.121 173.717 116.751 173.251 116.83C172.939 116.908 172.706 116.672 172.395 116.593C171.306 116.042 169.984 116.593 168.895 117.144C167.807 117.774 166.562 118.325 165.396 117.932C165.551 116.987 166.251 116.121 167.184 115.727L166.873 116.121C168.118 115.098 168.04 113.051 169.206 111.949C169.906 111.319 170.917 111.083 171.384 110.296C171.695 109.666 171.617 108.958 171.695 108.249C171.773 107.541 172.084 106.754 172.706 106.596C173.173 106.517 173.717 106.754 174.184 106.517C174.495 106.36 174.573 105.966 174.806 105.651C175.273 105.022 176.128 105.022 176.828 105.1C177.139 105.1 177.45 105.179 177.606 105.337C177.761 105.494 177.839 105.651 177.917 105.809C178.461 106.832 179.706 107.147 180.717 107.698C182.505 108.722 183.672 110.689 183.75 112.736C183.75 113.13 183.672 113.681 183.283 113.76C182.894 113.917 182.272 113.523 182.116 113.917C182.116 113.996 182.116 114.153 182.194 114.232C182.583 115.098 183.827 115.098 184.761 114.94C184.838 114.311 184.994 113.76 185.072 113.13C185.15 112.736 185.15 112.343 185.072 112.028C184.916 111.555 184.372 111.319 184.294 110.847C184.216 110.532 184.294 110.138 184.216 109.824C184.216 109.587 184.061 109.273 183.905 109.115C183.127 107.934 182.35 106.832 181.417 105.809C180.561 104.864 179.628 103.684 180.094 102.581C180.95 102.188 181.961 102.896 182.505 103.762C183.05 104.628 183.361 105.573 184.139 106.203C184.605 106.517 185.15 106.754 185.694 106.99C186.161 107.305 186.627 107.856 186.549 108.407C186.472 108.722 186.238 109.036 186.238 109.43C186.238 109.666 186.394 109.902 186.549 110.138C187.405 111.241 188.883 112.106 189.116 113.445C189.194 114.153 189.038 115.019 189.583 115.491C190.049 115.885 190.905 115.57 191.216 115.019C191.449 114.389 191.293 113.681 190.905 113.208C190.749 113.051 190.594 112.894 190.594 112.657C190.516 112.421 190.594 112.185 190.671 112.028C191.216 110.926 192.616 110.453 193.704 111.004C194.015 111.162 194.249 111.398 194.327 111.713C194.327 111.949 194.171 112.106 194.093 112.343C193.627 113.287 193.704 114.547 194.482 115.334C195.26 116.121 196.66 116.121 197.282 115.255C198.293 115.649 199.693 115.176 200.237 116.121C200.315 116.279 200.393 116.436 200.47 116.515C200.782 116.83 201.326 116.593 201.715 116.357C202.104 116.042 202.57 115.727 202.959 115.964C203.192 116.042 203.27 116.279 203.348 116.515C203.659 117.144 203.892 117.774 203.97 118.404C204.048 118.955 203.815 119.663 203.27 120.057ZM207.392 109.824C206.692 109.981 206.07 109.509 205.526 108.958C205.37 109.273 205.215 109.666 205.059 109.981C205.059 110.06 204.981 110.217 204.903 110.217C204.67 110.375 204.359 110.06 204.203 109.824C203.504 108.722 202.104 108.485 200.782 108.328C200.393 108.249 200.004 108.249 199.615 108.328C199.304 108.407 199.071 108.564 198.76 108.722C198.215 108.958 197.671 109.273 197.126 109.273C196.504 109.273 195.882 109.036 195.649 108.564C195.493 108.249 195.415 107.856 195.415 107.462C195.415 106.911 195.338 106.281 195.338 105.73C195.338 105.337 195.26 104.943 195.493 104.628C195.649 104.313 196.115 104.077 196.426 104.392C196.582 103.447 196.815 102.503 197.204 101.558L197.515 101.479C197.748 101.873 198.293 102.109 198.76 101.952C198.837 102.66 199.148 103.447 199.615 103.998C199.848 103.526 200.548 103.526 201.015 103.605C202.181 103.762 203.348 103.998 204.515 104.471C206.226 105.179 207.703 106.439 208.636 107.934C208.403 108.643 208.092 109.587 207.392 109.824Z" fill="#F0F7FC"/>
<path d="M67.0145 69.7561C67.1701 69.6774 67.0145 69.3625 66.859 69.3625C66.7035 69.3625 66.5479 69.52 66.3924 69.6774C65.6924 70.8582 65.9257 72.6687 67.0145 73.5346C65.7702 75.4239 64.4481 77.4706 64.7592 79.6747C64.8369 80.4619 65.4591 81.3278 66.1591 81.1703C66.6257 81.0129 66.859 80.6193 67.0923 80.147C67.4812 79.3598 67.87 78.4939 68.2589 77.7067C68.57 77.077 68.8811 76.3685 69.5032 75.9749C70.0476 75.5813 70.9809 75.5026 71.4475 75.9749C71.8364 76.3685 71.8364 76.9195 71.9919 77.4706C72.1474 78.0216 72.7696 78.4152 73.2362 78.1003C73.5473 79.596 71.5253 81.0129 72.303 82.3511C72.6918 83.0596 73.7806 83.217 74.2473 83.9255C75.1027 85.185 73.5473 87.5466 74.8694 88.3337C76.036 89.0422 77.2803 87.2317 78.6025 86.9955C79.0691 86.9168 79.5357 87.0742 80.0023 86.9168C80.9356 86.6019 81.1689 85.185 82.1022 84.9488C82.491 84.8701 82.8799 85.0276 83.2687 85.185C84.7464 85.8147 86.224 86.3658 87.7795 86.9955C87.935 85.9722 88.1683 84.9488 87.8572 83.9255C87.5461 82.9022 86.6907 82.0362 85.6796 82.115C86.4573 81.0916 86.7684 79.5173 86.1463 78.4152C85.5241 77.2344 83.8131 76.7621 82.8021 77.628C83.8131 75.5026 84.8242 73.141 83.9687 70.9369C82.491 72.9049 80.1579 74.2431 77.6692 74.4793C77.4359 74.4793 77.2026 74.4792 77.047 74.4005C76.7359 74.2431 76.6582 73.7708 76.6582 73.4559C76.2693 71.4092 74.1695 69.9136 72.1474 70.3859C72.5363 69.5987 71.6808 68.7328 70.8253 68.7328C69.9698 68.7328 69.1921 69.2838 68.4922 69.6774C67.7145 70.071 66.7035 70.3072 66.0813 69.6774C66.4701 69.1264 66.859 68.6541 67.1701 68.103L67.0145 69.7561Z" fill="#F0F7FC"/>
<path d="M69.8143 62.0421C69.9699 61.5698 69.2699 61.2549 68.8033 61.491C68.4144 61.7272 68.2589 62.2782 68.1811 62.7505C68.0256 63.6952 68.0256 65.0334 68.9588 65.3483C69.9699 65.7419 71.1364 64.5611 72.1475 65.0334C72.2252 65.1121 72.3808 65.1908 72.4585 65.2696C72.9252 65.7419 72.8474 66.4503 72.8474 67.1588C72.8474 67.8673 73.1585 68.5757 73.7806 68.6545C74.1695 68.6545 74.5584 68.4183 74.9472 68.4183C75.4916 68.497 75.8027 69.1268 75.8805 69.6778C75.9582 70.2288 75.8805 70.8586 76.1916 71.3309C76.6582 72.1181 77.9803 72.0394 78.6802 71.4096C79.3802 70.7799 79.6135 69.7565 79.9246 68.8906C80.0801 68.3396 80.3134 67.7886 80.8578 67.5524C81.9466 67.0014 83.6576 68.3396 84.3575 67.3162C82.8021 66.2142 80.7801 66.2142 79.0691 65.5057C78.8358 65.427 78.6802 65.2695 78.6025 65.1121C78.4469 64.7185 78.9913 64.4036 79.1469 64.0101C79.4579 63.3016 78.5247 62.5931 78.2136 61.8846C77.9025 61.0975 78.2914 60.3103 78.6802 59.5231C78.9913 58.7359 79.2246 57.7913 78.6802 57.2402C78.0581 58.421 77.4359 59.6018 76.8137 60.7826C76.6582 61.1762 76.4249 61.4911 76.1138 61.7272C75.2583 62.2782 74.0917 61.4911 73.8584 60.4677C73.6251 59.5231 74.014 58.4997 74.4028 57.5551C72.4585 58.6572 70.8253 60.2316 69.7365 62.1208C69.9699 61.4911 70.3587 60.94 70.8253 60.5464L69.8143 62.0421Z" fill="#F0F7FC"/>
<path d="M143.619 222.786C143.153 232.075 140.508 252.699 133.898 253.408C130.476 261.909 126.743 267.498 122.777 264.271C122.621 263.877 122.388 263.405 122.232 263.011C121.688 261.752 121.143 260.492 120.21 259.469C119.277 258.446 118.033 257.737 117.255 256.556C116.166 254.982 116.244 252.935 115.933 250.967C115.233 246.795 112.511 242.938 108.778 240.97C109.089 236.247 109.711 231.603 110.566 226.958C110.8 225.856 111.422 224.361 112.589 224.518C110.333 222.156 109.478 218.378 110.566 215.229L110.955 213.182C110.878 212.238 109.711 211.765 108.778 211.687C107.844 211.608 106.678 211.608 106.134 210.821C105.511 209.876 106.056 208.066 104.967 207.672C104.5 207.515 103.956 207.751 103.489 207.593C102.556 207.436 102.245 206.334 102.012 205.468C101.778 204.602 101.156 203.579 100.223 203.657C99.9118 203.736 99.6007 203.972 99.2119 203.972C98.6675 204.051 98.1231 203.579 97.9675 203.106C97.7342 202.555 97.812 202.004 97.812 201.453C94.4678 201.217 90.5015 198.777 87.8573 196.73C88.4017 197.203 88.7905 197.911 88.9461 198.619C87.7017 198.068 86.924 196.73 86.6907 195.313C86.4574 193.975 86.6907 192.558 86.8463 191.141C86.924 190.669 87.0018 190.197 86.8463 189.803C86.6129 189.095 85.7575 188.78 85.2908 188.229C83.2688 186.182 85.6797 182.167 83.7354 180.121C83.0355 179.333 81.9467 179.097 81.0912 178.389C80.1579 177.602 79.7691 176.263 79.3802 175.083C78.1359 171.619 76.1138 168.549 73.3918 166.109C72.303 165.085 71.0587 164.219 70.4365 162.881C69.8144 161.543 70.0477 159.654 71.292 158.945C68.7256 155.482 67.7145 151.073 66.7813 146.823C66.6257 146.193 66.548 145.563 66.7813 145.012C66.9368 144.54 67.4035 144.225 67.7145 143.831C68.7256 142.493 68.8811 140.368 67.559 139.502C67.1701 138.557 65.6925 138.321 65.5369 137.298C65.4592 137.061 65.5369 136.747 65.6147 136.51C65.848 134.621 65.2259 132.732 64.6815 130.921C64.4481 130.213 64.2148 129.426 63.9037 128.717C63.3593 127.064 62.7372 125.254 61.4928 123.994C60.7151 123.207 59.7819 122.735 59.0042 121.947C58.2265 121.16 57.682 120.058 58.0709 119.035C56.5933 118.641 56.2044 116.28 54.7267 116.043C54.4157 115.965 54.1046 116.044 53.7935 115.965C53.4046 115.886 53.0935 115.65 52.8602 115.414C50.8382 113.839 48.9717 112.265 47.0274 110.691C45.7831 110.927 44.4609 110.769 43.3721 110.218C43.9165 111.242 42.75 112.659 41.6612 112.265C42.05 112.895 41.2723 113.524 40.5724 113.524C39.8724 113.524 39.0947 113.288 38.5503 113.682C38.4726 113.761 38.3948 113.761 38.317 113.839C40.5724 104.236 43.8388 94.9469 47.9606 86.2091C48.5828 86.6027 49.205 87.075 49.8272 87.5473C50.1382 87.7835 50.4493 88.0983 50.8382 88.2558C51.6937 88.5707 52.5491 88.0196 53.3269 87.626C55.3489 86.6814 57.8376 86.6814 59.8596 87.7835C60.0152 86.9176 60.1707 86.1304 60.3263 85.2645C60.9484 85.5006 61.5706 84.8709 61.8817 84.2411C62.115 83.6114 62.1928 82.9029 62.5816 82.2732C62.9705 81.7221 63.9815 81.5647 64.2926 82.1944C64.4481 82.5093 64.2926 82.9816 64.1371 83.2965C63.4371 85.4219 64.7592 87.9409 66.8591 88.6494C67.4812 87.7048 67.7923 86.6027 67.8701 85.5006C69.8921 86.9176 71.7586 88.7281 73.1585 90.8535C73.3918 90.3025 73.7807 89.8302 74.2473 89.5153C74.3251 92.9002 77.2026 95.9702 80.5468 96.2851C80.8579 96.2851 81.2467 96.2851 81.5578 96.1277C82.0244 95.8915 82.18 95.3405 82.3355 94.7894C82.7244 93.3725 83.191 92.0343 83.7354 90.6961C84.2798 89.4366 85.2908 87.9409 86.6129 88.1771C88.0906 88.4919 88.4795 90.6961 89.8793 91.3258C91.8236 92.1917 93.6124 89.5153 95.7122 89.2004C94.9345 87.8622 95.09 86.0517 96.101 84.9496C96.3344 84.7134 96.5677 84.4773 96.8787 84.3986C97.5787 84.2411 98.2009 84.8709 98.5119 85.5006C98.7453 86.2091 98.7453 86.9176 98.9786 87.626C99.3674 89.043 100.923 89.9876 102.323 89.8302C103.8 89.6727 105.045 88.4132 105.2 86.9963C105.356 87.3112 105.511 87.7048 105.589 88.0196C105.511 87.3899 106.056 86.7601 106.678 86.6814C107.3 86.6027 107.844 87.3112 107.844 87.9409C107.689 87.7835 107.611 87.5473 107.611 87.2324C107.611 87.7835 107.611 88.3345 107.611 88.8855C108 88.8855 108.389 88.9642 108.778 88.9642C109.167 89.594 108.933 90.5386 108.389 90.8535C108.778 90.9322 109.089 91.1684 109.244 91.4832C108.233 92.3492 107.456 93.4512 107.067 94.7107C106.056 94.2384 104.967 94.0023 103.8 93.9235C103.567 95.4979 105.045 97.0723 106.678 96.9148C106.989 96.9148 107.3 96.7574 107.611 96.8361C108 96.9148 108.311 97.3084 108.467 97.6233C108.856 98.4892 108.856 99.5913 108.467 100.536C108.389 100.772 108.233 101.087 107.922 101.166C107.689 101.244 107.456 101.166 107.222 101.087C106.522 100.772 105.978 100.142 105.278 99.7487C104.578 99.3551 103.645 99.2764 103.1 99.8274C102.789 100.221 102.712 100.772 102.4 101.244C101.623 102.268 99.6785 101.638 98.9786 102.74C98.5897 103.448 98.7453 104.708 97.8898 104.787C97.6565 104.787 97.4231 104.708 97.1121 104.629C96.101 104.472 95.3233 105.653 95.3233 106.755C95.3233 107.778 95.6344 108.88 95.3233 109.903C95.4011 110.061 95.1678 110.218 95.09 110.218C95.4011 112.186 96.0233 114.154 96.9565 115.886C97.3454 116.595 97.7342 117.303 98.4342 117.775C100.301 119.192 102.867 118.248 104.967 117.224C104.656 118.562 104.267 119.822 103.956 121.16C105.2 121.081 106.211 122.184 106.678 123.286C107.145 124.466 107.222 125.726 107.533 126.907C108.233 129.583 110.1 131.866 112.511 133.125C112.744 131.236 111.189 129.583 110.566 127.851C109.555 125.175 110.722 121.869 113.133 120.452C111.189 119.822 109.944 117.46 110.644 115.492C110.878 114.863 111.189 114.312 111.344 113.682C111.733 112.108 110.644 110.612 109.944 109.116C109.322 107.621 109.478 105.338 111.033 105.023C111.422 104.944 111.889 105.023 112.277 105.102C113.522 105.338 114.766 105.574 116.088 105.81C116.71 105.889 117.255 106.046 117.721 106.361C118.577 106.991 118.888 108.172 119.199 109.195C120.055 112.029 121.766 114.705 123.943 116.673C124.176 114.548 124.643 112.344 125.187 110.297C127.909 112.973 127.909 117.382 127.676 121.318C130.32 121.318 131.876 124.309 132.731 126.907C133.431 128.953 133.976 131.472 132.42 132.968C133.976 134.149 135.376 135.566 136.542 137.14C136.931 137.612 137.32 138.242 137.242 138.872C137.086 139.738 135.998 140.21 135.142 140.053C134.287 139.817 133.587 139.187 133.042 138.478C131.565 136.589 130.554 134.385 130.009 132.102C128.454 133.598 125.887 133.913 124.021 132.889C123.632 132.653 123.243 132.417 122.854 132.574C122.388 132.732 122.232 133.44 122.31 133.913C122.388 135.644 123.01 137.376 123.943 138.793C125.576 138.321 127.598 138.714 128.609 140.053C129.62 141.391 129.309 143.752 127.754 144.54C127.132 144.776 126.432 144.855 125.81 144.697C124.565 144.461 123.477 143.752 122.232 143.516C120.988 143.28 119.432 143.91 119.355 145.169C120.91 146.114 121.454 148.397 120.599 150.05C119.743 151.703 117.488 152.333 115.855 151.624C114.999 155.167 114.455 158.866 114.299 162.488C114.222 163.983 114.222 165.558 113.366 166.817C112.511 168.077 110.489 168.549 109.555 167.447C109.867 171.776 110.255 176.106 110.566 180.435C108 179.648 107.378 176.263 107.222 173.508C104.656 172.8 102.789 171.934 100.145 171.619C99.523 173.036 97.3454 172.013 95.8677 172.564C94.5456 173.036 94.079 174.768 93.9234 176.185C93.3013 180.357 92.7569 184.529 92.1347 188.701C92.0569 189.488 91.9014 190.354 92.2902 191.062C93.2235 192.873 96.101 192.165 97.5009 190.59C98.823 189.016 99.7563 186.89 101.701 186.182C102.556 185.867 103.645 185.946 104.189 186.654C104.656 187.284 104.578 188.15 104.267 188.858C103.723 190.197 102.712 191.22 101.934 192.479C101.156 193.66 100.767 195.392 101.623 196.494C102.478 197.675 104.811 197.203 104.734 195.786C107.611 198.462 107.611 202.949 107.456 206.885C109.555 208.144 111.733 209.168 113.988 210.034C114.144 207.987 114.999 205.389 116.944 205.625C117.721 205.704 118.421 206.334 119.199 206.413C120.055 206.491 120.91 205.94 121.766 205.704C123.632 205.232 125.654 206.885 125.654 208.774C125.654 207.987 126.898 208.381 127.365 209.089C128.532 210.742 129.543 212.553 130.32 214.363C131.876 213.733 133.742 214.757 134.287 216.331C134.364 215.78 135.375 215.308 135.998 215.623C136.387 215.78 136.775 216.095 137.009 216.489C137.709 217.512 137.553 219.008 137.164 220.188C136.775 221.448 136.309 222.707 136.542 223.967C136.775 225.226 138.175 226.328 139.264 225.777C140.353 224.282 141.753 222.55 143.619 222.707C143.541 222.707 143.541 222.786 143.619 222.786Z" fill="#F0F7FC"/>
<path d="M101.234 54.4856C101.389 54.3281 101.7 54.4069 101.778 54.5643C101.311 55.1153 100.845 55.9812 101.311 56.4535C101.389 56.5323 101.545 56.611 101.545 56.7684C101.623 57.162 101.078 57.162 100.689 57.0833C99.756 56.8471 98.745 57.0833 97.8895 57.4769C97.6562 57.5556 97.5007 57.6343 97.3451 57.8705C97.1896 58.0279 97.2674 58.3428 97.4229 58.4215C97.0341 58.0279 96.3341 58.0279 95.9453 58.4215C95.7119 58.6577 95.6342 58.8938 95.4786 59.13C94.7009 60.1533 92.9899 59.681 91.9789 60.3895C92.1345 60.4682 92.29 60.5469 92.4455 60.6256C92.2122 60.3895 91.7456 60.7044 91.7456 61.0192C91.8234 61.4128 92.1345 61.5703 92.5233 61.649C92.9122 61.7277 93.2233 61.4915 93.5343 61.4128C94.7787 61.098 96.2563 61.4128 97.2674 62.2787C96.5674 62.5936 95.7897 62.9872 95.0898 63.3021C95.6342 63.5382 96.1786 63.6957 96.723 63.7744C96.723 64.0105 96.723 64.2467 96.6452 64.4829C96.8785 64.4829 97.1896 64.5616 97.4229 64.5616C97.0341 64.719 97.3451 65.3488 97.734 65.3488C98.1228 65.4275 98.5117 65.1913 98.9006 65.1913C99.2894 65.1913 99.756 65.5062 99.6005 65.8998C99.6783 65.5062 100.145 65.4275 100.456 65.4275C100.767 65.4275 101.234 65.5849 101.545 65.4275C101.778 65.3488 101.934 65.1126 102.167 64.9552C103.022 64.4829 104.033 65.5849 104.967 65.4275C105.278 65.3488 105.589 65.1126 105.9 65.1913C106.133 65.1913 106.289 65.3488 106.444 65.5062C106.833 65.8211 107.222 66.136 107.611 66.4508C107.689 66.0572 108 66.136 108.389 66.3721C108.777 66.6083 108.778 67.1593 108.466 67.3955C108.778 67.3955 109.166 67.4742 109.477 67.4742C109.322 68.1826 109.711 68.9698 110.411 69.2847C110.566 69.3634 110.8 69.4421 110.877 69.5996C110.955 69.757 110.955 69.9145 110.955 70.0719C110.955 70.8591 111.344 71.5675 111.966 71.9611C111.577 72.3547 111.888 72.9845 112.122 73.4568C112.433 73.9291 112.666 74.4014 112.666 74.9524C112.666 75.5035 112.355 76.0545 111.811 76.212C111.966 76.4481 112.277 76.6055 112.588 76.5268C112.355 76.6843 112.122 76.9204 112.044 77.2353C112.666 77.5502 113.444 77.5502 114.144 77.314C113.91 77.6289 114.377 78.0225 114.688 77.9438C114.999 77.865 115.31 77.4715 115.466 77.1566C115.932 77.7076 116.943 77.4715 117.255 78.1012C117.488 78.6522 116.943 79.3607 117.255 79.9117C116.788 79.1245 115.855 78.8884 114.999 78.8884C114.533 78.8884 113.988 79.0458 113.599 79.3607C112.977 79.9117 113.055 81.0138 113.599 81.6435C113.91 81.9584 114.299 82.1946 114.688 82.0371C115.077 81.8797 115.077 81.1712 114.688 81.0925C114.688 81.4861 115.155 81.801 115.544 81.5648C115.932 81.3287 115.777 80.6989 115.388 80.6202C116.321 80.5415 117.177 81.25 117.41 82.1159C117.566 81.9584 117.721 81.8797 117.877 81.7223C118.11 82.4307 117.643 83.7689 117.41 84.5561C117.021 84.0838 116.244 84.0838 115.777 84.4774C115.31 84.871 114.999 85.422 114.766 86.0518C114.61 86.4454 114.455 86.9177 114.221 87.3113C114.144 87.5474 113.988 87.8623 114.144 88.0985C114.455 88.8857 116.244 88.4134 116.166 89.2793C115.388 89.5941 115.233 90.6175 115.544 91.4047C115.855 92.1919 116.477 92.7429 116.943 93.3726C117.41 94.0024 117.799 94.8683 117.566 95.6555C118.266 95.498 118.577 96.4427 118.732 97.2299C118.81 97.9383 119.354 98.8829 120.054 98.5681C120.132 99.5914 120.521 100.851 121.532 100.851C122.076 100.851 122.465 100.457 122.932 100.142C123.398 99.8276 124.021 99.7489 124.332 100.221C124.643 100.693 124.254 101.402 124.487 101.874C124.721 102.268 125.343 102.347 125.732 102.032C126.12 101.717 126.354 101.245 126.509 100.851C126.82 99.985 127.209 99.1191 126.898 98.2532C127.132 98.017 127.287 97.7809 127.52 97.5447C127.132 97.1511 126.82 96.8363 126.432 96.4427C126.976 95.7342 127.754 95.3406 128.609 95.2619C128.92 94.2385 129.154 93.2939 129.465 92.2706C129.542 91.9557 129.62 91.6408 129.776 91.326C130.553 89.9877 132.498 90.3026 134.053 89.909C135.22 89.5941 136.231 88.8069 137.242 88.0985C137.786 87.6262 138.408 87.1539 138.564 86.4454C138.642 86.0518 138.642 85.5795 138.875 85.2646C139.108 85.0285 139.497 84.9497 139.886 84.9497C142.219 84.871 144.552 84.32 146.652 83.1392C146.73 82.2733 147.896 81.6435 148.674 82.0371C148.907 81.4861 149.452 81.0138 150.074 80.8564C149.219 80.3053 148.208 80.2266 147.274 80.4628C147.508 80.384 147.43 79.9904 147.196 79.833C146.963 79.7543 146.73 79.7543 146.497 79.833C145.641 80.0692 144.863 80.3053 144.008 80.6202C143.775 80.1479 143.541 79.5969 143.308 79.1245C144.163 78.731 145.174 78.731 146.03 78.9671C146.03 78.1012 146.497 77.2353 147.274 76.763C147.352 77.7076 147.896 78.6522 148.752 79.1245C148.985 79.6756 149.763 79.9117 150.307 79.5969C150.152 78.4948 149.763 77.3927 149.141 76.4481C148.985 76.212 148.83 75.9758 148.596 75.9758C148.363 75.8971 148.13 76.0545 147.896 76.0545C147.041 76.212 146.263 75.1886 146.574 74.4014C146.885 74.5589 147.119 74.7163 147.43 74.8737C148.285 75.0312 149.141 75.1886 149.996 75.4248C149.763 74.0865 148.363 73.1419 147.041 73.3781C146.808 72.9058 146.652 72.4335 146.419 72.0399C147.43 71.8037 148.519 72.0399 149.296 72.6696C149.53 72.4335 149.841 72.1186 150.074 71.8824C150.618 72.7483 152.096 71.0952 152.874 71.725C152.407 71.3314 151.941 70.8591 151.474 70.4655C152.329 70.1506 153.107 69.9145 153.963 69.5996C153.496 68.9698 152.796 68.4975 151.941 68.4975C152.252 68.1039 152.718 67.789 153.263 67.5529C152.796 67.0019 152.407 66.4508 152.174 65.7424C151.318 65.9785 150.385 64.9552 150.618 64.0105C150.852 63.0659 152.252 62.8298 152.874 63.5382C153.185 64.3254 153.729 64.9552 154.429 65.3488C154.118 64.4041 154.196 63.3021 154.507 62.3575C153.729 62.0426 152.796 61.9639 151.941 62.0426C152.485 61.8851 153.029 61.649 153.652 61.4915C153.418 60.5469 151.863 60.3108 151.396 61.1767C151.085 61.0979 150.774 60.9405 150.385 60.8618C151.085 59.681 151.707 58.4215 152.096 57.162C152.64 57.2407 153.263 57.2407 153.807 57.3195C153.34 56.5323 153.029 55.2728 153.885 54.9579C154.118 54.8792 154.351 54.8792 154.585 54.8792C155.207 54.8005 155.751 54.4856 155.985 53.9345C156.218 53.3835 155.985 52.675 155.44 52.3602C156.14 52.9899 157.229 52.5963 157.851 51.9666C158.551 51.3368 159.018 50.5496 159.795 50.0773C160.262 49.8412 160.729 49.7625 161.118 49.4476C161.506 49.1327 161.662 48.503 161.273 48.1881C160.806 47.8732 160.262 48.3455 159.795 48.503C159.018 48.7391 158.318 48.2668 157.54 48.1881C156.14 48.0306 154.896 48.8965 153.807 49.7625C153.418 48.8178 152.018 49.054 151.241 49.6837C150.463 50.3135 149.841 51.2581 148.907 51.4155C148.285 50.3135 150.774 49.1327 149.918 48.1881C149.374 48.1094 148.83 47.9519 148.285 48.1094C147.741 48.2668 147.274 48.7391 147.196 49.2901C145.252 48.0306 142.764 47.7945 140.586 48.5817C142.53 48.0306 144.474 47.4009 146.419 46.7711C147.663 46.3775 148.985 45.9052 150.23 45.5116C149.918 45.0393 149.296 44.8032 148.752 44.9606C148.519 45.0393 148.208 45.118 147.974 45.0393C147.741 44.9606 147.819 44.4096 148.052 44.567C147.274 44.3309 146.263 44.1734 145.563 43.9373C145.019 43.7798 144.397 43.6224 143.93 44.016C142.919 43.3862 141.675 43.3862 140.586 43.465C139.497 43.465 138.486 43.5437 137.397 43.5437C135.375 43.6224 133.431 43.6224 131.409 43.7011C131.564 44.3309 132.187 44.8819 132.809 45.118C132.342 44.9606 131.876 44.8032 131.409 44.6457C131.564 45.2755 130.865 45.8265 130.242 45.8265C129.62 45.8265 129.076 45.4329 128.609 45.0393C128.143 44.6457 127.598 44.2521 126.976 44.1734C125.421 44.016 123.943 46.1414 122.699 45.1968C123.165 45.4329 123.632 45.7478 124.098 45.984C123.243 45.6691 122.232 45.8265 121.376 46.2988C121.221 46.3775 120.988 46.535 121.065 46.7711C121.065 47.0073 121.299 47.1647 121.532 47.2435C122.465 47.637 123.476 48.0306 124.41 48.4242C123.398 48.6604 122.465 47.8732 121.688 47.2435C120.91 46.6137 119.743 45.984 118.888 46.6137C118.343 46.535 117.721 46.4563 117.255 46.535C117.332 46.8499 117.566 47.1647 117.877 47.3222C117.799 47.637 117.721 47.8732 117.488 48.1094C116.71 47.9519 116.088 47.4796 115.621 46.8499C115.155 47.2435 114.921 47.7945 114.921 48.3455C114.377 47.7945 113.833 47.3222 113.288 46.7711C112.977 47.5583 111.966 47.5583 111.188 47.637C109.866 47.7158 108.622 48.2668 107.611 49.1327C107.144 48.7391 106.678 49.605 106.056 49.7625C105.667 49.8412 105.278 49.605 104.811 49.605C104.345 49.605 103.956 50.0773 103.956 50.4709C103.956 50.8645 104.345 51.3368 104.811 51.3368C103.956 50.6284 102.711 50.6284 101.7 51.1007C100.689 51.573 99.9894 52.4389 99.2116 53.2261C99.8338 53.8558 100.845 54.0133 101.623 53.541L101.234 54.4856Z" fill="#F0F7FC"/>
<path d="M217.579 75.9738C214.546 82.5075 207.314 98.8023 206.769 100.455C204.436 98.7235 198.681 94.8663 193.937 91.4027C190.904 95.8897 186.315 99.5107 182.505 103.998C193.781 112.421 207.002 119.663 211.902 117.065C219.601 112.893 224.968 77.0759 224.968 77.0759C224.968 77.0759 220.923 75.3441 217.579 75.9738Z" fill="#FF9C7E"/>
<path d="M181.805 82.4287L165.006 86.6008C167.339 91.1665 178.46 100.77 186.471 106.832C190.282 102.345 191.915 96.4406 193.937 91.3239C186.704 84.9477 181.805 82.4287 181.805 82.4287Z" fill="#222D6D"/>
<path d="M170.916 56.2155C170.916 56.2155 174.649 51.9647 173.483 47.95C172.005 42.8333 168.039 44.9587 168.039 44.9587C168.039 44.9587 163.373 40.5504 156.606 42.6759C149.84 44.8013 140.586 50.6265 145.563 65.1894C150.54 79.7524 131.72 70.3061 129.775 85.8925C127.831 101.479 142.063 102.345 149.14 102.581C156.218 102.896 170.061 105.1 175.272 96.5982C180.093 88.6476 183.36 78.2567 176.283 72.1954C170.683 67.3935 169.594 61.8045 169.517 59.8365" fill="#663A38"/>
<path d="M288.973 31.262C303.361 43.3847 312.927 55.1138 318.137 64.0877C319.382 62.592 320.548 61.1751 321.87 59.6007C315.338 48.9737 304.372 37.0085 292.551 27.0112C280.185 16.5416 265.953 7.48892 254.132 3.00195C252.965 4.34017 251.721 5.99326 250.399 7.56764C260.12 10.7951 273.808 18.5095 288.973 31.262Z" fill="#5EB9DD"/>
<path d="M276.452 89.198C299.775 89.198 318.682 70.0608 318.682 46.4538C318.682 22.8467 299.775 3.70947 276.452 3.70947C253.129 3.70947 234.222 22.8467 234.222 46.4538C234.222 70.0608 253.129 89.198 276.452 89.198Z" fill="#ABD8F4"/>
<path d="M321.87 59.6005C320.548 61.1749 319.382 62.5918 318.137 64.0875C322.57 71.8019 323.737 77.5484 321.793 79.91C317.515 85.0267 295.273 78.4143 268.675 55.9007C242.077 33.3872 231.656 12.3693 235.855 7.25256C237.722 5.04844 242.933 5.04844 250.321 7.48872C251.643 5.91435 252.965 4.33997 254.054 2.92303C244.021 -0.855466 235.7 -1.32778 231.578 3.6315C222.712 14.4947 242.233 40.8655 265.097 60.2303C287.962 79.5951 317.126 94.3155 325.992 83.531C330.27 78.3356 327.936 69.5191 321.87 59.6005Z" fill="#5EB9DD"/>
<path d="M217.424 77.47C218.046 75.502 216.335 68.3386 217.19 64.0878C218.046 59.9157 223.801 53.3821 224.968 53.9331C226.134 54.4841 221.857 62.2773 225.745 67.3153C225.745 67.3153 227.534 61.1752 230.178 62.8283C230.645 64.0091 228.934 66.843 228.39 70.9364C227.845 75.1085 223.49 78.0998 223.49 78.0998" fill="#FF9C7E"/>
<path d="M87.9344 89.5138C97.5127 89.5138 105.277 81.6545 105.277 71.9596C105.277 62.2646 97.5127 54.4053 87.9344 54.4053C78.3561 54.4053 70.5914 62.2646 70.5914 71.9596C70.5914 81.6545 78.3561 89.5138 87.9344 89.5138Z" fill="#ABD8F4"/>
<path d="M87.9344 61.2529L91.3563 68.2589L98.9779 69.4397L93.4561 74.8713L94.7783 82.5857L87.9344 78.9646L81.0128 82.5857L82.3349 74.8713L76.8131 69.4397L84.5125 68.2589L87.9344 61.2529Z" fill="white"/>
<path d="M155.284 305.753C155.284 305.753 154.118 312.287 153.262 316.38C152.018 319.686 151.007 323.228 151.474 324.724C152.485 328.03 160.884 327.479 167.028 330.392C173.172 333.305 185.537 335.115 187.171 330.628C188.415 327.243 174.183 322.52 172.316 320.473C170.45 318.427 167.883 310.397 168.117 306.068L155.284 305.753Z" fill="#FF9076"/>
<path d="M151.396 323.859C151.396 323.701 151.396 323.544 151.396 323.386C151.396 323.308 151.396 323.229 151.396 323.229C151.474 321.969 151.94 320.316 152.562 318.506C157.384 324.252 171.85 327.322 174.494 326.693C176.049 326.299 176.671 324.488 176.905 323.072C181.649 325.354 188.026 328.267 187.171 330.629C185.537 335.116 173.172 333.305 167.028 330.392C160.884 327.48 152.485 327.952 151.474 324.725C151.396 324.567 151.396 324.331 151.396 324.174C151.396 324.016 151.396 323.937 151.396 323.859Z" fill="#1C295E"/>
<path d="M181.883 146.664H155.674L171.073 232.625C164.307 244.826 161.662 263.483 160.185 280.958C159.251 292.136 158.007 301.976 157.229 307.959C160.807 310.005 164.151 309.848 169.206 308.667C176.05 289.066 191.371 244.039 194.093 227.666C197.593 206.648 181.883 146.664 181.883 146.664Z" fill="#4879C1"/>
<path d="M157.929 321.183C157.929 321.183 158.084 315.988 158.395 308.195C153.885 311.029 149.452 309.139 144.941 308.51C146.108 317.247 146.885 322.994 146.885 322.994C146.885 322.994 171.461 334.329 168.739 332.913C165.939 331.496 157.929 321.183 157.929 321.183Z" fill="#FF9C7E"/>
<path d="M146.574 308.508C146.574 308.508 145.407 315.042 144.552 319.135C143.308 322.442 142.297 325.984 142.763 327.48C143.774 330.786 152.174 330.235 158.317 333.147C164.461 336.06 176.827 337.871 178.46 333.384C179.705 329.999 165.472 325.276 163.606 323.229C161.739 321.182 156.373 312.366 156.606 308.036L146.574 308.508Z" fill="#FF9C7E"/>
<path d="M142.686 326.535C142.686 326.378 142.686 326.221 142.686 326.063C142.686 325.984 142.686 325.906 142.686 325.906C142.763 324.646 143.23 322.993 143.852 321.183C148.674 326.929 163.139 329.999 165.784 329.369C167.339 328.976 167.961 327.165 168.195 325.748C172.939 328.031 179.316 330.944 178.46 333.305C176.827 337.792 164.461 335.982 158.318 333.069C152.174 330.157 143.774 330.629 142.763 327.401C142.686 327.244 142.686 327.008 142.686 326.85C142.686 326.772 142.686 326.614 142.686 326.535Z" fill="#222D6D"/>
<path d="M158.318 308.195C159.095 286.547 160.884 244.512 163.606 233.963C167.495 218.377 172.861 146.664 172.861 146.664L145.407 143.673C145.407 143.673 142.063 151.938 138.952 162.723C134.52 178.23 140.897 205.152 142.219 226.642C140.352 234.357 138.253 243.488 138.253 253.485C138.33 266.159 140.508 280.25 142.141 291.822C143.074 298.04 143.852 304.731 144.552 309.533C148.985 310.163 153.885 310.95 158.318 308.195Z" fill="#4879C1"/>
<path d="M167.884 209.166C167.884 209.166 167.806 209.166 167.884 209.166C167.495 209.087 167.261 208.851 167.339 208.536C167.572 206.883 172.55 167.524 173.405 163.194C173.483 162.879 173.716 162.722 174.027 162.722C174.339 162.8 174.494 163.037 174.494 163.351C173.716 167.602 168.506 208.221 168.506 208.615C168.428 209.008 168.117 209.166 167.884 209.166Z" fill="#3A72B5"/>
<path d="M168.195 80.2246C168.195 80.2246 177.605 80.3821 181.26 82.1139C186.782 84.7903 181.338 87.7816 184.527 94.3153C187.715 100.849 189.115 108.012 188.882 112.421C188.493 121.08 186.082 125.724 185.46 132.1C184.915 138.398 186.082 154.929 186.082 154.929C186.082 154.929 156.762 168.547 138.019 157.684C138.019 157.684 138.253 148.552 138.019 137.925C137.63 119.663 134.52 95.1812 135.92 91.7176C138.097 86.286 153.574 81.4054 153.574 81.4054L168.195 80.2246Z" fill="#222D6D"/>
<path d="M170.683 96.834C168.895 95.4171 167.573 94.0789 166.328 92.8194C165.084 91.5599 163.917 90.3004 162.206 88.9622C158.084 85.656 155.207 83.0583 153.729 81.4052C154.196 80.8541 155.207 75.3438 155.051 66.7635C154.974 65.1891 164.617 68.3379 167.884 71.4079C168.661 72.1164 169.128 72.8248 168.972 73.4546C168.739 74.4779 168.506 75.5013 168.35 76.4459C168.195 77.7054 168.117 78.8862 168.272 80.1457C168.35 81.0116 168.428 81.8775 168.584 82.8221C169.439 87.3878 174.494 99.9041 170.683 96.834Z" fill="#FF9C7E"/>
<path d="M166.017 136.981C167.028 136.509 177.683 125.488 179.393 126.511C181.104 127.535 176.749 132.966 176.283 133.439C180.016 133.754 189.582 129.424 188.804 135.092C188.026 140.838 176.516 146.349 168.506 143.908L166.017 136.981Z" fill="#FF9C7E"/>
<path d="M147.274 105.178L136.775 90.458C133.82 94.5514 130.864 104.155 128.92 114.389C134.364 116.199 139.342 119.19 144.474 120.292C145.874 112.578 147.274 105.178 147.274 105.178Z" fill="#222D6D"/>
<path d="M167.728 135.485C160.417 135.406 142.763 135.249 141.13 135.406C141.675 132.494 142.375 126.039 143.541 119.977C138.408 118.875 134.442 116.12 128.998 114.31C126.276 128.636 125.576 144.223 129.698 147.922C137.553 155.086 170.528 143.908 170.528 143.908C170.528 143.908 169.672 138.398 167.728 135.485Z" fill="#FF9C7E"/>
<path d="M168.972 73.5344C168.739 74.5578 168.506 75.5811 168.35 76.5257C160.417 80.5404 156.296 67.8667 156.14 67.1582L167.883 71.409C168.739 72.1175 169.206 72.8259 168.972 73.5344Z" fill="#FC846D"/>
<path d="M168.35 49.3669C168.35 49.3669 171.072 51.4136 171.694 54.4049C173.483 65.8191 172.783 72.9038 168.583 74.8718C164.928 76.5248 157.462 76.4461 154.04 66.5276C150.618 66.7637 149.763 60.2301 151.085 58.6557C152.407 57.0813 154.351 58.4195 154.351 60.1513C156.218 61.4108 157.073 57.3962 157.929 55.1921C160.34 49.8392 167.65 49.2094 168.35 49.3669Z" fill="#FF9C7E"/>
<path d="M153.729 50.7844C153.729 50.7844 155.44 58.6563 154.429 60.2307C156.918 61.254 161.195 60.2307 162.906 54.8778C164.617 49.5249 168.35 49.3675 168.35 49.3675V46.7698" fill="#663A38"/>
<path d="M220.224 216.88L224.734 242.463L247.91 249.076L243.477 224.043" fill="#5EB9DD"/>
<path d="M263.775 209.56L268.675 234.12L247.91 249.076L243.01 221.367" fill="#82D0E8"/>
<path d="M220.223 216.88L240.366 203.576L263.775 209.559L243.633 226.09L220.223 216.88Z" fill="#ABD8F4"/>
<path d="M153.962 57.0815C153.962 57.0815 147.741 58.1836 144.085 57.9474C144.085 57.9474 144.008 60.7813 144.63 61.9621C146.496 62.0408 153.651 62.1983 154.818 61.9621" fill="#4879C1"/>
<path d="M155.907 65.1887L175.272 62.1187C176.127 61.9613 176.671 61.2528 176.516 60.3869L175.427 53.4596C175.272 52.5937 174.572 52.0427 173.716 52.2001L154.351 55.2702C153.496 55.4276 152.951 56.1361 153.107 57.002L154.196 63.9292C154.351 64.7164 155.129 65.3462 155.907 65.1887Z" fill="#4879C1"/>
<path d="M158.706 64.7166L175.583 62.0402C176.283 61.9615 176.749 61.3317 176.594 60.6233L175.583 54.247C175.505 53.5386 174.883 53.0663 174.183 53.2237L157.306 55.9001C156.606 55.9789 156.14 56.6086 156.295 57.3171L157.306 63.6933C157.384 64.4018 158.084 64.8741 158.706 64.7166Z" fill="#222D6D"/>
<path d="M157.151 57.9469L157.851 62.7487C158.006 63.5359 158.706 64.0869 159.406 63.9295L174.572 61.5679C175.349 61.4105 175.816 60.702 175.738 59.9148L175.038 55.113C174.883 54.3258 174.183 53.7748 173.483 53.9322L158.318 56.2938C157.54 56.4512 156.995 57.1597 157.151 57.9469Z" fill="white"/>
<path d="M164.306 63.1421L169.205 62.3549L172.861 54.0107L167.961 54.7979L164.306 63.1421Z" fill="#DAECEC"/>
<path d="M160.962 63.6933L162.984 63.3785L166.639 54.9556L164.539 55.3492L160.962 63.6933Z" fill="#DAECEC"/>
<path d="M309.971 253.955C308.727 253.955 307.56 253.562 306.627 252.696C305.149 251.436 304.449 249.547 304.838 247.579L311.604 209.794C311.915 207.905 313.16 206.409 314.949 205.701C316.737 204.992 318.682 205.307 320.159 206.488L349.868 230.34C351.423 231.599 352.123 233.41 351.812 235.378C351.501 237.346 350.257 238.92 348.468 239.55L311.993 253.404C311.216 253.877 310.593 253.955 309.971 253.955ZM316.737 208.771C316.504 208.771 316.271 208.85 316.037 208.928C315.337 209.164 314.871 209.715 314.793 210.503L308.027 248.288C307.871 249.311 308.416 250.019 308.727 250.256C309.038 250.492 309.738 250.964 310.749 250.571L347.224 236.716C348.235 236.322 348.468 235.457 348.546 235.142C348.624 234.748 348.624 233.882 347.768 233.252L318.059 209.401C317.593 208.928 317.204 208.771 316.737 208.771Z" fill="#ABD8F4"/>
<path d="M78.7579 264.349C77.2803 264.349 75.8026 263.719 74.7916 262.538C73.4695 261.042 73.0806 259.074 73.7028 257.264L85.9906 220.975C86.6128 219.164 88.0905 217.826 89.8792 217.432C91.7457 217.039 93.6122 217.668 94.8566 219.007L120.677 247.109C121.999 248.526 122.465 250.494 121.843 252.383C121.221 254.273 119.743 255.611 117.877 256.004L79.7689 264.191C79.5356 264.27 79.1468 264.349 78.7579 264.349ZM91.1235 220.581C90.968 220.581 90.8125 220.581 90.6569 220.66C89.957 220.817 89.4126 221.289 89.1793 221.998L76.8914 258.287C76.5803 259.311 77.047 260.019 77.2803 260.334C77.5136 260.57 78.2135 261.2 79.2245 260.964L117.332 252.777C118.343 252.541 118.732 251.754 118.81 251.36C118.888 251.045 119.121 250.101 118.343 249.313L92.5234 221.211C92.2123 220.817 91.6679 220.581 91.1235 220.581Z" fill="#ABD8F4"/>
<path d="M78.291 190.117C78.1354 190.117 77.9799 190.117 77.8244 190.117L24.24 185.394C22.7623 185.236 21.3625 184.528 20.3514 183.347C19.3404 182.166 18.8738 180.671 19.0293 179.175L23.6956 124.938C23.9289 121.789 26.7287 119.428 29.8395 119.664L83.4239 124.387C84.9015 124.544 86.3014 125.253 87.3125 126.434C88.3235 127.614 88.7901 129.11 88.6346 130.606L83.9683 184.843C83.6572 187.834 81.2463 190.117 78.291 190.117ZM78.1354 186.575C79.3798 186.653 80.3908 185.787 80.5464 184.528L85.2126 130.291C85.2904 129.661 85.0571 129.11 84.6682 128.638C84.2794 128.165 83.735 127.929 83.1906 127.85L29.6062 123.127C28.4396 123.049 27.3508 123.915 27.1953 125.174L22.529 179.411C22.4513 180.041 22.6846 180.592 23.0734 181.064C23.4623 181.537 24.0067 181.773 24.5511 181.852L78.1354 186.575Z" fill="#ABD8F4"/>
<path d="M269.064 296.859C277.01 296.859 283.451 290.339 283.451 282.296C283.451 274.253 277.01 267.733 269.064 267.733C261.118 267.733 254.676 274.253 254.676 282.296C254.676 290.339 261.118 296.859 269.064 296.859Z" fill="#DCEDF9"/>
<path d="M369 99.748H234.612V183.032H369V99.748Z" fill="#85CBED"/>
<path d="M366.045 99.748H237.567V179.411H366.045V99.748Z" fill="white"/>
<path d="M369 99.748H234.612V116.122H369V99.748Z" fill="#85CBED"/>
<path d="M289.363 146.036C289.363 146.114 289.363 146.193 289.363 146.272H295.584C295.584 146.193 295.584 146.036 295.584 145.957L289.363 146.036Z" fill="#D3E0E5"/>
<path d="M295.584 146.273H289.362C289.129 155.09 281.974 162.253 273.186 162.253C271.397 162.253 269.686 161.938 268.053 161.387L265.72 167.213C268.053 168 270.542 168.472 273.108 168.472C285.474 168.551 295.351 158.632 295.584 146.273Z" fill="#DCEDF9"/>
<path d="M289.362 145.88C289.362 145.959 289.362 146.037 289.362 146.037L295.584 145.959V145.88C295.584 133.6 286.018 123.681 274.041 123.209V129.506C282.596 129.979 289.362 137.063 289.362 145.88Z" fill="#85CBED"/>
<path d="M257.009 145.88C257.009 136.827 264.242 129.506 273.186 129.506C273.497 129.506 273.73 129.506 274.041 129.585V123.288C273.73 123.288 273.497 123.209 273.186 123.209C260.82 123.209 250.788 133.364 250.788 145.88C250.788 155.799 257.087 164.143 265.798 167.291L268.131 161.466C261.676 159.262 257.009 153.122 257.009 145.88Z" fill="#85CBED"/>
<path d="M357.957 127.93H307.25V131.393H357.957V127.93Z" fill="#ABD8F4"/>
<path d="M357.957 138.164H307.25V141.628H357.957V138.164Z" fill="#ABD8F4"/>
<path d="M357.957 148.475H307.25V151.938H357.957V148.475Z" fill="#ABD8F4"/>
<path d="M357.957 158.787H307.25V162.251H357.957V158.787Z" fill="#ABD8F4"/>
<path d="M250.555 102.03H238.345V104.313H250.555V102.03Z" fill="white"/>
<path d="M250.555 106.832H238.345V109.114H250.555V106.832Z" fill="white"/>
<path d="M250.555 111.633H238.344V113.916H250.555V111.633Z" fill="white"/>
<path d="M50.9005 114V26C15.7005 32.1 -0.0995284 46 0.000471589 56.1V135.4C0.000471589 135.5 3.10047 119.4 50.9005 114Z" fill="#A5DCF2"/>
<path d="M0.000488281 56.2002V135.5C0.000488281 135.5 8.70049 174.8 151.3 176.6V96.5002C151.4 96.4002 39.9005 110.6 0.000488281 56.2002Z" fill="url(#paint0_linear_544_2849)"/>
<path d="M112.5 119.4C48.3005 119.4 9.5005 91.9998 9.1005 91.6998C8.0005 90.8998 7.8005 89.3998 8.5005 88.2998C9.3005 87.1998 10.8005 86.9998 11.9005 87.6998C12.3005 87.9998 56.7005 119.3 129.3 113.9C130.601 113.8 131.8 114.8 131.9 116.1C132 117.4 131 118.6 129.7 118.7C123.8 119.2 118.1 119.4 112.5 119.4Z" fill="#F0F7FC"/>
<path d="M112 138.4C47.8005 138.4 9.0005 111 8.6005 110.7C7.5005 109.9 7.3005 108.4 8.0005 107.3C8.8005 106.2 10.3005 106 11.4005 106.7C11.8005 107 56.3005 138.3 128.8 132.9C130.101 132.8 131.3 133.8 131.4 135.1C131.5 136.4 130.5 137.6 129.2 137.7C123.3 138.2 117.6 138.4 112 138.4Z" fill="#F0F7FC"/>
<path d="M111 157.3C46.8005 157.3 8.0005 129.9 7.6005 129.6C6.5005 128.8 6.3005 127.3 7.0005 126.2C7.8005 125.1 9.3005 124.9 10.4005 125.6C10.8005 125.9 55.2005 157.2 127.8 151.8C129.101 151.7 130.3 152.7 130.4 154C130.5 155.3 129.5 156.5 128.2 156.6C122.3 157.1 116.6 157.3 111 157.3Z" fill="#F0F7FC"/>
<defs>
<linearGradient id="paint0_linear_544_2849" x1="197.371" y1="131.84" x2="21.3492" y2="111.81" gradientUnits="userSpaceOnUse">
<stop stop-color="#80C5E8" stop-opacity="0"/>
<stop offset="1" stop-color="#80C5E8"/>
</linearGradient>
</defs>
</svg>
