<svg width="573" height="444" viewBox="0 0 573 444" fill="none" xmlns="http://www.w3.org/2000/svg">
<path d="M150.46 76.0342C87.1847 59.0226 56.2733 89.4153 30.8597 156.839C26.503 168.457 0.363209 343.76 241.638 375.19C309.373 384.007 380.842 353.821 435.093 308.907C454.905 292.517 469.427 261.814 477.933 236.4C487.373 208.082 488.825 93.1496 384.68 33.5052C345.782 11.2034 303.253 0.208081 259.272 0.000622436C233.962 -0.103107 200.768 12.7593 190.188 37.6544C187.284 44.6042 186.143 52.3839 182.927 59.1264C175.147 75.2044 156.58 78.7312 138.946 73.441" fill="#E3F5FF"/>
<path d="M90.5182 163.376C82.0417 163.376 75.0789 156.514 75.0789 147.936C75.0789 139.46 81.9408 132.497 90.5182 132.497C99.0957 132.497 105.958 139.359 105.958 147.936C105.857 156.413 98.9948 163.376 90.5182 163.376ZM90.5182 137.341C84.6654 137.341 79.9226 142.084 79.9226 147.936C79.9226 153.789 84.6654 158.532 90.5182 158.532C96.3711 158.532 101.114 153.789 101.114 147.936C101.114 142.084 96.3711 137.341 90.5182 137.341Z" fill="#BAE8F7"/>
<path d="M84.5645 187.692L66.6024 179.519L69.327 173.464C67.2078 171.748 65.2905 169.629 63.676 167.409L56.9149 169.528L50.9612 150.759L57.3186 148.741C57.2177 145.915 57.5204 143.191 58.1259 140.466C58.4286 139.255 58.7313 138.044 59.2359 136.732L53.383 132.393L65.3914 116.651L71.2443 121.091C75.0789 118.366 79.519 116.449 84.1609 115.541L85.0691 107.367L104.646 109.486L103.738 117.66C107.068 119.073 110.095 121.091 112.82 123.614L120.489 119.376L130.075 136.631L122.81 140.668C123.314 142.888 123.617 145.209 123.617 147.53L131.892 150.355L125.534 169.024L118.067 166.501C116.755 168.519 115.141 170.336 113.324 172.051L116.553 179.619L98.4902 187.39L95.5638 180.729C92.9401 181.133 90.3165 181.234 87.6928 181.032L84.5645 187.692ZM72.758 177.198L82.1427 181.537L84.7663 175.886L86.4818 176.088C89.711 176.592 93.142 176.39 96.3711 175.684L98.2884 175.28L100.811 181.133L110.297 176.996L107.572 170.638L108.884 169.528C111.306 167.409 113.425 164.987 114.939 162.364L115.948 160.749L122.608 162.969L125.938 153.181L118.874 150.759L118.975 149.043C119.076 146.016 118.773 142.989 117.865 140.062L117.361 138.246L123.718 134.714L118.672 125.632L112.012 129.366L110.801 128.054C107.875 125.027 104.343 122.807 100.408 121.293L98.6921 120.687L99.4994 113.624L89.2064 112.514L88.3992 119.577L86.5828 119.779C81.5372 120.486 76.6935 122.504 72.657 125.733L71.2443 126.843L66.2996 123.109L60.0432 131.384L64.9878 135.118L64.2814 136.833C63.5751 138.448 63.0705 140.062 62.7678 141.475C62.0614 144.301 61.8596 147.227 62.1623 150.153L62.2632 151.97L56.9149 153.685L60.0432 163.575L65.6942 161.758L66.7033 163.272C68.6206 166.198 70.9416 168.721 73.7671 170.739L75.2807 171.849L72.758 177.198Z" fill="#BAE8F7"/>
<path d="M182.449 269.334C176.798 269.334 172.156 264.692 172.156 259.041C172.156 253.39 176.798 248.748 182.449 248.748C188.1 248.748 192.742 253.39 192.742 259.041C192.742 264.692 188.1 269.334 182.449 269.334ZM182.449 251.977C178.513 251.977 175.385 255.206 175.385 259.041C175.385 262.876 178.614 266.105 182.449 266.105C186.283 266.105 189.512 262.876 189.512 259.041C189.512 255.206 186.384 251.977 182.449 251.977Z" fill="#BAE8F7"/>
<path d="M178.514 285.576L166.506 280.127L168.322 276.091C166.909 274.88 165.597 273.568 164.588 272.054L160.148 273.467L156.112 260.954L160.35 259.642C160.35 257.826 160.451 255.908 160.956 254.092C161.157 253.285 161.359 252.477 161.662 251.569L157.827 248.643L165.698 238.148L169.634 241.075C172.157 239.258 175.184 237.946 178.211 237.341L178.817 231.892L191.935 233.304L191.33 238.754C193.55 239.763 195.568 241.075 197.384 242.689L202.43 239.864L208.787 251.367L203.944 254.092C204.246 255.606 204.448 257.119 204.448 258.734L209.998 260.651L205.76 273.063L200.714 271.348C199.806 272.66 198.797 273.971 197.586 275.081L199.705 280.127L187.596 285.374L185.679 280.934C183.963 281.237 182.147 281.237 180.431 281.136L178.514 285.576ZM170.643 278.613L176.899 281.439L178.615 277.705L179.725 277.907C181.945 278.21 184.165 278.109 186.284 277.705L187.495 277.402L189.211 281.338L195.568 278.613L193.752 274.375L194.66 273.669C196.274 272.256 197.687 270.641 198.696 268.926L199.302 267.816L203.742 269.33L205.962 262.77L201.219 261.156V259.945C201.32 257.927 201.017 255.908 200.513 253.991L200.21 252.78L204.448 250.358L201.118 244.304L196.678 246.726L195.871 245.918C193.953 243.9 191.532 242.386 188.908 241.377L187.798 240.974L188.302 236.231L181.44 235.524L180.936 240.267L179.725 240.469C176.294 240.974 173.166 242.285 170.441 244.405L169.533 245.212L166.203 242.689L162.066 248.239L165.396 250.762L164.891 251.872C164.387 252.982 164.084 253.991 163.882 255C163.478 256.918 163.276 258.835 163.478 260.752L163.579 261.963L159.946 263.073L162.066 269.632L165.799 268.421L166.405 269.43C167.717 271.348 169.23 273.063 171.047 274.476L172.056 275.182L170.643 278.613Z" fill="#BAE8F7"/>
<path d="M395.068 206.665C392.949 206.665 391.334 206.06 390.224 204.849C388.105 202.528 388.307 198.391 390.83 193.143C393.252 188.098 397.591 182.548 403.04 177.502C408.388 172.456 414.241 168.521 419.488 166.503C424.938 164.384 429.075 164.384 431.194 166.705C435.533 171.346 429.882 183.355 418.378 194.051C412.929 199.097 407.177 203.032 401.93 205.051C399.306 206.161 396.985 206.665 395.068 206.665ZM426.35 166.402C424.635 166.402 422.415 166.906 419.993 167.815C414.947 169.833 409.195 173.667 403.948 178.511C398.701 183.456 394.462 188.804 392.142 193.749C389.921 198.391 389.619 202.124 391.334 203.941C393.05 205.757 396.783 205.757 401.526 203.84C406.572 201.822 412.324 197.987 417.571 193.143C428.167 183.355 433.919 171.649 430.286 167.815C429.277 166.805 427.965 166.402 426.35 166.402Z" fill="#00D1FF"/>
<path d="M381.041 224.931C377.308 224.931 374.28 223.922 372.262 221.702C368.327 217.565 368.831 209.895 373.574 200.107C378.216 190.521 386.39 180.026 396.582 170.54C406.774 161.055 417.874 153.587 427.662 149.753C437.753 145.716 445.423 145.817 449.257 150.055C453.193 154.193 452.688 161.862 447.945 171.65C443.303 181.237 435.13 191.732 424.938 201.217C408.893 216.051 391.94 224.931 381.041 224.931ZM440.478 148.138C437.047 148.138 432.91 149.046 428.066 150.963C418.378 154.798 407.48 162.165 397.389 171.549C387.298 180.934 379.225 191.328 374.684 200.713C370.244 209.896 369.739 217.06 373.17 220.693C380.537 228.564 403.242 219.28 423.929 200.006C434.02 190.621 442.092 180.228 446.633 170.843C451.074 161.66 451.578 154.596 448.147 150.863C446.432 149.147 443.808 148.138 440.478 148.138Z" fill="#00D1FF"/>
<path d="M362.877 247.838C357.125 247.838 352.382 246.223 349.355 242.893C336.943 229.573 354.401 193.144 388.206 161.559C404.553 146.321 422.112 134.515 437.854 128.258C453.798 121.901 465.907 122.002 472.063 128.561C478.117 135.12 477.411 147.229 469.944 162.669C462.577 177.906 449.56 194.658 433.212 209.895C407.783 233.609 380.335 247.838 362.877 247.838ZM458.339 125.13C452.789 125.13 446.028 126.644 438.359 129.772C422.818 135.927 405.26 147.734 389.114 162.77C355.813 193.749 338.457 229.27 350.364 242.086C362.272 254.801 399.003 239.967 432.203 209.088C448.349 194.052 461.265 177.402 468.632 162.265C475.797 147.33 476.705 135.827 470.953 129.772C468.127 126.644 463.889 125.13 458.339 125.13Z" fill="#00D1FF"/>
<path d="M408.994 193.144C414.511 193.144 418.984 188.671 418.984 183.154C418.984 177.636 414.511 173.163 408.994 173.163C403.476 173.163 399.004 177.636 399.004 183.154C399.004 188.671 403.476 193.144 408.994 193.144Z" fill="#00D1FF" fill-opacity="0.7"/>
<path d="M183.558 148.845H22V259.14H183.558V148.845Z" fill="#91D2F2"/>
<path d="M217.666 107.37H127.755C124.929 107.37 122.709 105.049 122.709 102.324V12.4127C122.709 9.58723 125.03 7.36719 127.755 7.36719H217.666C220.492 7.36719 222.712 9.68814 222.712 12.4127V102.324C222.712 105.049 220.492 107.37 217.666 107.37Z" fill="#91D2F2"/>
<path d="M205.153 57.9241H196.172C195.869 70.5379 185.475 80.7299 172.761 80.7299C170.137 80.7299 167.715 80.3263 165.394 79.519L162.064 87.8946C165.394 89.1056 169.027 89.711 172.761 89.711C190.42 89.711 204.85 75.5835 205.153 57.9241Z" fill="#BAE8F7"/>
<path d="M173.972 24.926V33.9071C186.384 34.5126 196.172 44.7046 196.172 57.3184C196.172 57.4193 196.172 57.5203 196.172 57.6212C196.172 57.7221 196.172 57.823 196.172 57.9239H205.153C205.153 57.7221 205.153 57.6212 205.153 57.4193V57.3184C205.153 39.8608 191.329 25.6324 173.972 24.926Z" fill="#F5F9FC"/>
<path d="M149.35 57.3184C149.35 44.4018 159.844 33.9071 172.761 33.9071C173.165 33.9071 173.568 33.9071 173.972 34.008V25.0269C173.568 25.0269 173.165 24.926 172.761 24.926C154.799 24.926 140.368 39.4572 140.368 57.3184C140.368 71.446 149.45 83.4544 162.064 87.8945L165.394 79.5189C156.01 76.4915 149.35 67.7123 149.35 57.3184Z" fill="#BAE8F7"/>
<path d="M172.761 75.4815C182.793 75.4815 190.925 67.3492 190.925 57.3175C190.925 47.2859 182.793 39.1536 172.761 39.1536C162.729 39.1536 154.597 47.2859 154.597 57.3175C154.597 67.3492 162.729 75.4815 172.761 75.4815Z" fill="#BAE8F7"/>
<path d="M172.761 43.6953C172.761 43.6953 169.128 47.3281 161.257 49.8509C161.257 49.8509 162.468 63.7766 165.294 66.2994C168.119 68.8221 171.954 69.1249 172.761 71.0422C173.568 69.1249 177.403 68.7212 180.228 66.2994C183.054 63.8775 184.265 49.8509 184.265 49.8509C176.293 47.3281 172.761 43.6953 172.761 43.6953Z" fill="#DEF7F9"/>
<path d="M172.761 46.7227C172.761 46.7227 170.036 49.5482 163.78 51.4655C163.78 51.4655 164.688 62.2629 166.908 64.1803C169.128 66.0976 172.054 66.4003 172.761 67.914C173.366 66.4003 176.394 66.0976 178.614 64.1803C180.834 62.2629 181.742 51.4655 181.742 51.4655C175.485 49.5482 172.761 46.7227 172.761 46.7227Z" fill="#00D1FF"/>
<path d="M403.746 57.2168C403.746 57.2168 402.737 67.0052 391.839 70.9407C391.839 70.9407 401.526 71.6471 403.746 84.6646C403.746 84.6646 404.755 74.8762 415.654 70.9407C415.654 70.9407 405.966 70.2343 403.746 57.2168Z" fill="#4200FF"/>
<path d="M384.371 96.2695C384.371 96.2695 382.757 112.113 365.097 118.571C365.097 118.571 380.738 119.681 384.371 140.872C384.371 140.872 385.986 125.029 403.645 118.571C403.746 118.47 388.105 117.36 384.371 96.2695Z" fill="#4200FF"/>
<path d="M135.424 204.548H126.443C126.14 217.161 115.746 227.353 103.031 227.353C100.408 227.353 97.9859 226.95 95.665 226.143L92.3349 234.518C95.665 235.729 99.2978 236.335 103.031 236.335C120.792 236.435 135.121 222.207 135.424 204.548Z" fill="#91D2F2"/>
<path d="M104.242 171.65V180.631C116.654 181.237 126.443 191.429 126.443 203.942C126.443 204.043 126.443 204.144 126.443 204.245C126.443 204.346 126.443 204.446 126.443 204.547H135.424C135.424 204.346 135.424 204.245 135.424 204.043V203.942C135.424 186.484 121.599 172.256 104.242 171.65Z" fill="#BAE8F7"/>
<path d="M79.62 203.942C79.62 191.026 90.1147 180.531 103.031 180.531C103.435 180.531 103.839 180.531 104.242 180.632V171.651C103.839 171.651 103.435 171.55 103.031 171.55C85.1701 171.55 70.6389 186.081 70.6389 203.942C70.6389 218.07 79.7209 230.078 92.3348 234.518L95.6648 226.143C86.381 223.115 79.62 214.336 79.62 203.942Z" fill="#BAE8F7"/>
<path d="M61.3554 175.485H46.2188V179.522H61.3554V175.485Z" fill="#91D2F2"/>
<path d="M61.3553 187.796H46.2186V191.833H61.3553V187.796Z" fill="#91D2F2"/>
<path d="M61.3553 200.007H46.2186V204.043H61.3553V200.007Z" fill="#91D2F2"/>
<path d="M61.3552 212.317H46.2185V216.354H61.3552V212.317Z" fill="#91D2F2"/>
<path d="M61.3552 224.629H46.2185V228.665H61.3552V224.629Z" fill="#91D2F2"/>
<path d="M159.34 175.99H144.203V180.027H159.34V175.99Z" fill="#91D2F2"/>
<path d="M159.34 188.301H144.203V192.337H159.34V188.301Z" fill="#91D2F2"/>
<path d="M159.34 200.613H144.203V204.65H159.34V200.613Z" fill="#91D2F2"/>
<path d="M159.34 212.924H144.203V216.96H159.34V212.924Z" fill="#91D2F2"/>
<path d="M159.34 225.234H144.203V229.271H159.34V225.234Z" fill="#91D2F2"/>
<path d="M92.2341 396.177H91.8305C89.4086 396.177 87.3904 394.159 87.3904 391.737V313.43C87.3904 311.008 89.4086 308.99 91.8305 308.99H92.2341C94.656 308.99 96.6742 311.008 96.6742 313.43V391.737C96.7751 394.159 94.7569 396.177 92.2341 396.177Z" fill="#C982EA"/>
<path d="M92.7387 384.673H91.3259C89.1059 384.673 87.3904 382.856 87.3904 380.737V346.831C87.3904 344.611 89.2068 342.896 91.3259 342.896H92.7387C94.9587 342.896 96.6742 344.712 96.6742 346.831V380.737C96.7751 382.957 94.9587 384.673 92.7387 384.673Z" fill="#7C00CD"/>
<path d="M114.334 396.177H113.93C111.508 396.177 109.49 394.159 109.49 391.737V337.447C109.49 335.025 111.508 333.007 113.93 333.007H114.334C116.755 333.007 118.774 335.025 118.774 337.447V391.737C118.774 394.159 116.755 396.177 114.334 396.177Z" fill="#C982EA"/>
<path d="M114.535 384.673H113.627C111.306 384.673 109.389 382.756 109.389 380.435V362.775C109.389 360.454 111.306 358.537 113.627 358.537H114.535C116.856 358.537 118.774 360.454 118.774 362.775V380.435C118.774 382.857 116.856 384.673 114.535 384.673Z" fill="#7C00CD"/>
<path d="M137.442 396.177H137.039C134.617 396.177 132.599 394.159 132.599 391.737V308.889C132.599 306.467 134.617 304.449 137.039 304.449H137.442C139.864 304.449 141.882 306.467 141.882 308.889V391.737C141.882 394.159 139.864 396.177 137.442 396.177Z" fill="#C982EA"/>
<path d="M137.442 363.382H137.039C134.617 363.382 132.599 361.363 132.599 358.942V326.045C132.599 323.623 134.617 321.604 137.039 321.604H137.442C139.864 321.604 141.882 323.623 141.882 326.045V358.942C141.882 361.363 139.864 363.382 137.442 363.382Z" fill="#7C00CD"/>
<path d="M160.45 396.178H160.046C157.624 396.178 155.606 394.159 155.606 391.737V358.538C155.606 356.116 157.624 354.098 160.046 354.098H160.45C162.872 354.098 164.89 356.116 164.89 358.538V391.737C164.991 394.159 162.973 396.178 160.45 396.178Z" fill="#C982EA"/>
<path d="M160.45 396.177H160.046C157.624 396.177 155.606 394.158 155.606 391.737V374.582C155.606 372.16 157.624 370.142 160.046 370.142H160.45C162.872 370.142 164.89 372.16 164.89 374.582V391.737C164.991 394.158 162.972 396.177 160.45 396.177Z" fill="#7C00CD"/>
<path d="M183.558 396.177H183.154C180.733 396.177 178.714 394.159 178.714 391.737V324.732C178.714 322.31 180.733 320.292 183.154 320.292H183.558C185.98 320.292 187.998 322.31 187.998 324.732V391.737C187.998 394.159 186.081 396.177 183.558 396.177Z" fill="#C982EA"/>
<path d="M183.558 396.177H183.155C180.733 396.177 178.715 394.159 178.715 391.737V367.72C178.715 365.298 180.733 363.28 183.155 363.28H183.558C185.98 363.28 187.998 365.298 187.998 367.72V391.737C187.998 394.159 186.081 396.177 183.558 396.177Z" fill="#7C00CD"/>
<path d="M297.79 35.1187C297.79 35.1187 296.982 25.734 284.368 27.9541C271.654 30.0732 267.012 38.7515 268.223 40.9716C269.434 43.1916 271.149 40.9716 271.149 40.9716C271.149 40.9716 264.489 48.3381 268.828 51.769C273.066 55.2 277.103 53.0809 277.103 53.0809C277.103 53.0809 296.478 52.2736 299.101 53.7873C301.725 55.3009 308.89 55.9064 308.89 55.9064C308.89 55.9064 313.128 28.4586 297.79 35.1187Z" fill="#9B5342"/>
<path d="M241.885 388.509C241.885 388.509 234.922 397.39 225.235 402.536C216.455 407.178 207.676 412.022 211.713 416.966C215.749 421.911 247.738 421.911 255.104 416.159C260.251 413.031 253.591 392.95 254.196 387.399" fill="#9B5342"/>
<path d="M350.566 380.637C350.566 380.637 347.942 391.334 341.181 399.709C335.127 407.278 329.274 415.149 334.824 417.873C340.374 420.598 369.033 408.085 373.271 400.012C376.601 395.169 362.675 379.83 361.162 374.684" fill="#9B5342"/>
<path d="M262.975 180.128C256.012 191.026 228.564 267.517 225.537 285.378C223.519 297.79 225.739 344.007 228.161 373.069C229.17 385.784 229.372 395.068 230.784 396.985C233.812 401.224 253.388 402.031 256.416 397.591C257.929 386.692 264.993 307.275 261.663 295.267C273.873 272.461 314.641 215.951 315.651 187.292" fill="#375DA0"/>
<path d="M330.586 179.724C334.925 197.585 326.246 275.993 330.586 291.129C344.108 308.587 356.52 342.695 365.097 380.234C361.162 390.325 345.42 391.536 345.42 391.536C345.42 391.536 313.834 333.411 299.808 313.733C285.882 294.056 278.314 202.227 278.314 202.227" fill="#375DA0"/>
<path d="M254.498 95.0599C250.765 101.115 254.498 196.98 248.646 206.062C276.396 222.813 334.622 206.062 334.622 206.062C334.622 206.062 339.667 105.958 328.567 96.1699C313.632 82.9505 266.103 82.9505 254.498 95.0599Z" fill="#FFCE76"/>
<path d="M193.145 78.7118C193.145 78.7118 208.08 109.389 210.199 114.939C215.547 111.407 242.894 100.509 250.563 97.0776C258.838 93.3439 258.535 112.517 258.636 117.361C258.636 117.361 219.483 139.763 205.254 137.139C195.97 135.424 186.081 104.242 183.861 82.0419C178.513 74.9781 193.145 78.7118 193.145 78.7118Z" fill="#FFAD81"/>
<path d="M262.067 90.3174C255.205 92.0329 234.518 102.225 228.766 105.05C228.867 114.94 237.243 132.902 240.068 134.819L268.02 124.425" fill="#FFCE76"/>
<path d="M312.724 178.716C312.724 178.716 339.869 158.13 344.915 154.901C340.374 150.36 324.43 125.637 319.586 118.775C314.742 111.913 337.952 106.867 337.952 106.867C337.952 106.867 367.62 140.874 367.821 155.304C367.922 164.79 340.071 180.431 318.779 187.091C314.137 196.375 308.082 190.825 305.357 193.146C299.807 196.88 293.753 195.669 293.046 192.137C292.138 187.899 295.973 182.752 299.505 181.037C303.844 178.918 312.724 178.716 312.724 178.716Z" fill="#FFAD81"/>
<path d="M308.789 111.509C311.816 117.866 325.136 136.131 328.971 141.277C338.658 139.158 352.18 128.159 353.492 125.031C353.492 125.031 338.456 102.023 325.742 94.2529" fill="#FFCE76"/>
<path d="M291.634 99.9031C297.587 99.1968 302.633 95.4631 306.064 87.6929C304.853 87.4911 303.642 86.7847 303.339 86.482C300.615 84.161 304.348 64.1807 304.348 64.1807L283.662 64.4834C283.662 64.4834 282.249 82.6474 280.534 85.4729C279.928 86.5829 277.91 86.5829 274.681 87.2893C276.598 96.674 285.075 100.61 291.634 99.9031Z" fill="#FFAD81"/>
<path d="M285.377 71.9509L281.946 74.0701C281.946 74.0701 283.056 82.6475 289.313 83.0511C295.569 83.3539 298.395 73.8682 298.395 73.8682L285.377 71.9509Z" fill="#FFA076"/>
<path d="M289.918 39.6592C289.918 39.6592 279.02 40.8701 276.8 54.0894C274.58 67.3088 280.433 79.6199 288.506 80.3263C296.578 81.0327 305.459 72.3543 306.367 64.6851C309.596 64.8869 313.027 57.6213 310.605 55.0986C308.183 52.4749 305.761 56.7131 305.761 56.7131C305.761 56.7131 303.844 42.2829 289.918 39.6592Z" fill="#FFAD81"/>
<path d="M193.75 80.6293C193.75 80.6293 192.337 68.2173 191.227 64.7863C190.42 62.1626 181.843 50.6588 179.724 51.2643C177.604 51.8697 184.265 62.2636 184.265 62.2636C184.265 62.2636 174.476 65.2909 174.88 71.3455C175.082 75.382 180.733 81.9412 185.375 82.8494" fill="#FFAD81"/>
<path d="M288.102 36.0271L274.58 40.7699C274.58 40.7699 269.03 50.9619 277.305 51.7692C285.579 52.5765 294.56 43.0909 294.56 43.0909C294.56 43.0909 301.523 53.4847 304.853 51.7692C308.284 50.1546 300.413 38.7517 300.413 38.7517" fill="#9B5342"/>
<path d="M305.761 65.4935L280.332 64.6862C276.093 64.5853 272.864 61.0534 272.965 56.8152V56.4115C273.066 52.1733 276.598 48.9441 280.836 49.045L306.266 49.8523C310.504 49.9532 313.733 53.4851 313.632 57.7234V58.127C313.531 62.2644 310 65.5944 305.761 65.4935Z" fill="#85AFC1"/>
<path d="M299.303 65.2916L274.983 64.4843C270.846 64.3834 267.617 60.8515 267.718 56.7142V56.1087C267.819 51.9714 271.35 48.7422 275.488 48.8431L299.807 49.6504C303.945 49.7513 307.174 53.2832 307.073 57.4206V58.026C306.871 62.1634 303.44 65.3925 299.303 65.2916Z" fill="#375DA0"/>
<path d="M298.597 64.7875L275.69 64.0812C271.755 63.9802 268.727 60.6502 268.828 56.8156V56.2101C268.929 52.2746 272.259 49.2472 276.094 49.3482L299.001 50.0545C302.936 50.1554 305.963 53.4855 305.862 57.3201V57.9256C305.762 61.8611 302.532 64.8884 298.597 64.7875Z" fill="#CFE0E8"/>
<path d="M303.137 57.3197V57.8243C303.037 61.2553 300.11 63.9799 296.679 63.8789L278.414 63.2735L276.194 63.1726C275.992 63.1726 275.791 63.1726 275.589 63.1726C274.681 63.0717 273.772 62.7689 272.965 62.2644C272.461 61.9616 271.956 61.558 271.552 61.0534C270.543 59.9434 269.938 58.4298 270.039 56.7143V56.2097C270.14 52.7787 273.066 50.0541 276.497 50.1551L285.074 50.4578L287.799 50.5587L291.432 50.6596L294.156 50.7605L296.78 50.8614C300.413 50.9623 303.238 53.8888 303.137 57.3197Z" fill="white"/>
<path d="M294.257 50.7611L278.313 63.3749L276.093 63.274C275.892 63.274 275.69 63.274 275.488 63.274L291.533 50.6602L294.257 50.7611Z" fill="#CFE0E8"/>
<path d="M287.9 50.5589L272.965 62.3655C272.46 62.0628 271.956 61.6591 271.552 61.1546L285.074 50.458L287.9 50.5589Z" fill="#CFE0E8"/>
<path d="M377.98 356.559L517.867 368.296C528.173 369.135 537.205 361.799 537.205 352.367V266.011C537.205 256.475 528.057 249.139 517.635 250.082L377.749 263.811C368.832 264.649 362 271.566 362 279.74V340.734C362 348.908 368.948 355.825 377.98 356.559Z" fill="#00FFA3"/>
<path d="M407.274 302.647C393.494 302.647 382.377 312.708 382.377 325.179C382.377 337.651 393.494 347.711 407.274 347.711C421.054 347.711 432.171 337.651 432.171 325.179C432.171 312.708 421.054 302.647 407.274 302.647ZM407.274 343.1C396.273 343.1 387.356 335.031 387.356 325.075C387.356 315.119 396.273 307.049 407.274 307.049C418.275 307.049 427.192 315.119 427.192 325.075C427.192 335.031 418.275 343.1 407.274 343.1Z" fill="#E3F5FC"/>
<path d="M407.274 338.527C415.396 338.527 421.981 332.568 421.981 325.218C421.981 317.867 415.396 311.908 407.274 311.908C399.152 311.908 392.567 317.867 392.567 325.218C392.567 332.568 399.152 338.527 407.274 338.527Z" fill="#E3F5FC"/>
<path d="M450.12 313.547H444.793V347.816H450.12V313.547Z" fill="#E3F5FC"/>
<path d="M469.459 306.105H464.132V349.178H469.459V306.105Z" fill="#E3F5FC"/>
<path d="M489.029 299.189H483.818V351.485H489.029V299.189Z" fill="#E3F5FC"/>
<path d="M510.567 295.626H505.356V352.637H510.567V295.626Z" fill="#E3F5FC"/>
<path d="M426.922 275.11L380.143 279.354L380.674 284.15L427.454 279.907L426.922 275.11Z" fill="#E3F5FC"/>
<path d="M458.97 283.789L380.195 290.151L380.669 294.953L459.444 288.591L458.97 283.789Z" fill="#E3F5FC"/>
<path d="M172.1 158H12V267.3H172.1V158Z" fill="#91D2F2"/>
<path d="M168.3 162H15.7V263.4H168.3V162Z" fill="#FDFEFF"/>
<path d="M124.4 213.2H115.5C115.2 225.7 104.9 235.8 92.3 235.8C89.7 235.8 87.3 235.4 85 234.6L81.7 242.9C85 244.1 88.6 244.7 92.3 244.7C109.9 244.8 124.1 230.7 124.4 213.2Z" fill="#4200FF"/>
<path d="M93.5 180.6V189.5C105.8 190.1 115.5 200.2 115.5 212.6C115.5 212.7 115.5 212.8 115.5 212.9C115.5 213 115.5 213.1 115.5 213.2H124.4C124.4 213 124.4 212.9 124.4 212.7V212.6C124.4 195.3 110.7 181.2 93.5 180.6Z" fill="#00D1FF"/>
<path d="M69.1 212.6C69.1 199.8 79.5 189.4 92.3 189.4C92.7 189.4 93.1 189.4 93.5 189.5V180.6C93.1 180.6 92.7 180.5 92.3 180.5C74.6 180.5 60.2 194.9 60.2 212.6C60.2 226.6 69.2 238.5 81.7 242.9L85 234.6C75.8 231.6 69.1 222.9 69.1 212.6Z" fill="#00D1FF"/>
<path d="M51 184.4H36V188.4H51V184.4Z" fill="#91D2F2"/>
<path d="M51 196.6H36V200.6H51V196.6Z" fill="#91D2F2"/>
<path d="M51 208.7H36V212.7H51V208.7Z" fill="#91D2F2"/>
<path d="M51 220.9H36V224.9H51V220.9Z" fill="#91D2F2"/>
<path d="M51 233.1H36V237.1H51V233.1Z" fill="#91D2F2"/>
<path d="M148.1 184.9H133.1V188.9H148.1V184.9Z" fill="#91D2F2"/>
<path d="M148.1 197.1H133.1V201.1H148.1V197.1Z" fill="#91D2F2"/>
<path d="M148.1 209.301H133.1V213.301H148.1V209.301Z" fill="#91D2F2"/>
<path d="M148.1 221.5H133.1V225.5H148.1V221.5Z" fill="#91D2F2"/>
<path d="M148.1 233.7H133.1V237.7H148.1V233.7Z" fill="#91D2F2"/>
</svg>
