<svg width="258" height="452" viewBox="0 0 258 452" fill="none" xmlns="http://www.w3.org/2000/svg">
<path d="M255.486 392.175V356.669L221.992 337.336V375.348L190.796 393.359V356.014L157.876 375.014L126.106 356.681V321.841C127.071 321.589 127.784 320.715 127.784 319.669C127.784 319.462 127.75 319.267 127.692 319.083L158.152 301.496L158.439 301.336V262.669L125.531 281.669L93.186 262.99L60.841 281.657L29.0706 263.312V226.634L61.9904 207.634L29.0706 188.634V150.622L-4.1365 169.794L-4.42387 169.955V206.634L-34.0218 189.542C-33.9758 189.358 -33.9298 189.162 -33.9298 188.955C-33.9298 187.909 -34.6425 187.036 -35.608 186.783V114.599L-3.55029 96.0926L-3.26294 95.9317V57.2648L-36.4701 76.4374L-36.7574 76.5982V113.943L-68.5278 132.288L-99.7234 114.277L-68.2404 96.1041L-67.9531 95.9433V57.2763L-101.16 76.4488L-101.448 76.6097V150.633L-131.045 133.541C-131 133.357 -130.954 133.162 -130.954 132.955C-130.954 131.909 -131.666 131.035 -132.632 130.783V95.2766L-164.368 76.9431L-133.172 58.9315L-132.597 59.2648V58.5981L-132.023 58.2648L-132.597 57.9315V20.5864L-163.345 2.8391C-163.299 2.65519 -163.253 2.45977 -163.253 2.25287C-163.253 1.01148 -164.264 0 -165.506 0C-166.747 0 -167.758 1.01148 -167.758 2.25287C-167.758 3.29886 -167.046 4.17242 -166.08 4.42529V39.2647L-199 58.2648L-166.655 76.9316L-198.138 95.1041L-198.425 95.2651V132.61L-199 132.944L-198.425 133.277V170.622L-166.678 188.955L-198.172 207.139L-198.46 207.3V245.967L-165.253 226.795L-164.965 226.634V189.944L-164.942 189.955V151.944L-134.781 134.53C-134.505 134.806 -134.149 135.012 -133.758 135.116V170.622L-101.988 188.955L-133.459 207.139L-133.747 207.3V244.657L-163.885 262.059C-164.299 261.646 -164.862 261.393 -165.483 261.393C-166.724 261.393 -167.735 262.404 -167.735 263.646C-167.735 264.692 -167.023 265.565 -166.057 265.818V337.957L-198.172 356.497L-198.46 356.658V395.325L-198.414 395.29V432.003L-166.069 450.67V451.337L-165.494 451.003L-164.919 451.337V450.67L-132.862 432.164L-132.574 432.003V393.336L-163.885 411.417C-164.299 411.003 -164.862 410.75 -165.483 410.75C-166.115 410.75 -166.678 411.003 -167.08 411.417L-196.701 394.313L-166.057 376.623V376.658L-133.137 357.658L-100.218 376.658V338.635L-68.1945 320.14L-67.9071 319.979V284.473C-66.9416 284.221 -66.2289 283.347 -66.2289 282.301C-66.2289 281.06 -67.2404 280.048 -68.4818 280.048C-69.7232 280.048 -70.7347 281.06 -70.7347 282.301C-70.7347 282.508 -70.7002 282.703 -70.6427 282.887L-101.103 300.473L-101.39 300.634V337.301L-132.551 319.313V245.278L-100.815 226.956L-67.8956 245.956V207.956L-37.7345 190.542C-37.4586 190.817 -37.1023 191.024 -36.7115 191.128V226.634L-5.9641 244.381C-6.01008 244.565 -6.05606 244.76 -6.05606 244.967C-6.05606 245.174 -6.02157 245.37 -5.9641 245.554L-36.4241 263.14L-36.7115 263.301V337.945L-66.6887 355.256C-67.1025 354.681 -67.7692 354.301 -68.5278 354.301C-69.7692 354.301 -70.7807 355.313 -70.7807 356.554C-70.7807 357.6 -70.068 358.474 -69.1025 358.727V395.313L-36.7574 376.646V413.325L-3.26294 432.658V393.991L-34.9988 375.669L-3.79168 357.646L26.381 375.06C26.335 375.244 26.289 375.44 26.289 375.646C26.289 376.888 27.3005 377.899 28.5419 377.899C29.7833 377.899 30.7948 376.888 30.7948 375.646C30.7948 374.6 30.0821 373.727 29.1166 373.474V301.301L60.887 282.956L92.0826 300.968L60.5996 319.14L60.3122 319.301V356.646L59.7375 356.98L60.3122 357.313V393.991L28.2545 412.497L27.9672 412.658V451.325L61.1743 432.153L61.4617 431.992V395.313L92.6573 413.325V413.992L93.232 413.658L126.152 432.658V396.497C126.543 396.394 126.899 396.187 127.175 395.911L157.336 413.325V451.325L189.681 432.658V432.67L222.888 413.497L223.175 413.336V376.658L252.773 393.75C252.727 393.934 252.681 394.129 252.681 394.336C252.681 395.578 253.693 396.589 254.934 396.589C256.176 396.589 257.187 395.578 257.187 394.336C257.164 393.302 256.452 392.428 255.486 392.175ZM-100.264 77.2649L-69.068 59.2533V95.2651L-100.264 113.277V77.2649ZM-166.115 225.979L-197.31 243.99V207.979L-166.115 189.967V225.979ZM-133.724 395.336V431.348L-164.919 449.36V415.187C-163.954 414.934 -163.241 414.061 -163.241 413.015C-163.241 412.808 -163.276 412.612 -163.333 412.428L-133.724 395.336ZM-166.069 415.187V449.36L-197.253 431.348V395.336L-167.655 412.428C-167.701 412.612 -167.747 412.808 -167.747 413.015C-167.747 414.061 -167.034 414.923 -166.069 415.187ZM189.658 394.003L158.462 412.015V376.003L189.658 357.991V394.003ZM124.968 392.175C124.577 392.279 124.221 392.474 123.945 392.762L94.3585 375.681L124.979 358.003V392.175H124.968ZM93.7837 338.003V301.991L123.382 319.083C123.336 319.267 123.29 319.462 123.29 319.669C123.29 320.715 124.002 321.589 124.968 321.841V356.014L93.7837 338.003ZM124.968 317.485C124.577 317.589 124.221 317.795 123.945 318.071L94.3585 300.991L124.979 283.312V317.485H124.968ZM93.209 339.003L124.405 357.014L110.232 365.198L93.209 375.026L62.0134 357.014L76.1859 348.83L93.209 339.003ZM93.7837 376.669L123.382 393.762C123.336 393.946 123.29 394.141 123.29 394.348C123.29 394.555 123.324 394.75 123.382 394.934L93.7837 412.026V376.669ZM157.313 300.657L127.152 318.071C126.876 317.795 126.52 317.589 126.129 317.485V282.646L157.324 264.634V300.657H157.313ZM-3.23995 242.806V208.634L27.9557 226.645V262.657L-1.64224 245.565C-1.59626 245.381 -1.55028 245.186 -1.55028 244.979C-1.56177 243.933 -2.27442 243.059 -3.23995 242.806ZM-3.23995 247.151C-2.84914 247.048 -2.49283 246.841 -2.21696 246.565L27.3695 263.646L-3.23995 281.324V247.151ZM28.5304 225.645L-2.66524 207.634L12.6337 198.806L28.5304 189.634L59.726 207.645L28.5304 225.645ZM-3.23995 170.622L27.9557 152.61V188.622L-3.23995 206.634V170.622ZM-35.585 77.2649L-4.38938 59.2533V95.2651L-35.585 113.277V77.2649ZM-36.7345 151.288L-46.9414 157.185L-67.9301 169.3V133.288L-36.7345 115.277V151.288ZM-69.068 206.634L-84.6658 197.634L-100.264 188.634V152.622L-84.6658 161.622L-69.068 170.622V206.634ZM-100.264 115.277L-69.068 133.288V169.3L-84.6658 160.3L-100.264 151.3V115.277ZM-133.747 130.783C-134.137 130.886 -134.494 131.081 -134.77 131.369L-164.931 113.955V77.9431L-133.735 95.9547V130.783H-133.747ZM-133.747 21.253V57.2648L-164.942 39.2532V4.41382C-164.551 4.31037 -164.195 4.11495 -163.919 3.82759L-133.747 21.253ZM-165.517 40.2532L-134.321 58.2648L-164.942 75.9431L-165.517 76.2764L-166.092 75.9431L-196.713 58.2648L-165.517 40.2532ZM-197.287 95.9433L-166.092 77.9316V113.943L-197.287 131.955V95.9433ZM-197.287 133.944L-166.092 151.955V187.967L-197.287 169.955V133.944ZM-165.517 150.967L-196.713 132.955L-182.54 124.771L-165.517 114.943L-135.344 132.357C-135.39 132.541 -135.436 132.737 -135.436 132.944C-135.436 133.15 -135.402 133.346 -135.344 133.53L-165.517 150.967ZM-132.597 135.127C-132.206 135.024 -131.85 134.829 -131.574 134.541L-101.413 151.955V187.967L-132.609 169.955V135.127H-132.597ZM-132.597 207.967L-101.402 189.955V225.967L-132.597 243.979V207.967ZM-164.919 265.818C-163.954 265.565 -163.241 264.692 -163.241 263.646C-163.241 263.439 -163.276 263.243 -163.333 263.059L-133.735 245.967V281.979L-164.931 299.991V265.818H-164.919ZM-133.724 319.336L-164.919 337.347V301.336L-133.724 283.324V319.336ZM-166.115 375.336L-197.31 393.348V357.336L-166.115 339.324V375.336ZM-164.919 338.669L-133.724 320.658V356.669L-164.919 374.681V338.669ZM-100.264 301.324L-70.1025 283.91C-69.8266 284.186 -69.4703 284.393 -69.0795 284.496V319.336L-100.275 337.347V301.324H-100.264ZM-101.39 339.313V374.681L-132.586 356.669V320.658L-101.425 338.646V339.324L-101.39 339.313ZM-69.068 243.979L-100.264 225.967V189.955L-84.6658 198.956L-69.068 207.956V243.979ZM-67.9186 206.645V170.622L-50.0909 160.334L-36.7229 152.622V186.795C-37.6885 187.047 -38.4011 187.921 -38.4011 188.967C-38.4011 189.174 -38.3666 189.369 -38.3092 189.553L-67.9186 206.645ZM-35.585 225.979V191.139C-35.1942 191.036 -34.8379 190.84 -34.562 190.553L-4.40087 207.967V242.806C-4.79167 242.91 -5.14801 243.105 -5.42387 243.393L-35.585 225.979ZM-35.585 263.979L-5.42387 246.565C-5.14801 246.841 -4.79167 247.048 -4.40087 247.151V281.991L-4.97559 282.324L-35.5965 300.002V263.979H-35.585ZM-35.585 338.669L-4.38938 320.658V356.669L-35.585 374.681V338.669ZM-4.38938 319.336L-35.585 337.347V301.336L-4.38938 283.324V319.336ZM-67.9761 393.348V358.761C-67.0105 358.508 -66.2979 357.635 -66.2979 356.589C-66.2979 356.52 -66.3094 356.451 -66.3209 356.382L-36.7919 339.336V375.348L-67.9761 393.348ZM-4.43536 430.681L-35.631 412.67V376.658L-4.43536 394.67V430.681ZM27.9557 373.497C27.5649 373.6 27.2085 373.796 26.9327 374.083L-3.22844 356.669V320.658L27.9672 338.669V373.497H27.9557ZM-3.23995 319.336V283.324L27.9557 301.336V337.347L-3.23995 319.336ZM28.5304 300.324L-2.66524 282.312L28.5189 264.301L29.0936 264.634L59.7145 282.312L28.5304 300.324ZM93.209 264.312L124.405 282.324L93.7837 300.002L93.209 300.336L92.6343 300.002L62.0134 282.324L93.209 264.312ZM61.4387 319.991L92.6343 301.979V337.991L61.4387 356.003V319.991ZM60.2892 431.36L29.0936 449.371V413.359L60.2892 395.348V431.36ZM61.4387 394.014V358.003L92.6343 376.014V412.026L61.4387 394.014ZM94.3585 413.026L123.945 395.945C124.221 396.221 124.577 396.428 124.968 396.532V430.704L94.3585 413.026ZM126.117 392.175V358.003L157.313 376.014V412.026L127.715 394.934C127.761 394.75 127.807 394.555 127.807 394.348C127.807 393.302 127.083 392.428 126.117 392.175ZM158.462 449.36V413.359L189.658 395.348V431.36L158.462 449.36ZM221.992 412.693L190.796 430.704V394.693L221.992 376.681V412.693ZM223.141 375.348V339.336L254.337 357.347V392.187C253.946 392.29 253.589 392.486 253.314 392.773L223.141 375.348Z" fill="#3B4464"/>
</svg>
